SplineFontDB: 3.0
FontName: Suave
FullName: Suave
FamilyName: swxv
Weight: Book
Copyright: Creative Commons Attribution-ShareAlike 3.0 License -- made by Scott Ellsworth: modifications made to work done previously: High-Logic 1999, 2002; the King Plus font by Stephen Bartok; original font created by someone going by the name of "Tinyallen".
Version: 3.3 - 10May2014
ItalicAngle: 0
UnderlinePosition: -68
UnderlineWidth: 23
Ascent: 800
Descent: 200
sfntRevision: 0x00010000
LayerCount: 2
Layer: 0 0 "Back"  1
Layer: 1 0 "Fore"  0
XUID: [1021 24 1362910418 5270674]
FSType: 8
OS2Version: 4
OS2_WeightWidthSlopeOnly: 0
OS2_UseTypoMetrics: 1
CreationTime: 935971200
ModificationTime: 1399731970
PfmFamily: 17
TTFWeight: 400
TTFWidth: 5
LineGap: 33
VLineGap: 0
Panose: 2 0 0 0 0 0 0 0 0 0
OS2TypoAscent: -72
OS2TypoAOffset: 1
OS2TypoDescent: -10
OS2TypoDOffset: 1
OS2TypoLinegap: 150
OS2WinAscent: 25
OS2WinAOffset: 1
OS2WinDescent: 20
OS2WinDOffset: 1
HheadAscent: -46
HheadAOffset: 1
HheadDescent: 231
HheadDOffset: 1
OS2SubXSize: 700
OS2SubYSize: 650
OS2SubXOff: 0
OS2SubYOff: 138
OS2SupXSize: 700
OS2SupYSize: 650
OS2SupXOff: 0
OS2SupYOff: 477
OS2StrikeYSize: 50
OS2StrikeYPos: 259
OS2Vendor: 'HL  '
OS2CodePages: 80000001.00000000
OS2UnicodeRanges: 00000000.00000000.00000000.00000000
Lookup: 258 0 0 "'kern' Horizontal Kerning in Latin lookup 0"  {"'kern' Horizontal Kerning in Latin lookup 0 subtable" [150,15,0] } ['kern' ('DFLT' <'dflt' > 'latn' <'dflt' > ) ]
MarkAttachClasses: 1
DEI: 91125

StartChar: .notdef
Encoding: 65536 -1 0
Width: 516
Flags: MW
HStem: 0 70<70 417 139 417 139 487> 820 69<139 417 139 139>
VStem: 70 69<70 70 70 820> 417 70<70 820 820 820>
LayerCount: 2
Fore
SplineSet
70 0 m 1
 70 889 l 1
 487 889 l 1
 487 0 l 1
 70 0 l 1
139 70 m 1
 417 70 l 1
 417 820 l 1
 139 820 l 1
 139 70 l 1
EndSplineSet
Validated: 1
EndChar

StartChar: exclam
Encoding: 33 33 2
Width: 250
Flags: HMW
LayerCount: 2
Fore
SplineSet
179 908.199 m 1
 217 876.199 205 736.999 205 488.999 c 0
 205 419.666 203.333 342.999 200 258.999 c 1
 184 240.999 168.167 231.832 152.5 231.499 c 0
 136.833 231.166 121.333 240.333 106 258.999 c 1
 107.333 286.999 108 348.999 108 444.999 c 0
 108 699.666 113 834.199 94 870 c 1
 96 900.67 110 916.337 136 917 c 0
 147.333 917 164.333 913.532 179 908.199 c 1
235 70.999 m 0
 235 47.666 226.999 28.166 210.999 12.499 c 0
 194.999 -3.168 175.666 -11.001 152.999 -11.001 c 0
 129.666 -11.001 110.499 -3.001 95.499 12.999 c 0
 80.499 28.999 72.999 48.332 72.999 70.999 c 0
 72.999 92.999 80.832 111.999 96.499 127.999 c 0
 112.166 143.999 131.333 151.999 154 151.999 c 0
 176.667 151.999 195.834 143.999 211.5 127.999 c 0
 227.167 111.999 235 92.999 235 70.999 c 0
EndSplineSet
Validated: 33
EndChar

StartChar: quotedbl
Encoding: 34 34 3
Width: 379
Flags: MW
HStem: 544 269
VStem: 79 84<727.667 795.001 727.667 795.001> 231 84
LayerCount: 2
Fore
SplineSet
101 556 m 1
 86.333 622 79 691.668 79 765.001 c 2
 79 795.001 l 1
 92.333 807.001 105.833 813.001 119.5 813.001 c 0
 133.167 813.001 147.334 807.001 162 795.001 c 1
 162 785.001 162.333 775.001 163 765.001 c 0
 163 690.334 155.333 620.667 140 556 c 1
 133.333 548 126.833 544 120.5 544 c 0
 114.167 544 107.667 548 101 556 c 1
253 556.001 m 1
 237.666 621.334 230.333 691.334 231.001 766.001 c 2
 231.001 795.001 l 1
 244.334 807.001 258.001 813.001 272.001 813.001 c 0
 286.001 813.001 300.001 807.001 314.001 795.001 c 1
 314.001 785.001 314.334 775.001 315.001 765.001 c 0
 315.001 689.668 307.334 620.001 292.001 556.001 c 1
 286.001 547.334 279.668 543.001 273.001 543.001 c 0
 266.333 543.001 259.666 547.334 253 556.001 c 1
EndSplineSet
Validated: 33
EndChar

StartChar: numbersign
Encoding: 35 35 4
Width: 680
Flags: HMW
HStem: 218 81<11 104 11 119 11 185 201 354 453 604> 496 81<11 160 11 176 11 241 257 412 510 604>
LayerCount: 2
Fore
SplineSet
56 -13 m 1
 104 218 l 1
 11 218 l 1
 11 218 -14.2723 280.046 11 299 c 24
 44.6963 324.272 119 299 119 299 c 1
 160 496 l 1
 11 496 l 1
 11 496 -17.3574 563.079 11 577 c 24
 68.7646 605.357 176 577 176 577 c 1
 176 577 178.137 728.316 223 809 c 24
 238.541 836.95 305 809 305 809 c 1
 257 577 l 1
 428 577 l 1
 428 577 431.099 728.248 476 809 c 24
 491.352 836.609 557 809 557 809 c 1
 510 577 l 1
 604 577 l 1
 604 577 629.518 514.621 604 496 c 24
 569.03 470.481 493 496 493 496 c 1
 453 299 l 1
 604 299 l 1
 604 299 632.423 231.786 604 218 c 24
 545.399 189.577 437 218 437 218 c 1
 437 218 434.825 67.2678 390 -13 c 24
 374.407 -40.9209 308 -13 308 -13 c 1
 354 218 l 1
 185 218 l 1
 185 218 182.825 67.2678 138 -13 c 24
 122.407 -40.9209 56 -13 56 -13 c 1
201 299 m 1
 371 299 l 1
 412 496 l 1
 241 496 l 1
 201 299 l 1
EndSplineSet
Validated: 33
EndChar

StartChar: dollar
Encoding: 36 36 5
Width: 614
Flags: HMW
HStem: -17 82 376 94 741 81
VStem: 40 98 57 97 277 57<-114 -16 822.001 869.001> 445 102<611.001 625.001> 465 100
LayerCount: 2
Fore
SplineSet
273 -111 m 1xe5
 273 -16 l 1
 225.667 -10 192.001 -0.99707 164.001 13.0029 c 0
 130.001 30.3359 101.668 56.6689 79.001 92.002 c 0
 56.334 127.335 43.334 170.335 40.001 221.002 c 1
 85 238 l 0
 138 229 l 0xf5
 153.333 121.667 195.667 74.667 273 66 c 1
 273 372 l 1
 233 379.333 195.667 399.002 153 423.002 c 0
 88.333 459.002 56.333 518.002 57 600.002 c 0
 57 669.335 81.333 725.668 130 769.001 c 0
 163.333 797.671 206.333 816.337 271 823 c 1
 271 823 261.912 859.016 277 869.001 c 24
 297.167 882.347 339 868 339 868 c 1
 338 823 l 1
 462.667 811 519.667 772.333 537 653 c 0
 510 614 l 0
 451 598 l 1xee
 439.667 670.667 400.667 725.667 338 739 c 1
 339 458 l 1
 388.333 445.332 416 435.666 432 429 c 0
 490.667 403.667 530 364.667 550 312 c 0
 560.667 285.333 565.667 257 565 227 c 0
 565 158.333 543.667 101.5 501 56.5 c 0
 458.333 11.5 409.666 -11.667 341 -15 c 1
 341 -15 362.093 -81.8098 340 -113 c 24
 324.89 -134.332 273 -111 273 -111 c 1xe5
272 743 m 1
 235.333 737 210.668 720.17 188.001 696.503 c 0
 165.334 672.836 154.001 643.336 154.001 608.003 c 0xec
 154.001 541.336 190 496.333 272 471 c 1
 272 743 l 1
341 68 m 1
 380.333 73.333 405.002 87.334 429.002 116.001 c 0
 453.002 144.668 465.002 179.335 465.002 220.002 c 0xe5
 465.002 260.669 453.002 292.336 429.002 315.003 c 0
 410.335 332.336 383.666 348.333 339 363 c 1
 341 68 l 1
EndSplineSet
Validated: 33
EndChar

StartChar: percent
Encoding: 37 37 6
Width: 944
Flags: HMW
HStem: -29 67 324 67 389 67 741 68
VStem: 64 86 320 84 579 86 834 86
LayerCount: 2
Fore
SplineSet
55 604 m 0xbf
 55 660.667 74.332 708.002 100.999 746.002 c 0
 130.999 788.002 176.332 809.002 230.999 809.002 c 0
 288.999 809.002 336.332 787.669 366.999 745.002 c 0
 393.666 707.669 412.999 659.002 412.999 599.002 c 0
 412.999 540.335 393.332 491.668 365.999 453.001 c 0
 335.332 410.334 288.665 389.001 231.999 389.001 c 0
 174.666 389.001 128.333 411.334 99 456.001 c 0
 73.667 494.001 55 543.334 55 604 c 0xbf
233.999 728.002 m 0
 177.999 728.002 127.6 693.202 127.6 595.202 c 0
 127.6 502.535 177.998 465.335 233.998 466.002 c 0
 290.665 466.002 342.933 503.869 343.6 601.202 c 1
 342.933 693.869 290.665 728.002 233.999 728.002 c 0
233.998 -28.998 m 1
 669.998 809.002 l 1
 717.6 823.202 l 0
 763.6 806.402 l 1
 345.6 -25.5977 l 1
 289.6 -45.5977 l 4
 233.998 -28.998 l 1
569.998 187.002 m 0
 569.998 244.335 592.331 291.336 618.998 328.003 c 0
 649.665 370.003 692.332 391.003 746.998 391.003 c 0xdf
 804.998 391.003 851.998 369.67 881.998 327.003 c 0
 909.331 289.67 928.998 241.003 928.998 181.003 c 0
 928.998 122.336 908.998 74.0029 880.998 36.0029 c 0
 849.665 -6.66406 802.998 -25.3311 746.998 -25.998 c 0
 690.331 -25.998 643.998 -6.33105 613.998 39.002 c 0
 588.665 77.002 569.998 126.335 569.998 187.002 c 0
748.998 315.003 m 0
 692.998 315.003 649.6 281.202 649.6 183.202 c 0
 649.6 90.5352 692.998 63.0029 748.998 63.0029 c 0
 805.665 63.0029 859.6 93.2021 859.6 191.202 c 0
 859.6 283.869 805.665 315.003 748.998 315.003 c 0
EndSplineSet
Validated: 33
EndChar

StartChar: ampersand
Encoding: 38 38 7
Width: 397
Flags: HMW
VStem: 0 309
LayerCount: 2
Fore
SplineSet
60.2998 -41.2002 m 1
 16.2998 -51.2002 l 0
 -9.7002 -39.2002 l 1
 248.3 866.8 l 1
 282.3 870.8 l 0
 312.3 846.8 l 1
 60.2998 -41.2002 l 1
EndSplineSet
Validated: 1
EndChar

StartChar: quotesingle
Encoding: 39 39 8
Width: 371
Flags: MW
HStem: 622 217
VStem: 48 282
LayerCount: 2
Fore
SplineSet
114 891 m 1
 232 891 l 1
 216 622 l 1
 137 622 l 1
 114 891 l 1
EndSplineSet
Validated: 1
EndChar

StartChar: parenleft
Encoding: 40 40 9
Width: 504
Flags: MW
HStem: -423.5 84.1221 729.78 20G
LayerCount: 2
Fore
SplineSet
329.2 737.78 m 1
 367.202 749.78 l 1
 415.202 720.622 l 1
 159.202 -339.378 l 1
 373.202 -341.378 l 1
 389.202 -387.8 l 1
 375.002 -424 l 1
 354.335 -424 298.668 -423.833 208.001 -423.5 c 0
 117.334 -423.167 62.667 -423 44 -423 c 1
 329.2 737.78 l 1
EndSplineSet
Validated: 1
EndChar

StartChar: parenright
Encoding: 41 41 10
Width: 468
Flags: MW
HStem: 724.43 72.57
LayerCount: 2
Fore
SplineSet
112 -360 m 1
 73.2002 -361.7 l 1
 29.2002 -337.57 l 1
 309.2 724.43 l 1
 209.2 724.43 l 1
 93.2002 724.43 l 1
 79.2002 756.43 l 1
 94 797 l 1
 260.5 797 l 1
 425 797 l 1
 112 -360 l 1
EndSplineSet
Validated: 1
EndChar

StartChar: asterisk
Encoding: 42 42 11
Width: 447
Flags: HMW
VStem: 174 79<808.999 808.999>
LayerCount: 2
Fore
SplineSet
35 649 m 1
 39.2998 703.1 l 4
 60 726.999 l 1
 116.667 706.332 158.667 688.332 186 672.999 c 1
 178.667 738.999 174.667 784.332 174 808.999 c 1
 213.3 823.1 l 0
 253 808.999 l 1
 251.666 772.999 247.333 727.999 240.001 673.999 c 1
 278.001 692.668 321.001 710.335 369.001 726.999 c 1
 389.3 703.1 l 0
 394.001 648.999 l 1
 348.001 634.332 302.668 624.332 258.001 618.999 c 1
 280.001 599.666 311.001 565.666 351.001 516.999 c 1
 331.3 483.1 l 0
 287.001 469.999 l 1
 265.668 498.666 240.668 537.333 212.001 586 c 1
 185.334 534.667 161.667 496 141 470 c 1
 107.3 481.1 l 0
 78 517 l 1
 119.333 569 149.333 603 168 619 c 1
 121.333 627.667 77 637.667 35 649 c 1
EndSplineSet
Validated: 1
EndChar

StartChar: plus
Encoding: 43 43 12
Width: 660
Flags: MW
HStem: 347 91<61.998 277.998 61.998 277.998 369.998 585.998>
VStem: 278 92
LayerCount: 2
Fore
SplineSet
278 129 m 1
 277.998 347 l 1
 61.998 347 l 1
 45.998 364.333 37.998 380.5 37.998 395.5 c 0
 37.998 410.5 45.998 424.667 61.998 438 c 1
 277.998 438 l 1
 277.998 654 l 1
 293.332 675.333 308.665 686 323.998 686 c 0
 339.332 686 354.665 675.333 369.998 654 c 1
 369.998 438 l 1
 585.998 438 l 1
 602.665 424.667 610.998 410.667 610.998 396 c 0
 610.998 381.333 602.665 365 585.998 347 c 1
 369.998 347 l 1
 369.998 129 l 1
 354.665 112.333 339.332 104 323.999 104 c 0
 308.666 104 293.333 112.333 278 129 c 1
EndSplineSet
Validated: 1
EndChar

StartChar: comma
Encoding: 44 44 13
Width: 279
Flags: MW
HStem: -160 321
VStem: 124 115<-33.002 56.6665>
LayerCount: 2
Fore
SplineSet
239 39 m 0
 239 -6.33301 225.332 -47.1699 197.999 -83.5029 c 0
 170.666 -119.836 135.333 -145.336 92 -160.003 c 1
 60 -157.336 44 -145.669 44 -125.002 c 0
 44 -119.002 45.333 -112.002 48 -104.002 c 1
 70 -96.6689 88.167 -85.6689 102.5 -71.002 c 0
 116.833 -56.335 124 -41.002 124 -25.002 c 0
 124 -16.335 115.667 -8.66797 99 -2.00098 c 0
 67 10.666 51 35.333 51 72 c 0
 51 97.333 59.5 118.5 76.5 135.5 c 0
 93.5 152.5 114.333 161 139 161 c 0
 167.667 161 191.5 149.5 210.5 126.5 c 0
 229.5 103.5 239 74.333 239 39 c 0
EndSplineSet
Validated: 1
EndChar

StartChar: hyphen
Encoding: 45 45 14
AltUni2: 002010.ffffffff.0
Width: 332
Flags: MW
HStem: 246 113<59 302 59 302>
VStem: 59 243<246 359 246 359>
LayerCount: 2
Fore
SplineSet
302 246 m 1
 59 246 l 1
 59 359 l 1
 302 359 l 1
 302 246 l 1
EndSplineSet
Validated: 1
EndChar

StartChar: period
Encoding: 46 46 15
Width: 263
Flags: MW
HStem: -17 179<136.667 158.333 134.333 161>
VStem: 61 174<61.6665 86.3335>
LayerCount: 2
Fore
SplineSet
235 74 m 0
 235 48.667 226.667 27.167 210 9.5 c 0
 193.333 -8.16699 173 -17 149 -17 c 0
 124.333 -17 103.5 -8 86.5 10 c 0
 69.5 28 61 49.333 61 74 c 0
 61 98.667 69.333 119.5 86 136.5 c 0
 102.667 153.5 122.667 162 146 162 c 0
 170.667 162 191.667 153.5 209 136.5 c 0
 226.333 119.5 235 98.667 235 74 c 0
EndSplineSet
Validated: 1
EndChar

StartChar: slash
Encoding: 47 47 16
Width: 272
Flags: MW
HStem: 500 167<109.332 139 136 136.998 136.998 138.998 138.998 139 139 139.998>
VStem: 56 166
LayerCount: 2
Fore
SplineSet
222 581 m 1
 212.666 527 185.331 500 139.998 500 c 2
 138.998 500 l 1
 136.998 500 l 1
 134.998 500 l 2
 83.665 500 57.332 527 55.999 581 c 1
 56.666 637.668 83.333 666.335 136 667 c 2
 139 667 l 2
 195 667 222.667 639.667 222 585 c 2
 222 583 l 1
 222 581 l 1
EndSplineSet
Validated: 33
EndChar

StartChar: zero
Encoding: 48 48 17
Width: 606
Flags: MW
HStem: -13 80 718 81
VStem: 47 99<348.333 435.666 348.333 480.667> 464 100
LayerCount: 2
Fore
SplineSet
47 392 m 0
 47 569.333 85 689.332 161 751.999 c 0
 199.667 782.669 248 798.336 306 799 c 0
 390 799 454 765.667 498 699 c 0
 542.667 629.666 564.667 527.333 564 392 c 0
 564 216 526 96.333 450 33 c 0
 412 2.33301 364 -13 306 -13 c 0
 133.333 -13 47 122 47 392 c 0
146 391.999 m 0
 146 304.666 153.334 237.332 168.001 189.999 c 0
 192.668 107.999 238.668 66.999 306.001 66.999 c 0
 412.001 66.999 464.668 175.332 464.001 391.999 c 0
 464.001 479.999 457.001 547.999 443.001 595.999 c 0
 418.334 677.332 372.334 717.999 305.001 717.999 c 0
 238.334 717.999 192.667 677.332 168 595.999 c 0
 153.333 547.332 146 479.332 146 391.999 c 0
EndSplineSet
Validated: 33
EndChar

StartChar: one
Encoding: 49 49 18
Width: 368
Flags: HMW
HStem: 0 21G<415 415>
VStem: 317 98<0 0 0 621.999 621.999 621.999> 351 64<799 799>
LayerCount: 2
Fore
SplineSet
308 0 m 1xc0
 275.333 0 242.667 0 210 -0.000976562 c 1
 206 621.999 l 1xc0
 153.333 572.665 117.3 565.431 39.2998 536.099 c 1
 14.2998 560.099 l 0
 0 599 l 1
 114 652.333 190.667 719 230 799 c 1
 307 799 l 1xa0
 308 0 l 1xc0
EndSplineSet
Validated: 1
EndChar

StartChar: two
Encoding: 50 50 19
Width: 615
Flags: HMW
HStem: 0 93 558 21G 558 21G 718 81
VStem: 52 100 458 100
LayerCount: 2
Fore
SplineSet
559 93 m 1xdc
 574.5 42.0996 l 0
 559.002 0.00292969 l 1
 33.002 0.00292969 l 1
 33.002 4.00293 l 2
 33.002 56.6699 58.335 113.003 109.002 173.003 c 0
 138.335 207.67 181.002 248.003 237.002 294.003 c 0
 303.002 347.336 349.002 389.003 375.002 419.003 c 1
 430.335 478.336 458.002 532.003 458.002 580.003 c 0
 458.002 621.336 443.502 654.669 414.502 680.002 c 0
 385.502 705.335 350.002 718.002 308.002 718.002 c 0
 260.002 718.002 222.169 703.502 194.502 674.502 c 0
 166.835 645.502 152.668 606.669 152.001 558.002 c 1
 98.5 552.1 l 0
 52.001 569.002 l 1
 58.668 643.669 84.501 700.669 129.501 740.002 c 0
 174.501 779.335 234.668 799.002 310.001 799.002 c 0
 380.001 799.002 438.001 780.002 484.001 742.002 c 0
 532.668 701.335 557.335 646.668 558.001 578.001 c 0
 558.001 514.667 530.334 451 475.001 387 c 1
 443.668 352.333 393.001 305.666 323.001 247 c 0
 274.334 206.333 246.667 183 240 177 c 0
 208 147.667 184.333 119.667 169 93 c 1
 559 93 l 1xdc
EndSplineSet
Validated: 1
EndChar

StartChar: three
Encoding: 51 51 20
Width: 609
Flags: HMW
HStem: -15 82<265.668 323.335 258.668 337.002> 388 73 718 81
VStem: 47 98 428 101 463 105
LayerCount: 2
Fore
SplineSet
47 210 m 1xf4
 87.0996 239.6 l 0
 145.001 223 l 1
 165.668 119 217.335 67 300.002 67 c 0
 346.669 67 385.502 82.833 416.502 114.5 c 0
 447.502 146.167 463.002 185.334 463.002 232.001 c 0xf4
 463.002 278.001 448.335 315.501 419.002 344.501 c 0
 389.669 373.501 352.669 388.001 308.002 388.001 c 0
 289.335 388.001 277 397 251 403 c 0
 257 459 l 0
 263.667 458.333 262.002 461.001 266.002 461.001 c 0
 311.336 461.001 348.669 471.668 378.002 493.001 c 0
 411.335 517.001 428.002 550.668 428.002 594.001 c 0
 428.002 631.334 415.669 661.334 391.002 684.001 c 0
 366.335 706.668 335.335 718.001 298.002 718.001 c 0
 216.669 718.001 168.669 670.668 154.002 576.001 c 1
 103.1 567.6 l 0
 57.002 592.001 l 1
 69.002 656.669 95.6689 707.336 137.002 744.001 c 0
 178.335 780.668 231.002 799.001 295.002 799.001 c 0
 336.335 799.001 375.002 790.334 411.002 773.001 c 0
 449.669 753.668 479.002 727.668 499.002 695.001 c 0
 519.002 662.334 529.002 628.001 529.002 592.001 c 0xf8
 529.002 518.001 492.335 464.334 419.002 431.001 c 1
 467.002 419.668 503.835 396.668 529.502 362.001 c 0
 555.169 327.334 568.002 284.667 568.002 234.001 c 0
 568.002 161.334 541.835 101.667 489.502 55 c 0
 437.169 8.33301 374.002 -15 300.002 -15 c 0
 231.335 -15 173.668 5.5 127.001 46.5 c 0
 80.334 87.5 53.667 142 47 210 c 1xf4
EndSplineSet
Validated: 1
EndChar

StartChar: four
Encoding: 52 52 21
Width: 638
Flags: HMW
HStem: 0 21G<359 359 359 457> 190 90<110 359 15 15 457 564>
VStem: 359 98<0 190 0 190 280 639 639 639>
LayerCount: 2
Fore
SplineSet
359 0 m 1
 359 190 l 1
 15 190 l 1
 0 240.5 l 4
 15 280 l 1
 376 795 l 1
 412.2 804.5 l 0
 457 795 l 1
 457 280 l 1
 564 280 l 1
 572.2 234.5 l 0
 564 190 l 1
 457 190 l 1
 457 0 l 1
 406.2 0 l 0
 359 0 l 1
359 280 m 1
 359 639 l 1
 110 280 l 1
 359 280 l 1
EndSplineSet
Validated: 1
EndChar

StartChar: five
Encoding: 53 53 22
Width: 615
Flags: HMW
HStem: -13 80 441 87 691 94
VStem: 47 102 470 103
LayerCount: 2
Fore
SplineSet
56.5 175.189 m 1
 98.5 205.189 l 0
 156.5 201.189 l 1
 163.167 156.522 171.001 136.669 195.001 110.002 c 1
 223.001 81.335 258.334 67.002 301.001 67.002 c 0
 353.668 67.002 395.668 86.6689 427.001 126.002 c 0
 455.668 162.669 470.001 207.669 470.001 261.002 c 0
 470.001 314.336 455.001 357.669 425.001 391.002 c 0
 395.001 424.335 353.334 441.002 300.001 441.002 c 0
 236.668 441.002 188.668 415.335 156.001 364.002 c 1
 100.5 371.189 l 4
 72.5 403.189 l 1
 140.001 785.002 l 1
 536.001 785.002 l 1
 554.5 745.189 l 0
 536.001 691.002 l 1
 219.001 691.002 l 1
 176.001 478.002 l 1
 224.001 511.335 274.001 528.002 326.001 528.002 c 0
 398.668 528.002 458.001 503.169 504.001 453.502 c 0
 550.001 403.835 573.001 342.668 573.001 270.001 c 0
 573.001 198.001 552.001 135.668 510.001 83.001 c 0
 458.668 18.334 389.001 -13.666 301.001 -12.999 c 0
 231.668 -12.999 173.668 6.66797 127.001 46.001 c 0
 80.334 85.334 63.167 105.856 56.5 175.189 c 1
EndSplineSet
Validated: 33
EndChar

StartChar: six
Encoding: 54 54 23
Width: 613
Flags: MW
HStem: -13 80 430 86 718 81
VStem: 42 97 456 97 467 100
LayerCount: 2
Fore
SplineSet
553 601 m 1xf8
 455.998 593.001 l 1xf8
 447.331 631.668 434.998 659.668 418.998 677.001 c 0
 392.998 704.334 360.331 718.001 320.998 718.001 c 0
 251.665 718.001 200.332 676.668 166.999 594.001 c 0
 149.665 551.334 140.332 490.001 138.999 410.001 c 1
 185.666 480.001 249.999 515.334 331.999 516 c 0
 401.332 516 458.332 490.333 502.999 439 c 0
 544.999 390.333 566.332 330 566.999 258 c 0xf4
 566.999 210 556.999 165.333 536.999 124 c 0
 515.666 78.667 485.833 44.5 447.5 21.5 c 0
 409.167 -1.5 366 -13 318 -13 c 0
 216.667 -13 143 28 97 110 c 0
 60.333 174.667 42 262 42 372 c 0
 42 656.667 137 799 327 799 c 0
 389.667 799 441 781.333 481 746 c 0
 521 710.665 545 662.332 553 601 c 1xf8
153.998 258.001 m 0
 153.998 180.668 180.998 125.001 234.998 91.001 c 0
 260.998 75.001 288.331 67.001 316.998 67.001 c 0
 364.331 67.001 401.998 86.334 429.998 125.001 c 0
 454.665 159.668 466.998 202.001 466.998 252.001 c 0xf4
 466.998 302.001 453.998 343.334 427.998 376.001 c 0
 399.998 412.001 361.331 430.001 311.998 430.001 c 0
 264.665 430.001 226.498 413.334 197.498 380.001 c 0
 168.498 346.668 153.998 306.001 153.998 258.001 c 0
EndSplineSet
Validated: 1
EndChar

StartChar: seven
Encoding: 55 55 24
Width: 604
Flags: HMW
HStem: 0 21G<164.001 265.001 164.001 164.001> 691 95
VStem: 164 101
LayerCount: 2
Fore
SplineSet
52 691 m 1
 37.6 741.4 l 0
 52.001 786.001 l 1
 568.001 786.001 l 1
 577.6 749.4 l 0
 568.001 709.001 l 1
 511.334 648.334 458.001 571.667 408.001 479 c 0
 362.001 392.333 326.334 305.666 301.001 219 c 0
 281.668 151 269.668 78 265.001 0 c 1
 164.001 0 l 1
 165.334 74.667 179.667 157.667 207 249 c 0
 232.333 332.333 264 410.333 302 483 c 0
 345.333 565 392 634.333 442 691 c 1
 52 691 l 1
EndSplineSet
Validated: 1
EndChar

StartChar: eight
Encoding: 56 56 25
Width: 611
Flags: MW
HStem: -13 80 389 80<288.664 326.331 288.664 328.331> 718 81<289.332 324.998>
VStem: 45 101 77 100 437 100 469 100
LayerCount: 2
Fore
SplineSet
197 431 m 1xf2
 117 460.334 76.998 514.334 76.998 593 c 0xe8
 76.998 656.333 99.998 707 145.998 745 c 1
 187.998 781 241.331 799 305.998 799 c 0
 370.665 799 424.332 780.333 466.999 743 c 1
 513.666 704.333 536.999 653.666 536.999 590.999 c 0xf4
 536.999 513.666 497.666 460.333 418.999 431 c 1
 518.999 398.333 568.999 330.666 568.999 228 c 0
 568.999 154.667 543.832 96.167 493.499 52.5 c 0
 443.166 8.83301 380.999 -13 306.999 -13 c 0
 232.999 -13 170.999 8.33301 120.999 51 c 1
 70.332 97 44.999 156.667 44.999 230 c 0
 45.666 338 96.333 405 197 431 c 1xf2
176.998 597 m 0
 176.998 558.333 189.164 527.333 213.497 504 c 0
 237.83 480.667 269.33 469 307.997 469 c 0
 344.664 469 375.331 480.5 399.998 503.5 c 0
 424.665 526.5 436.998 555.667 436.998 591 c 0xec
 436.998 627 424.331 657.167 398.998 681.5 c 0
 373.665 705.833 342.998 718 306.998 718 c 0
 271.665 718 241.165 706.667 215.498 684 c 0
 189.831 661.333 176.998 632.333 176.998 597 c 0
145.997 230 m 0xf2
 145.997 164 172.33 116.666 224.997 87.999 c 0
 250.997 73.999 278.664 66.999 307.997 66.999 c 0
 354.664 66.999 393.164 81.999 423.497 111.999 c 0
 453.83 141.999 468.997 180.332 468.997 226.999 c 0
 468.997 273.666 453.33 312.333 421.997 343 c 0
 390.664 373.667 351.664 389 304.997 389 c 0
 258.997 389 220.997 374 190.997 344 c 0
 160.997 314 145.997 276 145.997 230 c 0xf2
EndSplineSet
Validated: 1
EndChar

StartChar: nine
Encoding: 57 57 26
Width: 610
Flags: HMW
HStem: -13 80 270 85 718 81
VStem: 47 99 61 93 472 97
LayerCount: 2
Fore
SplineSet
73 171.801 m 1xec
 109 188.613 l 0
 157 175.801 l 1xec
 172.333 92.4678 213.664 67.001 286.997 67.001 c 0
 344.997 67.001 389.664 92.001 420.997 142.001 c 0
 454.997 196.001 475 206.468 475 293.801 c 0
 475 298.468 475.667 346.468 475 355.801 c 1
 455 323.134 431 304.467 397 285.801 c 0
 363 267.134 319.664 270.001 280.997 270.001 c 0
 209.664 270.001 152.331 296.001 108.998 348.001 c 0
 67.665 396.668 46.998 457.335 46.998 530.002 c 0xf4
 46.998 607.335 68.998 670.668 112.998 720.001 c 0
 158.998 772.668 220.331 799.001 296.998 799.001 c 0
 350.331 799.001 397.998 784.501 439.998 755.501 c 0
 481.998 726.501 513.998 687.334 535.998 638.001 c 1
 557.998 586.001 568.998 511.668 568.998 415.001 c 0
 568.998 224.334 525.331 97.001 437.998 33.001 c 1
 393.998 2.33398 342.998 -12.999 284.998 -12.999 c 0
 221.665 -12.999 170.332 4.16797 130.999 38.501 c 0
 91.666 72.834 80.333 108.468 73 171.801 c 1xec
460.998 535.001 m 0
 460.998 584.334 447.999 626.334 421.999 661.001 c 0
 393.999 699.001 355.999 718.001 307.999 718.001 c 0
 259.332 718.001 219.665 698.001 188.998 658.001 c 0
 160.998 620.668 146.665 577.001 145.998 527.001 c 0xf4
 145.998 479.001 160.331 439.001 188.998 407.001 c 0
 218.998 373.001 257.998 355.668 305.998 355.001 c 0
 355.331 355.001 393.998 373.001 421.998 409.001 c 0
 447.998 441.668 460.998 483.668 460.998 535.001 c 0
EndSplineSet
Validated: 33
EndChar

StartChar: colon
Encoding: 58 58 27
Width: 336
Flags: MW
HStem: -16 175<156.667 178.666> 327 173<157 179.667>
VStem: 82 171
LayerCount: 2
Fore
SplineSet
83 411 m 0
 83 435.667 91.333 456.667 108 474 c 0
 124.667 491.333 145 500 169 500 c 0
 191.667 500 211.5 491.5 228.5 474.5 c 0
 245.5 457.5 254 437.333 254 414 c 0
 254 389.333 245.5 368.666 228.5 352 c 0
 211.5 335.333 191.333 327 168 327 c 0
 144.667 327 124.667 335.167 108 351.5 c 0
 91.333 367.834 83 387.667 83 411 c 0
253 70 m 0
 253 46.667 244.499 26.5 227.499 9.5 c 0
 210.499 -7.5 190.332 -16 166.999 -16 c 0
 143.666 -16 123.666 -7.5 106.999 9.5 c 0
 90.332 26.5 81.999 46.667 81.999 70 c 0
 81.999 94.667 90.332 115.667 106.999 133 c 0
 123.666 150.333 144.333 159 169 159 c 0
 193 159 213 150.333 229 133 c 0
 245 115.667 253 94.667 253 70 c 0
EndSplineSet
Validated: 1
EndChar

StartChar: semicolon
Encoding: 59 59 28
Width: 280
Flags: MW
HStem: 326 174<152.999 174 150.667 176.666>
VStem: 78 172 149 117
LayerCount: 2
Fore
SplineSet
162 500 m 0xc0
 186 500 206.666 491.333 223.999 474 c 0
 241.332 456.667 249.999 436 249.999 412 c 0
 249.999 388 241.666 367.667 224.999 351 c 0
 208.332 334.333 188.332 326 164.999 326 c 0
 140.999 326 120.499 334.333 103.499 351 c 0
 86.499 367.667 77.999 388 77.999 412 c 0
 77.999 436 86.332 456.667 102.999 474 c 0
 119.666 491.333 139.333 500 162 500 c 0xc0
265.999 36 m 0xa0
 265.999 -8.66699 251.998 -49.165 223.998 -85.498 c 0
 195.998 -121.831 160.665 -147.331 117.998 -161.998 c 1
 72.998 -107.998 l 1
 94.998 -100.665 113.165 -89.498 127.498 -74.498 c 0
 141.831 -59.498 148.998 -44.665 148.998 -29.998 c 0
 148.998 -22.665 142.665 -15.332 129.998 -7.99902 c 0
 112.665 2.00098 101.332 10.001 95.999 16.001 c 0
 83.332 29.334 76.999 47.001 76.999 69.001 c 0
 76.999 94.334 85.499 115.667 102.499 133 c 0
 119.499 150.333 140.332 159 164.999 159 c 0
 194.332 159 218.499 147.5 237.499 124.5 c 0
 256.499 101.5 265.999 72 265.999 36 c 0xa0
EndSplineSet
Validated: 1
EndChar

StartChar: less
Encoding: 60 60 29
Width: 381
Flags: MW
VStem: 9 297<286.332 478.998>
LayerCount: 2
Fore
SplineSet
146 300 m 1
 164 286.667 186.334 265.998 213.001 237.998 c 0
 244.334 205.331 265.834 183.831 277.501 173.498 c 0
 289.168 163.165 295.001 151.998 295.001 139.998 c 0
 295.001 127.998 290.668 117.498 282.001 108.498 c 0
 273.334 99.498 263.001 94.998 251.001 94.998 c 0
 241.668 94.998 232.668 98.3311 224.001 104.998 c 0
 210.668 114.331 183.001 141.331 141.001 185.998 c 0
 108.334 219.998 76.667 242.998 46 254.998 c 0
 21.333 264.332 9 277.665 9 294.998 c 0
 9 310.998 20.333 324.665 43 335.998 c 0
 73 350.665 106.333 376.998 143 414.998 c 0
 193.667 467.665 223.667 497.998 233 505.998 c 0
 242.333 513.998 252 517.998 262 517.998 c 0
 274 517.998 284.333 513.498 293 504.498 c 0
 301.667 495.498 306 484.998 306 472.998 c 0
 306 461.665 301.333 451.332 292 441.999 c 0
 260.667 408.666 212 361.333 146 300 c 1
EndSplineSet
Validated: 1
EndChar

StartChar: equal
Encoding: 61 61 30
Width: 607
Flags: MW
HStem: 139 87<180.999 196.666> 398 90<84.6665 158>
LayerCount: 2
Fore
SplineSet
158 488 m 2
 386 487 l 2
 508.667 487 570 474 570 448 c 0
 570 416.667 510 400.667 390 400 c 2
 386 400 l 1
 158 401 l 2
 150.667 401 139.5 400.5 124.5 399.5 c 0
 109.5 398.5 98.333 398 91 398 c 0
 78.333 398 68 402.333 60 411 c 0
 52 419.667 48 430 48 442 c 0
 48 464.667 61.667 479 89 485 c 0
 96.333 487 119.333 488 158 488 c 2
186 226 m 0
 207.333 226 239.499 225.5 282.499 224.5 c 0
 325.499 223.5 357.666 223 378.999 223 c 0
 503.666 223 565.999 208 565.999 178 c 0
 565.999 150 503.666 136 378.999 136 c 0
 357.666 136 325.499 136.5 282.499 137.5 c 0
 239.499 138.5 207.332 139 185.999 139 c 0
 175.999 139 161.332 138.333 141.999 137 c 0
 122.666 135.667 108.333 135 99 135 c 0
 69 135 54 149.333 54 178 c 0
 54 204.667 68 219.334 96 222 c 0
 132 224.667 162 226 186 226 c 0
EndSplineSet
Validated: 1
EndChar

StartChar: greater
Encoding: 62 62 31
Width: 381
Flags: MW
HStem: 529 20G
VStem: 28 331
LayerCount: 2
Fore
SplineSet
359 324 m 0
 359 312 353.001 300.333 341.001 289 c 0
 263.668 217 182.668 154 98.001 100 c 0
 88.668 94 80.001 91 72.001 91 c 0
 60.001 91 49.668 95.667 41.001 105 c 0
 32.334 114.333 28.001 124.666 28.001 135.999 c 0
 28.001 149.332 34.334 160.665 47.001 169.998 c 2
 237.001 314.998 l 1
 208.334 334.332 172.334 363.665 129.001 402.998 c 1
 77.001 452.331 51.001 486.331 51.001 504.998 c 0
 51.001 516.998 55.668 527.331 65.001 535.998 c 0
 74.334 544.665 84.667 548.998 96 548.998 c 0
 108 548.998 119 543.665 129 532.998 c 0
 203 449.665 270.333 392.332 331 360.999 c 0
 349.667 351.666 359 339.333 359 324 c 0
EndSplineSet
Validated: 1
EndChar

StartChar: question
Encoding: 63 63 32
Width: 492
Flags: HMW
HStem: -15 168<217.001 239.334> 743 37<234.668 255.335>
VStem: 146 166 154 111 371 76
LayerCount: 2
Fore
SplineSet
447 604 m 0xd8
 447 538 411.001 480.667 339.001 432 c 0
 289.668 398.667 254.8 354.167 254.8 293.5 c 0
 254.8 280.167 266.001 263.334 268.001 248.001 c 1
 208.8 233.5 l 0
 164.001 248.001 l 1
 158.001 272.668 154.668 295.668 154.001 317.001 c 0
 154.001 380.334 190.001 435.001 248.001 481.001 c 0
 266.668 495.001 285.335 509.334 304.002 524.001 c 1
 340.669 542.668 353.002 570.668 363.002 608.001 c 0
 365.002 616.001 366.962 638.121 363.8 645.5 c 0
 351.8 673.5 352.133 670.167 324.8 693.5 c 0
 296.8 716.833 271.467 723.5 238.8 723.5 c 0
 230.133 723.5 223 720.5 214.8 717.5 c 0
 174.032 702.585 141 690.5 97 625 c 1
 52.7998 665.5 l 0
 43 703 l 1
 99 754.333 167.467 803.5 250.8 803.5 c 0
 305.467 803.5 361.467 784.833 398.8 753.5 c 0
 436.8 720.833 447 657.333 447 604 c 0xd8
312.001 71 m 0xe8
 312.001 47 303.669 26.667 287.002 10 c 0
 270.335 -6.66699 250.668 -15 228.001 -15 c 0
 205.334 -15 186.001 -6.5 170.001 10.5 c 0
 154.001 27.5 146.001 47.667 146.001 71 c 0
 146.001 93.667 153.834 113 169.501 129 c 0
 185.168 145 205.001 153 229.001 153 c 0
 251.001 153 270.334 145 287.001 129 c 0
 303.668 113 312.001 93.667 312.001 71 c 0xe8
EndSplineSet
Validated: 33
EndChar

StartChar: at
Encoding: 64 64 33
Width: 669
Flags: MW
VStem: 0 89 364 84
LayerCount: 2
Fore
SplineSet
386 550 m 2
 388.999 550.998 l 2
 392.999 552.998 396.486 553.242 400.171 554.165 c 2
 403.487 554.996 l 2
 407.499 555.998 407.354 556.15 407.354 556.15 c 2
 423.64 560.775 439.92 565.393 456.2 570 c 1
 526.815 583.088 l 1
 530 902 l 1
 558.338 939.333 585.005 942.666 610 911.999 c 1
 612 541.999 l 1
 553.104 530.542 l 1
 546.451 525.799 532.393 520.19 510.925 513.72 c 0
 489.457 507.248 468.316 500.107 447.503 502.298 c 1
 437.826 164.766 296.992 0.999023 25 0.999023 c 1
 -4.33301 24.999 -4.33301 52.666 25 83.999 c 1
 253.667 79.999 364 230.32 364 534.999 c 0
 364 535.652 363.849 536.071 363.875 536.625 c 0
 364.044 540.218 369.956 542.002 373.831 544.502 c 0
 378.706 547.002 381 548 386 550 c 2
EndSplineSet
Validated: 33
EndChar

StartChar: A
Encoding: 65 65 34
Width: 458
Flags: MW
HStem: 1 83<25 35 35 144.667> 537 20G<399 413> 537 20G<399 413>
VStem: 364 84<535 535>
LayerCount: 2
Fore
SplineSet
448 535 m 1xd0
 445.333 179 304.333 1 25 1 c 1
 10.333 13 3 26 3 40 c 0
 3 54 10.333 68.667 25 84 c 1
 35 84 l 2
 254.333 84 364 230.333 364 523 c 2
 364 535 l 1
 378 549.667 392 557 406 557 c 0
 420 557 434 549.667 448 535 c 1xd0
EndSplineSet
Validated: 1
EndChar

StartChar: B
Encoding: 66 66 35
Width: 800
Flags: W
HStem: -4 77<36.3433 148.357 426.5 575.25> 465 88<372.692 556.11>
VStem: 647 74<146.007 361.799>
LayerCount: 2
Fore
SplineSet
36 68 m 1
 43.3333 67.3333 50 67 56 67 c 0
 116.667 67 151.333 83.3334 160 116 c 0
 169.333 152 181.5 198.5 196.5 255.5 c 0
 211.5 312.5 229.5 364.833 250.5 412.5 c 0
 271.5 460.167 311.333 499.667 370 531 c 0
 398.667 546.333 429 553.667 461 553 c 1
 494.334 553 529.334 544.667 566 528 c 0
 638 496 684.333 438 705 354 c 0
 716.333 308.667 721.667 267.333 721 230 c 0
 721 198.667 717.333 170.667 710 146 c 0
 693.333 90.6667 666.333 51.3333 629 28 c 0
 595.667 7.33333 542 -3.33333 468 -4 c 0
 460.667 -4 453 -3.66667 445 -3 c 1
 428.333 7.66667 420.333 19.3333 421 32 c 0
 421 44.6667 428.667 58.3334 444 73 c 1
 452 72.3333 460 72.3333 468 73 c 1
 556.667 73 611 101.333 631 158 c 0
 641.667 188.667 647 219.667 647 251 c 0
 647 283 641.333 316 630 350 c 0
 608 416.667 562.333 454.333 493 463 c 0
 481 464.333 469.333 465 458 465 c 0
 406.667 465 368.667 449 344 417 c 0
 314 377.667 294.5 337.333 285.5 296 c 0
 276.5 254.667 267.5 216.833 258.5 182.5 c 0
 249.5 148.167 238 111.333 224 72 c 0
 210 32.6667 189 10.1667 161 4.5 c 0
 133 -1.16667 91 -4 35 -4 c 1
 19 6.66667 10.6667 18 10 30 c 1
 10.6667 42 19.3333 54.6667 36 68 c 1
EndSplineSet
Validated: 33
EndChar

StartChar: C
Encoding: 67 67 36
Width: 1269
Flags: MW
HStem: 1 21G 473 84 480.999 74 560.001 60.999
VStem: 3 83 290 73
LayerCount: 2
Fore
SplineSet
1009 373 m 0x9c
 991 398.333 973.2 404 956.533 404 c 0
 941.2 404 935.2 393.333 920.533 372 c 0
 893.2 332.667 881 294.001 881 242.001 c 0
 881 235.334 880.333 229.001 881 223.001 c 0
 885 162.334 895.667 118.667 921 92 c 0
 933.667 79.333 956.667 73 970 73 c 0
 983.333 73 997 80 1011 94 c 0
 1038.33 122 1047.67 163.333 1055 218 c 0
 1056.33 228 1057 238 1057 248 c 0
 1057.67 292 1037 333.667 1009 373 c 0x9c
1177 483 m 1
 1111.67 479 1041.2 477.999 1018.53 457.999 c 1
 1066.53 403.999 1119.33 331.666 1126 262.999 c 0
 1127.34 250.332 1127.68 237.999 1127 225.999 c 0
 1127 172.666 1113.67 123.666 1091 78.999 c 0
 1065 28.332 1023.67 -0.000976562 967 -0.000976562 c 0
 963 -0.000976562 965.167 -0.667969 960.5 -0.000976562 c 0
 897.167 3.99902 854.334 38.332 831.001 94.999 c 0
 815.668 132.332 812.001 171.332 812.001 211.999 c 0
 812.001 233.332 814.001 254.665 818.001 275.998 c 0
 830.001 339.331 858 402.999 896 448.999 c 1
 879.923 475.961 784.999 477.5 762 481.999 c 1
 751.229 482.249 l 2
 751.152 482.166 751.076 482.083 750.999 481.999 c 2
 743.999 481.999 l 1
 359.433 490.707 411.549 35.584 416.999 34.999 c 1
 400.999 22.999 l 1
 386.999 8.33203 373.166 0.999023 359.499 0.999023 c 0
 350.527 0.999023 339.761 -1.87402 329.461 0.301758 c 0
 329.308 0.200195 329.154 0.0996094 328.999 -0.000976562 c 0
 185.666 47.332 82.667 156.666 48 307.999 c 0
 33.333 372.666 26 426.666 26 469.999 c 0
 26 528.666 39.333 568.666 66 589.999 c 0
 92 610.666 124.667 620.999 164 620.999 c 0
 194 620.999 227.667 614.666 265 601.999 c 1
 197 854.999 l 1
 204.333 874.332 215.666 883.999 230.999 883.999 c 0
 242.999 883.999 256.999 878.999 272.999 868.999 c 1
 360.999 536.999 l 1
 354.331 518.332 344.667 509 332.002 509 c 0
 320.669 509 306.669 516.333 290.002 531 c 1
 243.335 549.671 205.335 559.338 176.002 560 c 0
 143.335 560 121.668 548.333 111.001 525 c 0
 101.668 505 97.001 480 97.001 450 c 0
 97.001 413.333 104.001 368.666 118.001 316 c 0
 143.334 221.333 209.667 149.333 317 100 c 0
 317.32 99.8086 317.638 99.6172 317.954 99.4248 c 1
 342.689 396.798 482.371 556.392 737 557 c 0
 737.613 556.499 738.229 555.995 738.847 555.49 c 1
 739.222 555.997 739.605 556.5 740 557 c 0xdc
 819.333 549.667 896.333 525 955 495 c 1
 1024.33 523.667 1097 546.666 1175 555.999 c 1
 1187 543.332 1193 530.832 1193 518.499 c 0
 1193 506.166 1189 494.333 1177 483 c 1
EndSplineSet
Validated: 33
EndChar

StartChar: D
Encoding: 68 68 37
Width: 508
Flags: MW
HStem: -391 91 536 20G 536 20G
VStem: 4 100
LayerCount: 2
Fore
SplineSet
359 553 m 1xd0
 367 555 374.336 555.998 381.003 555.998 c 0
 406.338 555.998 419.671 541.331 421.003 511.998 c 1
 333.003 421.331 263.17 329.664 211.503 236.997 c 0
 159.836 144.33 125.669 44.3301 109.002 -63.0029 c 0
 105.669 -85.6699 104.002 -107.003 104.002 -127.003 c 0
 104.002 -199.003 128.335 -247.67 177.002 -273.003 c 0
 211.669 -291.003 248.669 -300.003 288.002 -300.003 c 0
 319.336 -300.003 352.669 -294.336 388.002 -283.003 c 1
 411.335 -288.336 423.002 -299.336 423.002 -316.003 c 0
 423.002 -331.336 412.669 -351.003 392.002 -375.003 c 1
 343.335 -385.67 301.335 -391.003 266.002 -391.003 c 0
 251.335 -391.003 237.668 -390.003 225.001 -388.003 c 0
 183.001 -381.336 143.501 -369.669 106.501 -353.002 c 0
 69.501 -336.335 40.334 -301.002 19.001 -247.002 c 0
 9.00098 -222.335 4.00098 -191.668 4.00098 -155.001 c 0
 4.00098 -111.001 11.334 -58.001 26.001 3.99902 c 0
 52.001 116.666 93.168 219.333 149.501 312 c 0
 205.834 404.667 275.667 485 359 553 c 1xd0
EndSplineSet
Validated: 1
EndChar

StartChar: E
Encoding: 69 69 38
Width: 555
Flags: MW
HStem: 4 21G
LayerCount: 2
Fore
SplineSet
3 477 m 1
 3 517.668 20.667 536.332 56 532.998 c 1
 70 507.665 84.667 485.665 100 466.998 c 1
 114 485.665 129 499.998 145 509.998 c 0
 177 529.998 212 542.998 250 548.998 c 0
 287.333 554.998 324.333 554.331 361 546.998 c 0
 399 539.665 423.5 501.832 434.5 433.499 c 0
 445.5 365.166 400 320.999 298 300.999 c 0
 236 288.999 175.667 305.332 117 349.999 c 1
 105 307.999 115.333 268.666 148 231.999 c 0
 189.333 183.999 286.333 131.999 439 75.999 c 1
 477.667 53.332 479 29.332 443 3.99902 c 1
 247.667 52.666 127 111.666 81 180.999 c 0
 35 250.332 25.667 317.332 53 381.999 c 0
 55.667 388.666 58.667 395.333 62 402 c 1
 42 424 22.333 449 3 477 c 1
151 413.997 m 1
 183 388.664 216.666 374.664 251.999 371.997 c 0
 325.999 365.997 362.832 385.164 362.499 429.497 c 0
 362.166 473.83 331.333 491.33 270 481.997 c 0
 220 473.997 180.333 451.33 151 413.997 c 1
EndSplineSet
Validated: 33
EndChar

StartChar: F
Encoding: 70 70 39
Width: 523
Flags: MW
HStem: 4 72 301 68<253 254.333> 495 62 534 20G
VStem: 128 68<427.001 454.333> 367 74<342 347 313 347>
LayerCount: 2
Fore
SplineSet
501 528 m 1xdc
 475.667 482 451 443 427 411 c 1
 429 405 431.667 396.333 435 385 c 0
 439 370.333 441 355 441 339 c 0
 441 287 416.667 232.333 368 175 c 0
 306 102.333 193.333 45.333 30 4 c 1
 13.333 16 4.66602 28 3.99902 40 c 0
 3.99902 52.667 14.332 64.667 34.999 76 c 1
 187.666 132 284.333 183.667 325 231 c 0
 353 263.667 367 300.667 367 342 c 2
 367 347 l 1
 343.667 327.667 321 315 299 309 c 0
 280.333 303.667 262.666 301 246 301 c 0
 208 301 178.667 315.333 158 344 c 0
 138.667 370.667 128.667 398.334 128 427.001 c 0
 128 442.334 130.667 457.334 136 472.001 c 0
 150.667 515.334 184.667 542.334 238 553.001 c 0
 251.333 555.668 264 557.001 276 557.001 c 0xec
 312 557.001 341 546.334 363 525.001 c 0
 373.667 515.001 383 503.668 391 491.001 c 1
 403 507.668 415.333 525.668 428 545.001 c 1
 439.333 551.001 449.333 554.001 458 554.001 c 0
 474 553.334 488.333 544.667 501 528 c 1xdc
347 434 m 1
 329 474.667 303 494.999 269 494.999 c 0
 265 494.999 261 494.666 257 493.999 c 0
 216.333 487.999 196 469.666 196 438.999 c 0
 196 433.666 196.333 428.333 197 423 c 0
 204.333 387 223 369 253 369 c 2
 263 369 l 1
 284.333 371 312.333 392.667 347 434 c 1
EndSplineSet
Validated: 1
EndChar

StartChar: G
Encoding: 71 71 40
Width: 609
Flags: HMW
HStem: 27 69
VStem: 124 79<549.667 619> 207 164 355 90<568 589>
LayerCount: 2
Fore
SplineSet
536 84 m 1xe0
 544 68.667 547.667 45 547 35 c 0
 547 15 531.667 4.66699 501 4 c 0
 492.332 4 482.665 10 471.999 12 c 1
 405.999 41.333 343.999 87 285.999 159 c 1
 226.666 89 160.999 36.333 88.999 3 c 1
 48.332 3 27.999 17.333 27.999 46 c 0
 27.999 56.667 30.666 73.667 35.999 87 c 1
 150.666 136.333 207.666 180.333 206.999 219 c 0xe0
 206.999 225 205.666 249.667 202.999 255 c 0
 149.666 362.333 123.333 480.333 124 609 c 0
 124 629 124.333 649 125 669 c 0
 127.667 743 143.667 802 173 846 c 1
 199 898.667 234.667 931 280 943 c 1
 335.334 926.333 376.667 895.666 404 850.999 c 1
 424 793.666 437.333 737.333 444 682 c 1
 444.667 667.333 445 653 445 639 c 0xd0
 445 497 407.667 364 361 252 c 0
 358.333 246 357 228 357 222 c 0
 357 182 426 140 536 84 c 1xe0
280 864 m 1
 249.333 806 227.333 744 214 678 c 0
 206.667 639.333 203 601 203 563 c 0
 203 536.333 205 509.666 209 482.999 c 0
 217.667 418.332 241.667 354.999 281 292.999 c 1
 319 355.666 342 419.333 350 484 c 0
 353.333 512.667 355 541.667 355 571 c 0xd0
 355 607 352.333 643 347 679 c 0
 337 745 314.667 806.667 280 864 c 1
EndSplineSet
Validated: 33
EndChar

StartChar: H
Encoding: 72 72 41
Width: 936
Flags: MW
HStem: 0 72.2998 473.509 84
LayerCount: 2
Fore
SplineSet
64.4004 557.509 m 1
 111.345 552.701 153.019 548.131 172.4 541.511 c 1
 201.766 534.271 212.64 500.992 223 482 c 1
 249.318 425.343 251.5 397.5 264 354 c 1
 274 300 276 299 292 231 c 1
 305.404 190.964 345.365 121.649 377 106 c 1
 406.891 92.9822 417.54 85.4486 462 85 c 5
 502.5 89 481.906 87.5938 492 88.5 c 5
 536.331 91.1074 546.144 98.2282 583 123 c 0
 613.5 143.5 655.138 162.192 659.399 197.511 c 0
 662.242 221.062 637.779 224.351 621.399 241.511 c 1
 574.065 244.887 548.399 231.511 482.399 231.511 c 1
 425.761 295.097 460 301.333 464.699 304.301 c 1
 550.699 350.301 658.699 394.301 698.699 474.301 c 0
 712.739 500.821 709.223 526.448 734.699 542.301 c 0
 753.018 553.698 786.354 551.832 787.699 530.301 c 0
 789.699 498.301 779.159 474.181 773.699 438.301 c 1
 744.95 376.908 675.021 345.023 599.399 297.511 c 1
 674.416 287.988 727.19 241.964 731.399 183.51 c 1
 717.399 137.51 691.005 122.564 661.5 96 c 1
 598.301 37.3887 555.896 22.332 493 0 c 1
 476 0 l 1
 430 0 l 1
 307.5 33.5 255 98 217 226 c 1
 203.051 260.073 193.727 306.53 182 353 c 1
 162.5 414 169.5 446.5 126 474 c 1
 94.9258 482.088 94.0225 480.458 52 482 c 1
 -13.8662 486.278 13.6172 558.565 64.4004 557.509 c 1
EndSplineSet
Validated: 33
EndChar

StartChar: I
Encoding: 73 73 42
Width: 460
Flags: MW
HStem: 0 21G<42 56 389.333 403> 509 20G
LayerCount: 2
Fore
SplineSet
429 27 m 1
 421 9 410 0 396 0 c 0
 382.667 0 367 8.33301 349 25 c 1
 290 343.1 l 1
 96 27 l 1
 78.667 9 63 0 49 0 c 0
 35 0 22.667 8.33301 12 25 c 1
 292 509.1 l 1
 286.109 503.791 307.545 532.723 312 531.1 c 1
 318 531.1 324 527.1 330 509.1 c 1
 429 27 l 1
EndSplineSet
Validated: 1
EndChar

StartChar: J
Encoding: 74 74 43
Width: 661
Flags: MW
HStem: 4 80.8125 222.798 68 532 20G
VStem: 1 75.998 488.6 76.4 574.6 78
LayerCount: 2
Fore
SplineSet
511 281 m 1
 549 263 564 238.001 565 209.001 c 0
 565 182.001 525 129.001 492 92.001 c 1
 443.661 16.7812 297.957 7.08594 204 4.00098 c 1
 203.919 4.05664 l 1
 203.886 4.03809 l 1
 122.007 6.7793 165.297 3.50488 107.999 10.501 c 0
 50.666 17.501 16.333 49.668 5 107.001 c 0
 2.33301 119.668 1 132.001 1 144.001 c 0
 1 188.001 17.333 232.001 50 276.001 c 0
 92 331.334 161.667 415.001 259 527.001 c 1
 285.667 543.668 306.165 552.001 320.498 552.001 c 0
 334.833 552.001 343.666 543.668 346.998 527.001 c 1
 166.998 315.668 76.998 192.001 76.998 156.001 c 2
 76.998 154.001 l 1
 79.665 120.001 95.665 99.668 124.998 93.001 c 0
 146.251 87.8486 136.724 92.1045 227.095 84.8125 c 1
 309.998 85 l 2
 365.997 85 433.267 125.465 488.6 204.798 c 1
 488.6 228.131 457.933 232.798 436.6 232.798 c 0
 432.6 232.798 397.267 227.465 392.6 226.798 c 0
 363.267 222.131 361.267 224.131 328.6 222.798 c 1
 311.933 236.798 318.6 245.465 318.6 258.798 c 0
 318.6 272.131 321.933 278.131 338.6 290.798 c 1
 377.267 300.133 396.933 298.466 422.6 310.798 c 0
 448.267 323.132 464.6 337.465 492.6 358.798 c 0
 520.6 380.131 558.6 456.131 574.6 520.798 c 1
 591.267 546.131 604.6 555.465 618.6 554.798 c 0
 630.6 554.798 642.6 544.131 652.6 524.798 c 1
 646.6 442.798 l 1
 617.267 375.465 585 321 511 281 c 1
EndSplineSet
Validated: 33
EndChar

StartChar: K
Encoding: 75 75 44
Width: 707
Flags: MW
HStem: 27 69
VStem: 124 79 207 164 355 90
LayerCount: 2
Fore
SplineSet
536 96 m 1xc0
 544 80.667 603.767 67.6982 603.1 57.6982 c 0
 603.1 37.6982 617.767 0.665039 587.1 -0.00195312 c 0
 578.432 -0.00195312 531.766 -2.00195 521.1 -0.00195312 c 1
 455.1 29.3311 419.1 53.998 361.1 125.998 c 1
 301.767 55.998 199.1 33.3311 127.1 -0.00195312 c 1
 100.387 -0.00195312 67.4316 -4.40918 47.9609 0.691406 c 0
 45.8027 0.229492 43.6484 -0.000976562 41.499 -0.000976562 c 0
 27.832 -0.000976562 13.999 9.33203 -0.000976562 27.999 c 1
 -0.000976562 527.999 l 1
 13.332 545.332 26.999 553.832 40.999 553.499 c 0
 54.999 553.166 68.999 544.666 82.999 527.999 c 1
 82.999 74.248 l 1
 211.323 112.214 297.682 168.778 289.1 210 c 1
 289.1 216 283.767 246.367 281.1 251.7 c 0
 227.767 359.033 200.433 411.033 201.1 539.7 c 0
 201.1 559.7 208.433 615.7 209.1 635.7 c 0
 211.767 709.7 227.767 771.7 257.1 815.7 c 1
 283.1 868.367 305.767 893.7 351.1 905.7 c 1
 406.434 889.033 435.767 850.367 463.1 805.7 c 1
 501.1 753.7 518.633 711.785 525.3 656.452 c 1
 525.967 641.785 527.3 582.452 527.3 568.452 c 0
 527.3 426.452 499.767 353.7 453.1 241.7 c 0
 450.433 235.7 443.1 211.7 443.1 205.7 c 0
 443.1 165.7 426 152 536 96 c 1xc0
361.1 807.698 m 1
 330.433 749.698 300.433 715.698 287.1 649.698 c 0
 279.801 615.572 275.1 529.698 275.1 529.698 c 1
 275.1 503.031 291.1 440.365 295.1 413.698 c 0
 303.767 349.031 327.767 325.698 367.1 263.698 c 1
 405.1 326.365 419.1 353.031 427.1 417.698 c 0
 430.433 446.365 443.1 516.365 443.1 545.698 c 0
 443.1 581.698 442.433 607.698 437.1 643.698 c 0
 427.1 709.698 395.767 750.365 361.1 807.698 c 1
EndSplineSet
Validated: 33
EndChar

StartChar: L
Encoding: 76 76 45
Width: 540
Flags: MW
HStem: -183 114 2 77 223 80
VStem: 172 90 318 75<198.001 207.002 193.668 209.667> 423 79
LayerCount: 2
Fore
SplineSet
214.998 -71.3203 m 0
 242.795 -70.8896 266.208 -93.1123 266.208 -120.922 c 0
 266.208 -151.139 245.201 -178.581 214.999 -179.05 c 0
 185.887 -179.502 166.268 -151.598 166.268 -122.472 c 0
 166.268 -94.9141 187.454 -71.748 214.998 -71.3203 c 0
335.001 278 m 1
 373.001 260 392.333 236.335 393 207.002 c 0
 393 180.335 376.667 148.668 344 112.001 c 0
 279.333 38.668 219 2.00098 163 2.00098 c 2
 156 2.00098 l 1
 55 1.00098 l 1
 37 12.334 28 24.501 28 37.501 c 0
 28 50.501 37 64.334 55 79.001 c 1
 151 79.001 l 2
 207 79.001 262.667 118.668 318 198.001 c 1
 318 221.334 307.333 233.001 286 233.001 c 0
 282 233.001 277.667 232.668 273 232.001 c 0
 243.667 227.334 212.667 224.334 180 223.001 c 1
 163.333 237.001 155 250.668 155 264.001 c 0
 155 277.334 163.333 290.334 180 303.001 c 1
 218.667 312.336 250.834 323.169 276.501 335.501 c 0
 302.168 347.835 329.001 364.668 357.001 386.001 c 0
 385.001 407.334 407.001 450.334 423.001 515.001 c 1
 439.668 540.334 455.001 552.667 469.001 552 c 0
 481.001 552 492.001 542.333 502.001 523 c 1
 490.001 439 l 1
 460.668 371.667 409.001 318 335.001 278 c 1
EndSplineSet
Validated: 33
EndChar

StartChar: M
Encoding: 77 77 46
Width: 914
Flags: MW
HStem: 1 21G 473 84 480.999 74 560.001 60.999<159.668 176.002>
VStem: 3 83 290 73
LayerCount: 2
Fore
SplineSet
576.001 -16.0039 m 1x9c
 565.334 -56.0039 558.809 -92.0957 556.002 -128.002 c 0
 551 -192 560.544 -229.164 575.002 -287.002 c 0
 590 -347 635.668 -363.668 659.001 -363.001 c 0
 669.001 -363.001 688.517 -357.693 696.001 -349.001 c 0
 727 -313 734.001 -296.001 734.001 -256.001 c 0
 734.001 -244.668 733.001 -232.335 731.001 -219.002 c 0
 724.334 -161.669 716.334 -115.336 689.001 -80.0029 c 0
 669.001 -54.6699 644.668 -33.3369 576.001 -16.0039 c 1x9c
514 69 m 1
 525.333 106.333 533 144.66 551 183.993 c 0
 599.798 289.352 659.433 385.716 729.905 473.087 c 1
 363.692 468.395 404.632 36.5752 409.999 35.999 c 1
 400.999 22.999 l 1
 387.648 7.6416 374.453 -6.01172 361.406 -0.0185547 c 1
 352.597 -3.70996 333.989 4.86816 315 10.001 c 1
 171.667 57.334 82.667 156.667 48 308 c 0
 33.333 372.667 26 426.667 26 470 c 0
 26 528.667 39.333 568.667 66 590 c 0
 92 610.667 124.667 621 164 621 c 0
 194 621 227.667 614.667 265 602 c 1
 197 855 l 1
 204.333 874.333 215.666 884 230.999 884 c 0
 242.999 884 256.999 879 272.999 869 c 1
 360.999 537 l 1
 354.331 518.333 344.667 509.001 332.002 509.001 c 0
 320.669 509.001 306.669 516.334 290.002 531.001 c 1
 243.335 549.672 205.335 559.339 176.002 560.001 c 0
 143.335 560.001 121.668 548.329 111.001 524.996 c 0
 101.668 504.996 97.001 480.001 97.001 450.001 c 0
 97.001 413.334 104.001 368.667 118.001 316.001 c 0
 143.254 221.632 209.249 149.788 315.986 100.468 c 1
 337.896 404.206 478.762 556.383 737 557 c 1xdc
 740.285 554.312 757.537 556.749 774 554 c 0
 791.764 551.034 808.936 542.884 816 540 c 0
 816.976 539.601 817.846 539.176 818.619 538.728 c 0
 829.984 534.051 839.444 522.14 847.001 502.996 c 1
 761.668 388.329 711.668 306.662 681.001 257.996 c 0
 653.668 215.329 620.001 148.996 590.001 54.9961 c 1
 678.668 35.6631 727.668 -4.66992 763.001 -62.0029 c 0
 797.668 -117.336 806.001 -174.669 806.001 -234.002 c 0
 806.001 -244.669 806.334 -255.336 805.001 -266.003 c 0
 797.668 -336.003 773.333 -379 744 -413 c 0
 731.333 -427.667 706.002 -443.67 684.002 -443.003 c 0
 655.335 -443.003 623.52 -446.958 585 -413 c 0
 509 -346 491.667 -282.669 483 -172.002 c 0
 481.667 -156.669 483.159 -135.978 484 -120 c 0
 486 -82 495.333 -43.668 504 -1.00098 c 1
 499.333 -0.333984 489.333 1.33301 484 2 c 1
 481.333 10.667 475 18.667 475 26 c 0
 475 44.667 483.333 59.667 500 71 c 1
 514 69 l 1
EndSplineSet
Validated: 33
EndChar

StartChar: N
Encoding: 78 78 47
Width: 440
Flags: MW
HStem: -183 114 3 70<188.334 233.334> 481 74
VStem: 39 72 150 90 290 73
LayerCount: 2
Fore
SplineSet
194.998 -72.3203 m 0
 222.795 -71.8896 246.208 -94.1123 246.208 -121.922 c 0
 246.208 -152.139 225.201 -179.581 194.999 -180.05 c 0
 165.887 -180.502 146.268 -152.598 146.268 -123.472 c 0
 146.268 -95.9141 167.454 -72.748 194.998 -72.3203 c 0
412.001 483 m 1
 346.668 479 302.668 467 280.001 447 c 1
 328.001 393 355.334 331.667 362.001 263 c 0
 363.346 250.333 363.679 238 363.001 226 c 0
 363.001 172.667 351.668 123.667 329.001 79 c 0
 303.001 28.333 261.668 3 205.001 3 c 0
 201.001 3 196.668 3.33301 192.001 4 c 0
 128.668 8 85.335 38.333 62.002 95 c 0
 46.6689 132.333 39.002 171.333 39.002 212 c 0
 39.002 233.333 41.002 254.666 45.002 275.999 c 0
 57.002 339.332 82.002 393.999 120.002 439.999 c 1
 107.335 467.332 66.002 480.999 -3.99805 480.999 c 2
 -15.998 480.999 l 1
 -26.665 492.999 -31.832 505.166 -31.499 517.499 c 0
 -31.166 529.832 -25.999 542.332 -15.999 554.999 c 1
 63.334 547.666 132.334 528.999 191.001 498.999 c 1
 260.334 527.666 334.001 546.666 412.001 555.999 c 1
 424.001 543.332 430.001 530.832 430.001 518.499 c 0
 430.001 506.166 424.001 494.333 412.001 483 c 1
249.001 373 m 0
 231.001 398.333 213.668 411.001 197.001 411.001 c 0
 181.668 411.001 166.668 400.334 152.001 379.001 c 0
 124.668 339.668 111.001 294.001 111.001 242.001 c 0
 111.001 235.334 111.334 229.001 112.001 223.001 c 0
 116.001 162.334 130.668 118.667 156.001 92 c 0
 168.668 79.333 181.668 73 195.001 73 c 0
 208.334 73 222.001 80 236.001 94 c 0
 263.335 122 280.668 163.333 288.001 218 c 0
 289.334 228 290.001 238 290.001 248 c 0
 290.668 292 277.001 333.667 249.001 373 c 0
EndSplineSet
Validated: 33
EndChar

StartChar: O
Encoding: 79 79 48
Width: 533
Flags: MW
HStem: 1 21G<399 413> 473 84<25 25>
VStem: 364 84<23 23>
LayerCount: 2
Fore
SplineSet
448 23 m 1
 434 8.33301 420 1 406 1 c 0
 392 1 378 8.33301 364 23 c 1
 364 35 l 2
 364 327 254.333 473 35 473 c 2
 25 473 l 1
 10.333 488.333 3 503 3 517 c 0
 3 531 10.333 544.333 25 557 c 1
 304.333 556.333 445.333 378.333 448 23 c 1
EndSplineSet
Validated: 1
PairPos2: "'kern' Horizontal Kerning in Latin lookup 0 subtable"  dx=0 dy=0 dh=0 dv=0 [ddx={} ddy={} ddh={} ddv={}] dx=0 dy=0 dh=0 dv=0 [ddx={} ddy={} ddh={} ddv={}]
EndChar

StartChar: P
Encoding: 80 80 49
Width: 800
Flags: MW
HStem: -2 88 478 77
VStem: 647 74<302.332 315.997>
LayerCount: 2
Fore
SplineSet
36 483 m 1
 19.333 496.333 10.667 508.995 10 520.995 c 0
 10 532.995 18.333 544.662 35 555.995 c 1
 91 555.995 133 552.995 161 546.995 c 0
 189 540.995 210 518.328 224 478.995 c 0
 238 439.662 249.5 402.829 258.5 368.496 c 0
 267.5 334.163 276.667 296.33 286 254.997 c 0
 294.667 214.33 314 174.33 344 134.997 c 0
 368.667 102.33 406.667 85.9971 458 85.9971 c 0
 469.333 85.9971 481 86.6641 493 87.9971 c 0
 562.333 97.3301 608 134.997 630 200.997 c 0
 641.333 234.33 647 267.33 647 299.997 c 0
 647 331.997 641.667 362.997 631 392.997 c 0
 611 449.664 556.667 477.997 468 477.997 c 2
 444 477.997 l 1
 428 493.33 420.333 506.997 421 518.997 c 0
 421 532.33 429 544.33 445 554.997 c 1
 465 554.997 l 2
 540.333 554.997 595 544.33 629 522.997 c 0
 665.667 500.33 692.667 461.33 710 405.997 c 0
 718 380.664 721.667 352.331 721 320.998 c 0
 721 283.665 715.667 242.332 705 196.999 c 0
 684.333 113.666 638 55.666 566 22.999 c 0
 529.333 6.33203 494.333 -2.00098 461 -2.00098 c 0
 429 -2.00098 398.667 5.66602 370 20.999 c 0
 311.333 51.666 271.5 90.833 250.5 138.5 c 0
 229.5 186.167 211.5 238.5 196.5 295.5 c 0
 181.5 352.5 169.333 399 160 435 c 0
 151.333 467.667 116.333 484 55 484 c 0
 49 483.333 42.667 483 36 483 c 1
EndSplineSet
Validated: 33
EndChar

StartChar: Q
Encoding: 81 81 50
Width: 575
Flags: MW
HStem: 264 71 458 79 532 20G 532 20G
VStem: 0 71 411 75
LayerCount: 2
Fore
SplineSet
154 527 m 1xcc
 166 543.667 177.665 551.998 188.998 551.998 c 0xac
 199.665 551.998 210.332 544.331 220.998 528.998 c 1
 224.331 514.331 227.998 500.331 231.998 486.998 c 1
 245.998 496.998 257.998 504.998 267.998 510.998 c 0
 298.665 528.331 327.998 536.998 355.998 536.998 c 0
 362.665 536.998 369.332 536.665 375.999 535.998 c 0
 409.999 530.665 439.999 508.998 465.999 470.998 c 0
 479.332 451.665 485.999 430.332 485.999 406.999 c 0
 485.999 384.332 479.666 359.999 466.999 333.999 c 0
 443.666 286.666 402.999 263.333 344.999 264 c 0
 337.666 264 330.333 264.333 323 265 c 0
 283.667 268.333 248.667 297.333 218 352 c 1
 214.665 347.333 211.332 342.333 208 337 c 0
 144.667 248.333 99 143.333 71 22 c 1
 55.667 8.66699 42.667 2 32 2 c 0
 18.667 2 8 11.667 0 31 c 1
 51.333 186.333 88 283.666 110 322.999 c 0
 128 353.666 150.333 389.333 177 430 c 2
 181 436 l 1
 171.667 463.334 162.667 493.667 154 527 c 1xcc
262.998 406.998 m 1
 282.331 366.998 303.331 344.331 325.998 338.998 c 0
 335.333 336.331 343.666 334.998 350.998 334.998 c 0
 377.665 334.998 395.998 348.998 405.998 376.998 c 0
 409.331 385.665 410.998 393.998 410.998 401.998 c 0
 410.998 425.331 395.665 442.998 364.998 454.998 c 0
 358.998 456.998 352.998 457.998 346.998 457.998 c 0xcc
 322.998 457.998 294.998 440.998 262.998 406.998 c 1
EndSplineSet
Validated: 33
EndChar

StartChar: R
Encoding: 82 82 51
Width: 484
Flags: MW
HStem: -183 114 -1 83 469 87
VStem: 135 90 351 94<261.999 292.999 286.999 292.999>
LayerCount: 2
Fore
SplineSet
179.998 -70.3203 m 0
 207.795 -69.8896 231.208 -92.1123 231.208 -119.922 c 0
 231.208 -150.139 210.201 -177.581 179.999 -178.05 c 0
 150.887 -178.502 131.268 -150.598 131.268 -121.472 c 0
 131.268 -93.9141 152.454 -70.748 179.998 -70.3203 c 0
114.001 -1 m 1
 33.001 -3.00098 l 1
 19.001 8.33203 12.334 21.332 13.001 35.999 c 0
 13.001 50.666 19.001 66.666 31.001 83.999 c 1
 54.334 82.666 76.667 81.999 98 81.999 c 0
 178.667 81.999 239.667 92.666 281 113.999 c 0
 328.334 137.999 351.667 187.332 351 261.999 c 2
 351 286.999 l 1
 345.667 375.666 320.334 428.166 275.001 444.499 c 0
 229.668 460.832 149.001 468.999 33.001 468.999 c 1
 21.001 487.666 15.001 503.666 15.001 516.999 c 0
 15.001 532.999 23.334 545.999 40.001 555.999 c 1
 61.334 557.332 81.667 557.999 101 557.999 c 0
 330.333 557.999 445 469.666 445 292.999 c 2
 445 290.999 l 1
 443.667 97.666 333.334 0.333008 114.001 -1 c 1
EndSplineSet
Validated: 33
EndChar

StartChar: S
Encoding: 83 83 52
Width: 508
Flags: MW
HStem: 3 92
VStem: 10 100
LayerCount: 2
Fore
SplineSet
364 948 m 1
 372 950 379.335 950.998 386.002 950.998 c 0
 411.335 950.998 425.002 936.331 427.002 906.998 c 1
 339.002 816.331 269.169 724.498 217.502 631.498 c 0
 165.835 538.498 131.668 438.331 115.001 330.998 c 0
 111.668 307.665 110.001 286.332 110.001 266.999 c 0
 110.001 194.999 134.001 146.666 182.001 121.999 c 0
 216.668 103.999 254.001 94.999 294.001 94.999 c 0
 325.335 94.999 358.668 100.332 394.001 110.999 c 1
 417.335 105.666 428.668 94.999 428 78.999 c 0
 428 63.666 418 43.666 398 18.999 c 1
 349.333 8.33203 307.333 2.99902 272 2.99902 c 0
 257.333 2.99902 243.666 3.99902 230.999 5.99902 c 0
 188.999 12.666 149.499 24.499 112.499 41.499 c 0
 75.499 58.499 45.999 93.999 23.999 147.999 c 0
 13.999 172.666 9.33203 203.333 9.99902 240 c 0
 9.99902 284 16.999 336.667 30.999 398 c 0
 56.999 510.667 98.332 613.5 154.999 706.5 c 0
 211.666 799.5 281.333 880 364 948 c 1
EndSplineSet
Validated: 33
EndChar

StartChar: T
Encoding: 84 84 53
Width: 508
Flags: MW
HStem: 4 21G 860 91
VStem: 376 100
LayerCount: 2
Fore
SplineSet
121 7 m 1
 113 5 105.663 4.00293 98.9961 4.00293 c 0
 73.6631 4.00293 60.3301 18.6699 58.9971 48.0029 c 1
 146.997 138.003 216.83 229.503 268.497 322.503 c 0
 320.164 415.503 354.331 516.003 370.998 624.003 c 0
 374.331 646.67 375.998 667.67 375.998 687.003 c 0
 375.998 759.003 351.665 807.67 302.998 833.003 c 0
 268.331 851.003 231.331 860.003 191.998 860.003 c 0
 160.665 860.003 127.332 854.336 91.999 843.003 c 1
 68.666 848.336 56.999 859.336 56.999 876.003 c 0
 56.999 891.336 67.332 911.336 87.999 936.003 c 1
 136.666 946.67 178.666 951.67 213.999 951.003 c 0
 228.666 951.003 242.333 950.003 254.999 948.003 c 0
 296.999 941.336 336.499 929.669 373.499 913.002 c 0
 410.499 896.335 439.666 861.002 460.999 807.002 c 0
 470.999 782.335 475.999 751.668 475.999 715.001 c 0
 475.999 671.001 468.666 618.001 453.999 556.001 c 0
 427.999 443.334 386.832 340.667 330.499 248 c 0
 274.166 155.333 204.333 75 121 7 c 1
EndSplineSet
Validated: 33
EndChar

StartChar: U
Encoding: 85 85 54
Width: 589
Flags: MW
HStem: 0 21G<31.001 44.6675> 471 83<220.334 248.001>
VStem: 0 83 414 87<29 29>
LayerCount: 2
Fore
SplineSet
501 30 m 1
 489.667 10 476.667 0.000976562 462 0.000976562 c 0
 447.333 0.000976562 431.333 9.66797 414 29.001 c 1
 358.667 324.334 303.334 471.667 248.001 471 c 0
 192.668 471 137.668 322.333 83.001 25 c 1
 66.334 8.33301 51.334 0 38.001 0 c 0
 24.001 0 11.334 8 0.000976562 24 c 1
 83.334 377.333 166.667 554 250 554 c 0
 333.333 554 417 379.333 501 30 c 1
EndSplineSet
Validated: 33
EndChar

StartChar: V
Encoding: 86 86 55
Width: 628
Flags: MW
HStem: 471 83<250 276.331> 872 66
VStem: 2 78 180 72 414 87
LayerCount: 2
Fore
SplineSet
501 30 m 1
 489 9.33301 475.997 -0.666992 461.997 0 c 0
 447.33 0 431.33 9.66699 413.997 29 c 1
 358.664 323.667 303.664 471 248.997 471 c 0
 193.664 471 138.331 322.333 82.998 25 c 1
 71.665 13.667 60.998 6.33398 50.998 3.00098 c 1
 46.3311 0.333984 41.6641 -0.666016 36.9971 0.000976562 c 0
 23.6641 0.000976562 11.3311 8.00098 -0.00195312 24.001 c 1
 0.665039 27.334 1.33203 31.001 1.99902 35.001 c 2
 1.99902 469.001 l 1
 -4.00098 467.668 -10.334 466.001 -17.001 464.001 c 1
 -31.668 478.668 -39.001 493.501 -39.001 508.501 c 0
 -39.001 523.501 -31.668 539.001 -17.001 555.001 c 1
 -10.334 557.001 -4.00098 559.001 1.99902 561.001 c 1
 1.99902 594.001 l 2
 1.33203 716.668 6.66504 800.001 17.998 844.001 c 0
 30.665 891.334 60.665 921.001 107.998 933.001 c 0
 122.665 936.334 136.332 938.001 148.999 938.001 c 0
 177.666 938.001 200.999 928.668 218.999 910.001 c 0
 240.999 886.667 251.999 843.334 251.999 780.001 c 0
 251.999 770.001 251.666 760.001 250.999 750.001 c 0
 236.999 631.334 179.999 547.334 79.999 498.001 c 1
 79.999 310.001 l 1
 136.666 473.334 193.333 554.667 250 554 c 0
 333.333 554 417 379.333 501 30 c 1
80.9971 593 m 1
 104.33 605 121.996 617.333 133.996 630 c 0
 158.663 654.667 173.33 698.667 177.997 762 c 0
 179.33 776 179.997 789 179.997 801 c 0
 179.997 848.333 169.33 872 147.997 872 c 0
 142.664 872 136.997 870.667 130.997 868 c 0
 96.9971 852.667 79.9971 823.667 79.9971 781 c 0
 79.9971 775 80.3301 769 80.9971 763 c 2
 80.9971 593 l 1
EndSplineSet
Validated: 33
EndChar

StartChar: W
Encoding: 87 87 56
Width: 466
Flags: W
LayerCount: 2
Fore
SplineSet
108 -361 m 1
 86 -379.667 66.834 -388.999 50.501 -388.999 c 0
 34.168 -388.999 20.668 -379.666 10.001 -360.999 c 1
 -108.999 1.00098 l 1
 -106.999 42.334 -90.666 63.001 -59.999 63.001 c 0
 -50.666 63.001 -40.333 61.334 -29 58.001 c 1
 60 -237.999 l 1
 408 523.001 l 1
 431.333 544.334 451.5 555.167 468.5 555.5 c 0
 485.5 555.833 499.333 545 510 523 c 1
 108 -361 l 1
EndSplineSet
Validated: 33
EndChar

StartChar: X
Encoding: 88 88 57
Width: 1047
Flags: MW
HStem: 0 83<412.001 422.001 412.001 422.001> 10.001 21G 535 20G<35.001 49.001> 560.001 60.999
VStem: 0 97.002 26.001 57
LayerCount: 2
Fore
SplineSet
0 533 m 1xb8
 14 547.667 28.001 555 42.001 555 c 0
 56.001 555 69.668 547.667 83.001 533 c 1
 83.001 522 l 2xb4
 83.001 230 192.668 83.667 412.001 83 c 2
 422.001 83 l 1
 436.668 67.667 444.168 53 444.501 39 c 0
 444.834 25 437.334 12 422.001 0 c 1
 143.334 -0 2.66699 177.667 0 533 c 1xb8
654 537 m 1
 647.332 518.333 631.667 509 619.002 509 c 0
 607.669 509 594.999 519.999 575.002 531 c 1
 545.999 548.999 532.999 556.999 504.002 560 c 0
 471.508 563.363 446.668 548.333 436.001 525 c 0
 426.668 505 420.001 479 420.001 449 c 0
 420.001 412.333 428.001 368.666 442.001 316 c 0
 467.334 221.333 516.667 149.333 624 100 c 1
 636.832 92.3008 651.579 84.501 662.254 76.6006 c 1
 705.502 53.0967 723.953 56.6279 742.796 67.4033 c 1
 825.293 146.109 873 227.975 873 313 c 0
 873 342.333 872.333 372 863 402 c 0
 823.667 521.333 776 616.333 772 687 c 0
 772 689 772.667 690.667 772 692 c 0
 772 760.667 850 837 992 921 c 1
 1022.67 915.667 1036 903 1036 883 c 0
 1036 870.333 1033 846 1004 835 c 1
 916 793 864 748.667 854 702 c 0
 851.333 688.664 853.666 675.331 852.999 662 c 0
 852.999 625.333 875.666 585.333 894.999 542 c 0
 920.999 482 944.332 404.333 952.999 309 c 0
 953.666 300.333 951.999 291.333 951.999 282 c 0
 951.999 196.667 899.999 114.667 821.999 36 c 1
 806.999 15 787.499 6 775 5 c 0
 774.522 4.96191 774.047 5.00879 773.577 5.02637 c 0
 739.746 -1.07324 680.002 -3.99219 652.001 10.001 c 1x70
 508.668 57.334 413.668 156.667 379.001 308 c 0
 364.334 372.667 357.001 426.667 357.001 470 c 0
 357.001 528.667 377.334 568.667 404.001 590 c 0
 430.001 610.667 438.668 621 478.001 621 c 0
 508.001 621 523.668 614.667 561.001 602 c 1
 467.001 855 l 1
 474.334 874.333 491.667 884 507 884 c 0
 519 884 522 879 538 869 c 1
 654 537 l 1
EndSplineSet
Validated: 33
EndChar

StartChar: Y
Encoding: 89 89 58
Width: 740
Flags: MW
HStem: 1 66 476 80
VStem: 1 80 630 81
LayerCount: 2
Fore
SplineSet
711 271 m 0
 711 199.667 688.001 139.332 642.001 89.999 c 1
 602.001 30.666 519.001 0.999023 393.001 0.999023 c 2
 389.001 0.999023 l 1
 373.001 11.666 365.001 22.666 365.001 33.999 c 0
 365.001 44.666 372.668 55.666 388.001 66.999 c 1
 393.001 66.999 l 2
 461.001 66.999 515.668 85.666 557.001 122.999 c 0
 599.668 161.666 623.001 195.999 627.001 225.999 c 0
 629.001 240.666 630.001 255.666 630.001 270.999 c 0
 630.001 286.332 629.001 301.332 627.001 315.999 c 0
 623.001 345.999 601.668 377.332 563.001 409.999 c 0
 524.334 442.666 490.001 462.999 460.001 470.999 c 0
 446.668 474.332 432.335 475.999 417.002 475.999 c 0
 396.335 475.999 373.002 472.999 347.002 466.999 c 0
 301.002 456.999 253.002 421.332 203.002 359.999 c 1
 128.335 229.999 87.668 119.999 81.001 29.999 c 1
 65.001 10.666 50.334 0.833008 37.001 0.5 c 0
 23.668 0.166992 11.668 10 1.00098 30 c 1
 12.334 156 50.001 267.5 114.001 364.5 c 0
 178.001 461.5 260.001 524 360.001 552 c 0
 371.335 554.667 384.668 556 400.001 556 c 0
 412.668 556 426.668 555 442.001 553 c 1
 509.334 549.667 572.667 524 632 476 c 1
 684.667 420 711 351.667 711 271 c 0
EndSplineSet
Validated: 33
EndChar

StartChar: Z
Encoding: 90 90 59
Width: 514
Flags: MW
HStem: -388 83 0 79 471 81
VStem: 16 71 341 91
LayerCount: 2
Fore
SplineSet
299 -172 m 1
 247.667 -312 187.332 -384.005 117.999 -388.005 c 1
 109.999 -388.005 l 2
 47.332 -388.005 15.999 -346.005 15.999 -262.005 c 2
 15.999 -256.005 l 1
 17.332 -165.338 47.665 -86.3379 106.998 -19.0049 c 0
 149.665 28.9951 207.665 59.6621 280.998 72.9951 c 1
 294.331 120.995 306.998 163.995 318.998 201.995 c 0
 333.665 246.662 340.998 285.662 340.998 318.995 c 0
 340.998 335.662 338.998 350.995 334.998 364.995 c 0
 323.665 406.329 294.665 434.662 247.998 449.995 c 0
 204.665 463.995 138.998 470.995 50.998 470.995 c 2
 27.998 470.995 l 1
 13.998 484.328 6.99805 497.328 6.99805 509.995 c 0
 6.99805 523.995 15.3311 537.995 31.998 551.995 c 1
 78.998 551.995 l 2
 152.331 551.995 202.331 550.662 228.998 547.995 c 0
 261.665 544.66 301.498 527.827 348.498 497.496 c 0
 395.498 467.163 422.665 428.33 429.998 380.997 c 0
 431.331 370.33 431.998 359.33 431.998 347.997 c 0
 431.998 306.664 421.998 259.331 401.998 205.998 c 0
 389.998 174.665 376.998 132.332 362.998 78.999 c 1
 373.998 78.999 l 1
 389.998 67.666 397.831 55.333 397.498 42 c 0
 397.165 28.667 389.332 14.667 373.999 0 c 1
 363.331 0.666992 352.664 1 341.999 1 c 1
 328.666 -49 314.333 -106.667 299 -172 c 1
258.998 -12.0049 m 1
 216.331 -27.3379 179.998 -55.3379 149.998 -96.0049 c 0
 107.998 -155.338 86.998 -205.338 86.998 -246.005 c 0
 86.998 -255.338 88.3311 -264.338 90.998 -273.005 c 0
 96.998 -294.338 105.331 -305.005 115.998 -305.005 c 0
 127.998 -305.005 143.331 -292.338 161.998 -267.005 c 0
 195.998 -220.338 225.331 -147.005 249.998 -47.0049 c 0
 253.331 -35.0049 256.331 -23.3379 258.998 -12.0049 c 1
EndSplineSet
Validated: 33
EndChar

StartChar: bracketleft
Encoding: 91 91 60
Width: 376
Flags: MW
HStem: -201 95<215 219.667 215 219.667> 645 95<219.333 227 219 236.667>
VStem: 86 86<-165.333 -108> 93 87 100 87<511 565.333>
LayerCount: 2
Fore
SplineSet
215 -201 m 0xe0
 207.667 -201 196.667 -201.499 182 -202.499 c 0
 167.333 -203.499 156.333 -203.999 149 -203.999 c 0
 107 -203.999 86 -184.666 86 -145.999 c 0xe0
 86 -86.666 88.333 27.667 93 197 c 0xd0
 97.667 366.333 100 481 100 541 c 1
 92 688 l 1
 92 695 l 1
 92 698 l 2
 92 709.333 95.667 719.333 103 728 c 0
 111 737.333 121.667 742 135 742 c 0
 145 742 159.833 741.667 179.5 741 c 0
 199.167 740.333 214 740 224 740 c 0
 230 740 239.167 740.333 251.5 741 c 0
 263.833 741.667 273 742 279 742 c 0
 309 742 324 726.333 324 695 c 0
 324 666.333 310.333 650.333 283 647 c 0
 266.333 645.667 247.333 645 226 645 c 0
 212.667 645 198.667 645.333 184 646 c 1
 186 616.667 187 583.667 187 547 c 2xc8
 180 219 l 1xd0
 172 -108 l 1
 215 -106 l 2
 224.333 -106 238.5 -106.5 257.5 -107.5 c 0
 276.5 -108.5 290.667 -109 300 -109 c 0
 313.333 -109 323.833 -113.667 331.5 -123 c 0
 339.167 -132.333 343 -143.5 343 -156.5 c 0
 343 -169.5 339.167 -180.667 331.5 -190 c 0
 323.833 -199.333 313.333 -204 300 -204 c 0
 290.667 -204 276.5 -203.5 257.5 -202.5 c 0
 238.5 -201.5 224.333 -201 215 -201 c 0xe0
EndSplineSet
Validated: 1
EndChar

StartChar: backslash
Encoding: 92 92 61
Width: 0
Flags: MW
HStem: 661 302<-258 -246>
VStem: -290 77 -288 65
LayerCount: 2
Fore
SplineSet
-258 661 m 1xa0
 -264.667 657.677 -268.668 658.342 -270.001 662.998 c 0
 -271.334 667.687 -275.001 669.354 -281.001 668 c 1
 -288.001 695 l 1xa0
 -290.001 928 l 1
 -284.668 930.667 -277.668 936.667 -269.001 946 c 0
 -260.334 955.333 -252.667 961 -246 963 c 1
 -213 931 l 1xc0
 -223 702 l 1
 -258 661 l 1xa0
EndSplineSet
Validated: 1
EndChar

StartChar: bracketright
Encoding: 93 93 62
Width: 376
Flags: MW
HStem: -201 95 646 95<171 171>
VStem: 105 232<-164.667 -159.001 -159.001 -157.001 -164.667 -141.667> 242 87<-26.3335 27.6655> 245 91 256 87<646 703.999>
LayerCount: 2
Fore
SplineSet
214 740 m 0xc4
 221.333 740 232.333 740.332 247 740.999 c 0
 261.667 741.666 272.667 741.999 280 741.999 c 0
 322 741.999 343 722.999 343 684.999 c 0xc4
 343 625.666 340.667 511.166 336 341.499 c 0xc8
 331.333 171.832 329 57.332 329 -2.00098 c 1xd0
 336 -150.001 l 1xc8
 337 -157.001 l 1
 337 -159.001 l 2
 337 -170.334 333 -180.334 325 -189.001 c 0
 317 -198.334 306.333 -203.334 293 -204.001 c 0
 283 -204.001 268.333 -203.501 249 -202.501 c 0
 229.667 -201.501 215 -201.001 205 -201.001 c 0
 199 -201.001 189.833 -201.501 177.5 -202.501 c 0
 165.167 -203.501 156 -204.001 150 -204.001 c 0
 120 -204.001 105 -188.001 105 -156.001 c 0xe0
 105 -127.334 118.667 -111.667 146 -109 c 0
 162.667 -107.667 181.667 -106.667 203 -106 c 0
 216.333 -106 230.333 -106.333 245 -107 c 1xc8
 243 -77.667 242 -44.667 242 -8 c 2xd0
 249 319 l 1
 256 646 l 1
 214 645 l 2
 204.667 645 190.5 645.333 171.5 646 c 0
 152.5 646.667 138 647 128 647 c 0
 114.667 647 104.334 651.667 97.001 661 c 0
 89.668 670.333 86.001 681.5 86.001 694.5 c 0
 86.001 707.5 89.834 718.667 97.501 728 c 0
 105.168 737.333 115.335 742 128.002 742 c 0
 137.335 742 151.668 741.667 171.001 741 c 0
 190.334 740.333 204.667 740 214 740 c 0xc4
EndSplineSet
Validated: 1
EndChar

StartChar: asciicircum
Encoding: 94 94 63
Width: 573
Flags: MW
HStem: 0 73 482.153 70.872
VStem: 0 83<74.999 74.999 74.999 527.999> 165.727 74.273 408 71<341.999 341.999>
LayerCount: 2
Fore
SplineSet
265 188 m 0
 278 155 304 144.999 321 144.999 c 0
 336 144.999 357 160.999 370 182.999 c 0
 394 222.999 404 280.999 404 280.999 c 1
 408 341.999 l 1
 406 403.999 400 411.999 379 449.999 c 0
 370.463 465.176 337.633 482.151 323.183 482.151 c 0
 322.398 482.151 321.669 482.102 321 481.999 c 0
 308 479.999 284 465.999 272 449.999 c 0
 249 417.999 247 401.999 240 346.999 c 0
 239.667 343.666 239.556 336.443 239.556 327.926 c 0
 239.556 310.889 240 288.667 240 282 c 0
 240 239 247 232 265 188 c 0
83 74.999 m 1
 145 78.999 203.998 85.998 225.998 106.998 c 1
 177.998 160.998 174.998 195.998 167.998 264.998 c 0
 167.189 274.706 165.726 296.196 165.726 310.404 c 0
 165.726 313.759 165.808 316.707 165.999 318.999 c 0
 165.999 371.999 174.999 416.999 193.999 460.999 c 0
 230.999 544.999 304.999 550.999 304.999 550.999 c 1
 316.999 552.999 l 2
 317.95 553.016 318.899 553.023 319.847 553.023 c 0
 375.726 553.023 426.384 524.048 449 467.999 c 0
 464 430.999 479 378.999 479 338.999 c 0
 479 317.999 479 300.999 475 279.999 c 0
 462 216.999 437 153.999 400 107.999 c 1
 413 79.999 447 74.999 518 74.999 c 1
 546 72.999 l 1
 557 60.999 560 52.999 560 40.999 c 0
 560 28.999 560 12.999 550 -0.000976562 c 1
 471 6.99902 382 23.999 323 53.999 c 1
 254 24.999 120 8.99902 42 -0.000976562 c 1
 28 -0.000976562 14 8.99902 0 27.999 c 1
 0 527.999 l 1
 13 544.999 27 553.999 41 553.999 c 0
 55 552.999 69 544.999 83 527.999 c 1
 83 74.999 l 1
EndSplineSet
Validated: 1
EndChar

StartChar: underscore
Encoding: 95 95 64
Width: 1287
Flags: MW
HStem: -443.003 77.002 0 83 482.999 69 520.996 20G
VStem: -0.000976562 110 0 83.001 43 48 49 76.002 287.999 73 328.001 73
LayerCount: 2
Fore
SplineSet
142 -14 m 0xc0
 127.536 -24.6348 122.846 -43.2344 122.846 -65.7148 c 0
 122.846 -96.0791 131.403 -133.526 136 -168.001 c 1
 157 -259.001 187 -329.001 280 -360.001 c 0
 284.342 -361.629 288.356 -362.39 292.063 -362.39 c 0
 321.828 -362.39 331.728 -313.333 331.728 -270.411 c 0
 331.728 -259.59 331.099 -249.158 330 -240.001 c 0
 324 -188.001 317 -133.001 292 -96.001 c 0
 268.022 -61.2734 211.229 -6.03613 167.406 -6.03613 c 0
 158.229 -6.03613 149.619 -8.45898 142 -14 c 0xc0
906.001 481.998 m 1
 824.81 471.366 809.95 345.822 809.95 314.863 c 0
 809.95 313.792 809.968 312.834 810.001 311.998 c 0
 817.001 237.998 857.001 161.998 908.001 145.998 c 1
 969.001 171.998 991.001 237.998 992.001 311.998 c 0
 992.001 323.998 980.001 481.998 906.001 481.998 c 1
420.002 561.998 m 0
 435.002 558.998 441.999 554.999 455.999 549.999 c 1
 471.999 374.999 460.999 144.999 730.999 69.999 c 0
 733.943 69.3066 737.21 68.9893 740.719 68.9893 c 0
 776.708 68.9893 838.149 102.424 838.149 107.627 c 0
 838.149 107.775 838.101 107.899 838 108 c 1
 838.118 108 838.176 108.047 838.176 108.139 c 0
 838.176 111.96 739.904 194.15 735.999 324 c 1
 736.999 405 774.999 558 897.999 560 c 1
 1040.2 558.039 1066.03 417.578 1066.03 327.269 c 0
 1066.03 325.492 1066.02 323.736 1066 322 c 0
 1062.29 177.329 974.298 130.702 974.298 113.526 c 0
 974.298 112.182 974.838 111.018 976 110.001 c 0
 1024.27 78.6689 1109.82 62.3955 1137.33 62.3955 c 0
 1142.31 62.3955 1145.39 62.9277 1146 64 c 0
 1146 330 1142 526 1140 908 c 1
 1155.52 916.729 1162.57 932.045 1180.32 932.045 c 0
 1180.87 932.045 1181.43 932.03 1182 932 c 0
 1205 931 1234 925 1234 902 c 0
 1235.24 794.705 1235.71 702.219 1235.71 615.356 c 0
 1235.71 422.111 1233.38 256.704 1232 17.999 c 0
 1232 -3.00098 1207 -7.00098 1186 -10.001 c 0
 1184.72 -10.1514 1183.5 -10.2227 1182.32 -10.2227 c 0
 1167.9 -10.2227 1160.8 0.526367 1146 6.99902 c 1
 1017 6.99902 986.001 37.999 914.001 61.999 c 1
 840.001 39.999 811.001 11.999 733.001 4.99902 c 1
 370.001 84.999 401.001 349.999 383.001 454.999 c 1
 331.001 382.999 194.001 195.999 170.001 59.999 c 1
 228.001 59.999 397.001 -34.001 416.001 -234.001 c 1
 411.316 -310.836 369.756 -443.862 310.242 -443.862 c 0
 306.241 -443.862 302.159 -443.262 298.002 -442.002 c 0
 135.002 -408.002 66.002 -324.002 42.002 -122.002 c 1
 46.7852 -63.0049 56.0176 -44.0518 56.0176 -14.9746 c 0
 56.0176 -7.58008 55.4209 0.46875 54.002 9.99805 c 1
 48.002 11.998 38.002 8.99805 38.002 15.998 c 0
 39.002 37.998 44.002 50.998 56.002 69.998 c 0
 61.002 77.998 69.002 74.998 78.002 77.998 c 1
 179.002 320.998 240.002 422.998 388.002 561.998 c 1
 396.002 561.998 402.224 562.887 409.039 562.887 c 0
 412.446 562.887 416.002 562.665 420.002 561.998 c 0
EndSplineSet
Validated: 1
EndChar

StartChar: grave
Encoding: 96 96 65
Width: 1333
Flags: MW
HStem: 0 73 3 92 23 21G 476.664 80.336
VStem: 9.87442 100.126 851 66 1084 71.27
LayerCount: 2
Fore
SplineSet
1038 373 m 0x9e
 1022.65 394.318 1007.3 412.726 993.193 412.726 c 0
 990.757 412.726 988.356 412.177 986 410.999 c 0
 974 404.999 972 399.999 958 378.999 c 0
 932 338.999 917 293.999 917 241.999 c 0
 917 234.999 917 228.999 918 222.999 c 0
 922 161.999 937 118.999 962 91.999 c 0
 975 78.999 995 72.999 1008 72.999 c 0
 1021 72.999 1035 79.999 1049 93.999 c 0
 1078 121.999 1080 165.999 1084 217.999 c 0
 1085 227.999 1084 237.999 1084 247.999 c 0
 1084.03 249.107 1084.04 250.214 1084.04 251.319 c 0
 1084.04 294.113 1065.3 334.982 1038 373 c 0x9e
1220 482.998 m 1
 1155 478.998 1080 473.998 1057 453.998 c 1
 1105 399.998 1146 331.998 1153 262.998 c 0
 1153.81 252.481 1155.27 242.618 1155.27 232.88 c 0
 1155.27 230.582 1155.19 228.29 1155 225.998 c 0
 1155 172.998 1144 121.998 1121 76.998 c 0
 1095 25.998 1065 -0.00195312 1008 -0.00195312 c 2
 997.001 -0.00195312 l 1x9e
 934.001 6.99805 899.001 34.998 876.001 91.998 c 0
 861.001 128.998 851.001 170.998 851.001 211.998 c 0
 851.001 232.998 852.001 254.998 856.001 275.998 c 0
 868.001 338.998 899.001 396.998 937.001 442.998 c 1
 924.001 469.998 860.001 474.998 860.001 474.998 c 1
 832.001 476.998 l 1
 818.001 475.998 l 2
 812.428 476.438 806.696 476.662 800.834 476.662 c 0
 680.244 476.662 504.101 381.423 504.101 92.3828 c 0
 504.101 75.2734 504.719 57.4854 506.001 38.998 c 1
 497.601 29.998 490.28 28.1982 482.744 28.1982 c 0
 477.72 28.1982 472.6 28.998 467 28.998 c 0
 463.889 28.998 461.32 29.0479 458.89 29.0479 c 0
 450.383 29.0479 443.556 28.4424 421 22.998 c 1x3e
 421 23.998 l 1
 373 13.998 305 2.99805 272 2.99805 c 0
 257 2.99805 244 3.99805 231 5.99805 c 0
 189 12.998 149 23.998 112 40.998 c 0
 75 57.998 46 93.998 24 147.998 c 0
 14.8389 170.9 9.87402 197.998 9.87402 230.83 c 0
 9.87402 233.837 9.91602 236.893 10 239.998 c 0
 10 283.998 17 336.998 31 397.998 c 0
 57 510.998 98 613.998 155 705.998 c 1
 212 799.998 281 879.998 364 947.998 c 1
 372 949.998 379 950.998 386 950.998 c 0
 411 950.998 425 935.998 427 906.998 c 1
 339 815.998 269 723.998 218 630.998 c 0
 166 537.998 132 437.998 115 330.998 c 0
 112 307.998 110 285.998 110 266.998 c 0
 110 194.998 134 146.998 182 121.998 c 0
 217 103.998 254 94.998 294 94.998 c 0x5e
 323 94.998 387 104.998 425 114.998 c 1
 448 408.998 577 555.998 831 556.998 c 1
 832 555.998 833 555.998 833 554.998 c 2
 835 556.998 l 1
 914 549.998 941 532.998 997 498.998 c 1
 1066 527.998 1140 546.998 1218 555.998 c 1
 1230 542.998 1238 530.998 1238 517.998 c 0
 1238 505.998 1232 493.998 1220 482.998 c 1
EndSplineSet
Validated: 1
EndChar

StartChar: a
Encoding: 97 97 66
Width: 465
Flags: MW
HStem: 1 21G<37.6665 51.3335> 473 84<426 426>
VStem: 3 83<23 23>
LayerCount: 2
Fore
SplineSet
3 23 m 1
 5.66699 378.333 146.667 556.333 426 557 c 1
 440.667 545 448 532 448 518 c 0
 448 504 440.667 489 426 473 c 1
 416 473 l 2
 196.667 473 86.667 327 86 35 c 2
 86 23 l 1
 72 8.33301 58.167 1 44.5 1 c 0
 30.833 1 17 8.33301 3 23 c 1
EndSplineSet
Validated: 1
EndChar

StartChar: b
Encoding: 98 98 67
Width: 484
Flags: MW
HStem: -380 76<187.667 192 177.667 210.667> -6 81 7 82<340.667 346.001> 534 20G<236 250> 534 20G<236 250>
VStem: 25 79<-167.999 -154.999> 208 84<87 532 87 532 87 532>
LayerCount: 2
Fore
SplineSet
292 532 m 1xd6
 292 87 l 1
 310.667 88.333 330.334 89 351.001 89 c 0
 368.335 89 386.668 88.667 406.001 88 c 1
 415.334 69.333 419.834 53 419.501 39 c 0
 419.168 25 414.668 13.333 406.001 4 c 1
 380.668 6 357.001 7 335.001 7 c 0xb6
 320.334 7 306.334 6.66699 293.001 6 c 1
 293.001 -37 l 2
 293.001 -231 278.001 -340 248.001 -364 c 0
 234.667 -374.667 219.334 -380 202.001 -380 c 0
 173.334 -380 139.001 -366 99.001 -338 c 0
 50.334 -303.333 25.667 -246.666 25 -167.999 c 0
 25 -141.999 27.667 -113.332 33 -81.999 c 0
 47 -0.666016 105.333 51.667 208 75 c 1
 208 532 l 1
 217.333 546.667 229 554 243 554 c 0
 257 554 273.333 546.667 292 532 c 1xd6
211 -6 m 1xc6
 157 -20.667 124.667 -46.999 114 -84.999 c 0
 108 -106.332 104.667 -126.999 104 -146.999 c 0
 104 -195.666 122 -242.333 158 -287 c 0
 166.667 -298.333 174.334 -304 181 -304 c 0
 203 -304 214 -245.667 214 -129 c 0
 214 -93 213 -52 211 -6 c 1xc6
EndSplineSet
Validated: 33
EndChar

StartChar: c
Encoding: 99 99 68
Width: 557
Flags: MW
HStem: 1 74
VStem: 73 94
LayerCount: 2
Fore
SplineSet
13 579 m 1
 165.667 647.667 301.335 771.667 420.002 951 c 1
 455.335 951 473.002 933.333 473.002 898 c 2
 473.002 894 l 1
 438.002 812 l 1
 338.002 616 l 1
 272.669 485.333 226.336 389.333 199.003 328 c 0
 177.67 279.333 167.003 239.666 167.003 208.999 c 0
 167.003 200.999 167.67 193.666 169.003 186.999 c 0
 176.336 154.332 208.669 125.332 266.002 99.999 c 0
 303.335 83.332 342.668 74.999 384.001 74.999 c 0
 406.001 74.999 429.001 77.332 453.001 81.999 c 1
 464.334 69.999 470.001 57.999 470.001 45.999 c 0
 470.001 32.666 463.001 19.666 449.001 6.99902 c 1
 407.668 2.99902 372.668 0.999023 344.001 0.999023 c 0
 324.668 0.999023 308.001 1.99902 294.001 3.99902 c 0
 259.334 7.99902 217.667 21.999 169 45.999 c 0
 120.333 69.999 90.333 107.332 79 157.999 c 0
 75 175.999 73 193.999 73 211.999 c 0
 73 244.666 79.667 277.666 93 310.999 c 0
 113.667 361.666 182 491.666 298 700.999 c 1
 270 659.666 187 596.999 49 512.999 c 1
 20.333 517.67 6 530.337 6 551 c 0
 6 559 8.33301 568.333 13 579 c 1
EndSplineSet
Validated: 1
EndChar

StartChar: d
Encoding: 100 100 69
Width: 388
Flags: MW
HStem: 530 20G<33.001 47.001>
VStem: 0 74 0 83
LayerCount: 2
Fore
SplineSet
300 20 m 1xa0
 264.667 -42 233.832 -91 207.499 -127 c 0
 181.166 -163 138.333 -227.667 79 -321 c 1
 74 -354 l 1
 62.667 -365.333 50.334 -371 37.001 -371 c 0
 25.001 -371 12.668 -366.667 0.000976562 -358 c 1xc0
 0.000976562 528 l 1
 12.668 542.667 26.001 550 40.001 550 c 0
 54.001 550 68.334 542.667 83.001 528 c 1
 83.001 -197 l 1
 135.668 -106.333 182.001 -33 222.001 23 c 1
 240.001 40.333 255.668 49.333 269.001 50 c 0
 282.334 50 292.667 40 300 20 c 1xa0
EndSplineSet
Validated: 1
EndChar

StartChar: e
Encoding: 101 101 70
Width: 454
Flags: MW
HStem: 0 83<412.001 422.001 412.001 422.001> 535 20G<35.001 49.001> 535 20G<35.001 49.001>
VStem: 0 83
LayerCount: 2
Fore
SplineSet
0 533 m 1xd0
 14 547.667 28.001 555 42.001 555 c 0
 56.001 555 69.668 547.667 83.001 533 c 1
 83.001 522 l 2
 83.001 230 192.668 83.667 412.001 83 c 2
 422.001 83 l 1
 436.668 67.667 444.168 53 444.501 39 c 0
 444.834 25 437.334 12 422.001 0 c 1
 143.334 -0 2.66699 177.667 0 533 c 1xd0
EndSplineSet
Validated: 33
EndChar

StartChar: f
Encoding: 102 102 71
Width: 490
Flags: MW
HStem: 7 88
VStem: 56 83 377 80
LayerCount: 2
Fore
SplineSet
386 125.5 m 0
 359.333 75.167 318.664 38.332 263.998 14.999 c 0
 251.331 9.66602 238.664 6.99902 225.997 6.99902 c 0
 184.664 6.99902 143.331 35.332 101.998 91.999 c 0
 71.3311 134.666 55.998 180.999 55.998 230.999 c 0
 55.998 268.999 64.665 308.999 81.998 350.999 c 0
 122.665 447.666 220.332 532.333 374.999 605 c 1
 373.666 632.333 370.999 657.333 366.999 680 c 0
 352.999 757.333 328.332 831 292.999 901 c 1
 297.666 927.667 311.666 941 334.999 941 c 0
 343.666 941 353.333 939.333 364 936 c 1
 408 856 437.333 761 452 651 c 0
 455.333 621.667 457 589.667 457 555 c 0
 457 500.333 453 438.333 445 369 c 0
 432.333 257 412.666 175.833 386 125.5 c 0
376.998 525.998 m 1
 287.665 471.331 222.331 416.666 180.998 361.999 c 0
 152.998 325.999 138.998 286.999 138.998 244.999 c 0
 138.998 219.666 143.998 193.666 153.998 166.999 c 0
 171.331 118.999 194.331 94.999 222.998 94.999 c 0
 237.665 94.999 253.998 101.332 271.998 113.999 c 0
 323.998 151.332 355.998 235.665 367.998 366.998 c 0
 373.998 425.665 376.998 478.665 376.998 525.998 c 1
EndSplineSet
Validated: 1
EndChar

StartChar: g
Encoding: 103 103 72
Width: 450
Flags: MW
HStem: -369 60 477 77
VStem: 59 68 298 88
LayerCount: 2
Fore
SplineSet
24 302 m 1
 30 404.667 65.3369 475.332 130.004 513.999 c 0
 174.004 540.666 224.004 553.999 280.004 553.999 c 0
 306.004 553.999 333.004 550.999 361.004 544.999 c 1
 373.671 532.999 380.004 520.999 380.004 508.999 c 0
 380.004 497.666 374.004 486.333 362.004 475 c 1
 343.337 476.333 326.004 477 310.004 477 c 0
 235.337 477 184.67 460.333 158.003 427 c 0
 132.003 394.333 119.003 356 119.003 312 c 0
 119.003 301.333 120.003 290.333 122.003 279 c 0
 129.336 223 173.003 148.333 253.003 55 c 1
 282.336 69 305.336 77.333 322.003 80 c 1
 348.67 69.333 362.003 49.666 362.003 20.999 c 1
 299.003 -1.00098 l 1
 357.003 -77.668 386.003 -145.001 386.003 -203.001 c 2
 386.003 -206.001 l 1
 384.67 -276.001 357.003 -324.334 303.003 -351.001 c 0
 278.336 -363.001 253.669 -369.001 229.002 -369.001 c 0
 200.335 -369.001 171.668 -360.668 143.001 -344.001 c 0
 90.334 -313.334 62.667 -264.667 60 -198 c 0
 60 -192 59.667 -186.333 59 -181 c 0
 59 -123 71.333 -80 96 -52 c 0
 118.667 -26 149 -1.66699 187 21 c 1
 165.667 43 142.667 67.667 118 95 c 0
 77.333 139 46 208 24 302 c 1
236.004 -29.002 m 1
 186.671 -53.6689 156.671 -79.001 146.004 -105.001 c 0
 133.337 -138.334 127.004 -169.334 127.004 -198.001 c 2
 127.004 -205.001 l 1
 128.337 -235.668 146.337 -264.335 181.004 -291.002 c 0
 197.004 -303.669 212.004 -309.669 226.004 -309.002 c 0
 242.004 -309.002 257.337 -301.002 272.004 -285.002 c 0
 289.337 -265.002 298.004 -238.335 298.004 -205.002 c 0
 298.004 -189.002 296.004 -171.335 292.004 -152.002 c 0
 280.671 -99.335 262.004 -58.335 236.004 -29.002 c 1
EndSplineSet
Validated: 33
EndChar

StartChar: h
Encoding: 104 104 73
Width: 299
Flags: MW
HStem: 4 21G<35.6675 49.3345> 852 93<181.667 200.002 173.668 204.334>
VStem: 0 83
LayerCount: 2
Fore
SplineSet
0 28 m 1
 0.000976562 523 l 2
 0.000976562 693.667 10.668 799.667 32.001 841 c 0
 53.334 882.333 85.334 913 128.001 933 c 0
 144.668 941 163.335 945 184.002 945 c 0
 216.002 945 253.002 935.667 295.002 917 c 1
 306.335 899.66 312.335 884.327 313.002 871.001 c 0
 313.002 852.334 300.335 838.667 275.002 830 c 1
 244.335 844.667 216.668 852 192.001 852 c 0
 171.334 852 153.001 846.667 137.001 836 c 0
 101.668 812.665 83.668 753.332 83.001 658 c 2
 83.001 28 l 1
 69.668 12 56.168 4 42.501 4 c 0
 28.834 4 14.667 12 0 28 c 1
EndSplineSet
Validated: 1
EndChar

StartChar: i
Encoding: 105 105 74
Width: 171
Flags: MW
HStem: 0 21G<34.6665 48.3335>
VStem: 0 83<28 528>
LayerCount: 2
Fore
SplineSet
83 28 m 1
 69 9.33301 55.167 0 41.5 0 c 0
 27.833 0 14 9.33301 0 28 c 1
 0 528 l 1
 13.333 545.333 27 553.833 41 553.5 c 0
 55 553.167 69 544.667 83 528 c 1
 83 28 l 1
EndSplineSet
Validated: 33
EndChar

StartChar: j
Encoding: 106 106 75
Width: 557
Flags: MW
HStem: 461 98<88.3325 105>
VStem: 301 89
LayerCount: 2
Fore
SplineSet
467 11 m 1
 314.333 -58.333 178.667 -182.333 60 -361 c 1
 24.667 -361 7 -343.333 7 -308 c 2
 7 -303 l 1
 29 -222 l 1
 119 -32 l 1
 199 106 249.333 196.667 270 240 c 0
 290.667 283.333 301 327.333 301 372 c 2
 301 375 l 2
 300.333 421 268 447.333 204 454 c 0
 159.333 458.667 121 461 89 461 c 0
 75 461 62.333 460.667 51 460 c 1
 31 488.667 21.333 511 22 527 c 0
 22 543.667 32.333 554 53 558 c 1
 66.333 558.667 80.666 559 95.999 559 c 0
 116.666 559 138.999 558.333 162.999 557 c 0
 204.332 555 245.832 548.167 287.499 536.5 c 0
 329.166 524.833 358.666 500.333 375.999 463 c 0
 385.332 443.667 389.999 420.667 389.999 394 c 0
 389.999 368.667 385.999 339.667 377.999 307 c 0
 361.999 239.667 296.666 100.334 181.999 -110.999 c 1
 209.999 -69.666 295.332 -4.33301 437.999 85 c 1
 461.999 76.333 473.999 62.333 473.999 43 c 0
 474.666 33.667 472.333 23 467 11 c 1
EndSplineSet
Validated: 33
EndChar

StartChar: k
Encoding: 107 107 76
Width: 424
Flags: MW
HStem: 560 61
VStem: 26 71
LayerCount: 2
Fore
SplineSet
361 537 m 1
 354.332 518.333 344.668 509.001 332.003 509.001 c 0
 320.67 509.001 306.67 516.334 290.003 531.001 c 1
 243.336 549.672 205.336 559.339 176.003 560.001 c 0
 143.336 560.001 121.669 548.334 111.002 525.001 c 0
 101.669 505.001 97.002 480.001 97.002 450.001 c 0
 97.002 413.334 104.002 368.667 118.002 316.001 c 0
 143.335 221.334 209.668 149.334 317.001 100.001 c 1
 340.334 86.001 352.001 71.668 352.001 57.001 c 0
 352.001 41.668 339.668 26.001 315.001 10.001 c 1
 171.668 57.334 82.668 156.667 48.001 308 c 0
 33.334 372.667 26.001 426.667 26.001 470 c 0
 26.001 528.667 39.334 568.667 66.001 590 c 0
 92.001 610.667 124.668 621 164.001 621 c 0
 194.001 621 227.668 614.667 265.001 602 c 1
 197.001 855 l 1
 204.334 874.333 215.667 884 231 884 c 0
 243 884 257 879 273 869 c 1
 361 537 l 1
EndSplineSet
Validated: 1
EndChar

StartChar: l
Encoding: 108 108 77
Width: 529
Flags: MW
HStem: 2 77 223 80
VStem: 318 75 423 79
LayerCount: 2
Fore
SplineSet
335 278 m 1
 373 260 392.332 236.335 392.999 207.002 c 0
 392.999 180.335 376.666 148.668 343.999 112.001 c 0
 279.332 38.668 218.999 2.00098 162.999 2.00098 c 2
 155.999 2.00098 l 1
 54.999 1.00098 l 1
 36.999 12.334 27.999 24.501 27.999 37.501 c 0
 27.999 50.501 36.999 64.334 54.999 79.001 c 1
 150.999 79.001 l 2
 206.999 79.001 262.666 118.668 317.999 198.001 c 1
 317.999 221.334 307.332 233.001 285.999 233.001 c 0
 281.999 233.001 277.666 232.668 272.999 232.001 c 0
 243.666 227.334 212.666 224.334 179.999 223.001 c 1
 163.332 237.001 154.999 250.668 154.999 264.001 c 0
 154.999 277.334 163.332 290.334 179.999 303.001 c 1
 218.666 312.336 250.833 323.169 276.5 335.501 c 0
 302.167 347.835 329 364.668 357 386.001 c 0
 385 407.334 407 450.334 423 515.001 c 1
 439.667 540.334 455 552.667 469 552 c 0
 481 552 492 542.333 502 523 c 1
 490 439 l 1
 460.667 371.667 409 318 335 278 c 1
EndSplineSet
Validated: 33
EndChar

StartChar: m
Encoding: 109 109 78
Width: 469
Flags: MW
HStem: -443 77 521 20G
VStem: 49 76 328 73
LayerCount: 2
Fore
SplineSet
79 69 m 1
 90.333 106.333 105.001 144.662 123.001 183.995 c 0
 181.668 310.662 256.001 424.329 346.001 524.996 c 1
 360.001 535.663 372.334 540.996 383.001 540.996 c 0
 399.668 540.996 413.001 528.329 423.001 502.996 c 1
 337.668 388.329 279.668 306.662 249.001 257.996 c 0
 221.668 215.329 193.001 146.996 163.001 52.9961 c 1
 251.668 33.6631 313.668 -4.66992 349.001 -62.0029 c 0
 383.668 -117.336 401.001 -174.669 401.001 -234.002 c 0
 401.001 -244.669 400.334 -255.336 399.001 -266.003 c 0
 391.668 -336.003 373.335 -388.003 344.002 -422.003 c 0
 331.335 -436.67 314.002 -443.67 292.002 -443.003 c 0
 263.335 -443.003 226.668 -430.336 182.001 -405.003 c 0
 103.334 -360.336 59.667 -282.669 51 -172.002 c 0
 49.667 -156.669 49 -141.002 49 -125.002 c 0
 49 -84.335 53.333 -42.668 62 -0.000976562 c 1
 57.333 0.666016 52.333 1.33301 47 2 c 1
 44.333 10.667 43 18.667 43 26 c 0
 43 44.667 51.333 59.667 68 71 c 1
 79 69 l 1
141.001 -16.0039 m 1
 130.334 -56.0039 125.002 -93.335 125.002 -128.002 c 0
 125.002 -191.335 143.002 -245.335 179.002 -290.002 c 0
 220.335 -341.335 252.668 -366.668 276.001 -366.001 c 0
 286.001 -366.001 294.334 -361.334 301.001 -352.001 c 0
 319.001 -328.001 328.001 -296.001 328.001 -256.001 c 0
 328.001 -244.668 327.001 -232.335 325.001 -219.002 c 0
 318.334 -161.669 301.334 -115.336 274.001 -80.0029 c 0
 254.001 -54.6699 209.668 -33.3369 141.001 -16.0039 c 1
EndSplineSet
Validated: 33
EndChar

StartChar: n
Encoding: 110 110 79
Width: 437
Flags: MW
HStem: 3 70<188.333 233.333> 481 74
VStem: 39 72 290 73<199.333 248>
LayerCount: 2
Fore
SplineSet
412 483 m 1
 346.667 479 302.667 467 280 447 c 1
 328 393 355.333 331.667 362 263 c 0
 363.345 250.333 363.678 238 363 226 c 0
 363 172.667 351.667 123.667 329 79 c 0
 303 28.333 261.667 3 205 3 c 0
 201 3 196.667 3.33301 192 4 c 0
 128.667 8 85.334 38.333 62.001 95 c 0
 46.668 132.333 39.001 171.333 39.001 212 c 0
 39.001 233.333 41.001 254.666 45.001 275.999 c 0
 57.001 339.332 82.001 393.999 120.001 439.999 c 1
 107.334 467.332 66.001 480.999 -3.99902 480.999 c 2
 -15.999 480.999 l 1
 -26.666 492.999 -31.833 505.166 -31.5 517.499 c 0
 -31.167 529.832 -26 542.332 -16 554.999 c 1
 63.333 547.666 132.333 528.999 191 498.999 c 1
 260.333 527.666 334 546.666 412 555.999 c 1
 424 543.332 430 530.832 430 518.499 c 0
 430 506.166 424 494.333 412 483 c 1
249 373 m 0
 231 398.333 213.667 411.001 197 411.001 c 0
 181.667 411.001 166.667 400.334 152 379.001 c 0
 124.667 339.668 111 294.001 111 242.001 c 0
 111 235.334 111.333 229.001 112 223.001 c 0
 116 162.334 130.667 118.667 156 92 c 0
 168.667 79.333 181.667 73 195 73 c 0
 208.333 73 222 80 236 94 c 0
 263.334 122 280.667 163.333 288 218 c 0
 289.333 228 290 238 290 248 c 0
 290.667 292 277 333.667 249 373 c 0
EndSplineSet
Validated: 33
EndChar

StartChar: o
Encoding: 111 111 80
Width: 591
Flags: MW
HStem: 1 90 473 83
VStem: 0 87 418 85
LayerCount: 2
Fore
SplineSet
494 206 m 0
 482.667 158 461.001 113.332 429.001 71.999 c 1
 385.668 24.666 326.001 0.999023 250.001 0.999023 c 0
 180.001 0.999023 123.334 21.332 80.001 61.999 c 0
 26.668 111.332 0.000976562 183.332 0.000976562 277.999 c 1
 18.001 389.333 51.334 463.666 100.001 500.999 c 0
 148.001 537.666 196.001 555.999 244.001 555.999 c 2
 247.001 555.999 l 1
 250.001 555.999 l 2
 317.334 555.999 372.334 538.666 415.001 503.999 c 0
 458.334 468.666 485.334 422.333 496.001 365 c 0
 501.342 337 503.675 310.333 503 285 c 0
 503 257 500 230.667 494 206 c 0
404.001 203.999 m 0
 413.334 233.999 418.002 262.667 418.002 290 c 0
 418.002 306 416.335 321.333 413.002 336 c 0
 404.335 376.667 389.002 408.167 367.002 430.5 c 0
 345.002 452.833 320.002 466 292.002 470 c 0
 277.335 472 263.668 473 251.002 473 c 0
 239.002 473 228.002 472 218.002 470 c 0
 196.669 466.667 174.002 454.167 150.002 432.5 c 0
 126.002 410.833 107.669 379.666 95.002 339 c 0
 89.6689 322.333 87.002 304.666 87.002 286 c 0
 87.002 258.667 92.6689 229 104.002 197 c 0
 122.669 143 154.002 110 198.002 98 c 0
 216.002 93.333 233.335 91 250.002 91 c 0
 275.335 91 299.668 96.333 323.001 107 c 0
 362.334 124.333 389.334 156.666 404.001 203.999 c 0
EndSplineSet
Validated: 33
EndChar

StartChar: p
Encoding: 112 112 81
Width: 381
Flags: MW
HStem: 4 21G<244.667 259.334> 854 89<183.335 193.335>
VStem: 2 83 206 89
LayerCount: 2
Fore
SplineSet
208 32 m 1
 206.002 505 l 1
 207.002 650 l 1
 206.002 779 l 1
 206.002 798 l 2
 206.002 835.333 199.669 854 187.002 854 c 0
 179.668 854 170.335 847.667 159.002 835 c 0
 124.335 797.665 103.335 754.332 96.002 705 c 0
 89.335 660.333 85.668 605.333 85.001 540 c 2
 85.001 522 l 1
 71.668 495.333 58.001 482.333 44.001 483 c 0
 30.668 483 16.668 494 2.00098 516 c 1
 2.00098 542 l 1
 2.00098 563 l 2
 2.00098 630.333 9.00098 693 23.001 751 c 0
 38.334 815.667 67.001 866.667 109.001 904 c 0
 137.668 930 167.001 943 197.001 943 c 0
 211.001 943 225.001 940.667 239.001 936 c 0
 277.001 922 295.668 822.667 295.001 638 c 0
 295.001 602.667 294.334 563.667 293.001 521 c 1
 295.001 32 l 1
 281.001 13.333 266.668 4 252.001 4 c 0
 237.334 4 222.667 13.333 208 32 c 1
EndSplineSet
Validated: 33
EndChar

StartChar: q
Encoding: 113 113 82
Width: 575
Flags: MW
HStem: 264 71 458 79 532 20G<292.667 303.667> 532 20G<292.667 303.667>
VStem: 1 75 416 71
LayerCount: 2
Fore
SplineSet
332 527 m 1xac
 323.333 493.667 314.328 463.333 304.995 436 c 1
 306.328 434 307.995 432 309.995 430 c 0
 331.995 398.667 354.162 363.334 376.495 324.001 c 0
 398.829 284.668 435.662 187.001 486.995 31.001 c 1
 478.995 11.668 468.328 2.00098 454.995 2.00098 c 0
 443.662 2.00098 430.662 8.66797 415.995 22.001 c 1
 387.995 142.668 342.328 247.668 278.995 337.001 c 0
 275.662 341.668 272.329 346.668 268.996 352.001 c 1
 238.329 297.334 203.329 268.334 163.996 265.001 c 0
 156.662 264.334 149.329 264.001 141.996 264.001 c 0
 83.9961 264.001 43.3291 287.334 19.9961 334.001 c 0
 7.3291 360.001 0.996094 384.668 0.996094 408.001 c 0
 0.996094 430.668 7.66309 451.668 20.9961 471.001 c 0
 47.6631 509.001 77.3301 530.668 109.997 536.001 c 0
 116.664 537.334 123.331 537.667 129.998 537 c 0xcc
 158.665 537 188.332 528.333 218.999 511 c 0
 230.999 504.333 242.666 496.333 253.999 487 c 1
 257.999 500.335 261.999 514.335 265.999 529 c 1
 276.666 544.333 287.333 552 298 552 c 0
 309.335 552 320.668 543.667 332 527 c 1xac
223.995 406.999 m 1
 191.995 440.999 163.995 457.998 139.995 457.998 c 0
 133.995 457.998 127.995 456.998 121.995 454.998 c 0
 91.3281 442.998 75.9951 425.331 75.9951 401.998 c 0
 75.9951 394.665 77.6621 386.332 80.9951 376.999 c 0
 90.9951 348.999 109.328 334.999 135.995 334.999 c 0
 143.995 334.999 152.328 336.332 160.995 338.999 c 0
 183.662 344.332 204.662 366.999 223.995 406.999 c 1
EndSplineSet
Validated: 1
EndChar

StartChar: r
Encoding: 114 114 83
Width: 521
Flags: MW
HStem: -1 83 469 87
VStem: 351 94
LayerCount: 2
Fore
SplineSet
114 -1 m 1
 33 -3.00098 l 1
 19 8.33203 12.333 21.332 13 35.999 c 0
 13 50.666 19 66.666 31 83.999 c 1
 54.333 82.666 76.666 81.999 97.999 81.999 c 0
 178.666 81.999 239.666 92.666 280.999 113.999 c 0
 328.333 137.999 351.666 187.332 350.999 261.999 c 2
 350.999 286.999 l 1
 345.666 375.666 320.333 428.166 275 444.499 c 0
 229.667 460.832 149 468.999 33 468.999 c 1
 21 487.666 15 503.666 15 516.999 c 0
 15 532.999 23.333 545.999 40 555.999 c 1
 61.333 557.332 81.666 557.999 100.999 557.999 c 0
 330.332 557.999 444.999 469.666 444.999 292.999 c 2
 444.999 290.999 l 1
 443.666 97.666 333.333 0.333008 114 -1 c 1
EndSplineSet
Validated: 33
EndChar

StartChar: s
Encoding: 115 115 84
Width: 398
Flags: MW
HStem: 5 21G<129.001 140.001>
VStem: 150 259
LayerCount: 2
Fore
SplineSet
202 36 m 1
 176.667 16 156.001 5.66699 140.001 5 c 0
 118.001 5 104.668 23.667 100.001 61 c 1
 186.668 141.667 230.001 225.667 230.001 313 c 0
 230.001 342.333 225.334 372 216.001 402 c 0
 176.668 521.333 155.001 616.333 151.001 687 c 0
 151.001 689 150.668 690.667 150.001 692 c 0
 150.001 760.667 221.001 837 363.001 921 c 1
 393.668 915.667 409.001 903 409.001 883 c 0
 409.001 870.333 402.334 854.333 389.001 835 c 1
 301.001 793 252.001 748.667 242.001 702 c 0
 239.334 688.664 237.667 675.331 237 662 c 0
 237 625.333 246.667 585.333 266 542 c 0
 292 482 309.333 404.333 318 309 c 0
 318.667 300.333 319 291.333 319 282 c 0
 319 196.667 280 114.667 202 36 c 1
EndSplineSet
Validated: 1
EndChar

StartChar: t
Encoding: 116 116 85
Width: 179
Flags: MW
HStem: 0 21G<38.999 53.999>
VStem: 0 91
LayerCount: 2
Fore
SplineSet
91 28 m 1
 76.333 9.33301 61.499 0 46.499 0 c 0
 31.499 0 15.999 9.33301 -0.000976562 28 c 1
 -0.000976562 912 l 1
 14.666 930.667 29.333 940 44 940 c 1
 89 912 l 1
 91 28 l 1
EndSplineSet
Validated: 1
EndChar

StartChar: u
Encoding: 117 117 86
Width: 589
Flags: MW
HStem: -1 21G 533 20G 533 20G
VStem: 0 83 414 87<524 524>
LayerCount: 2
Fore
SplineSet
501 523 m 1xd8
 417 173.667 333.334 -1.00098 250.001 -1.00098 c 0
 166.001 -1.00098 82.668 175.666 0.000976562 528.999 c 1
 11.334 544.999 24.001 552.999 38.001 552.999 c 0
 52.001 552.999 67.001 544.666 83.001 527.999 c 1
 192.334 -65.332 302.667 -66.665 414 524 c 1
 449.333 563.333 478.333 563 501 523 c 1xd8
EndSplineSet
Validated: 33
EndChar

StartChar: v
Encoding: 118 118 87
Width: 578
Flags: MW
HStem: -385 79<199.335 247.001> 3 78<57.001 60.001 60.001 61.001> 483 71
VStem: 61 74 371 83 449 71
LayerCount: 2
Fore
SplineSet
126 435 m 0xf4
 157.333 513 207.002 552.666 275.002 553.999 c 1
 281.002 553.999 l 2
 346.336 553.999 395.669 522.666 429.002 459.999 c 0
 445.669 427.999 454.002 387.999 454.002 339.999 c 0xf8
 454.002 291.999 445.669 236.332 429.002 172.999 c 0
 399.669 61.666 301.669 4.33301 135.002 1 c 1
 135.002 -47 138.002 -92.667 144.002 -136 c 0
 157.335 -245.333 187.668 -302 235.001 -306 c 0
 239.001 -306.667 243.001 -306.667 247.001 -306 c 0
 290.334 -306 331.001 -285 369.001 -243 c 0
 409.668 -197 436.335 -116.667 449.002 -2 c 1
 461.002 16.667 472.669 26 484.002 26 c 1
 520.002 -3 l 1
 508.669 -117 483.169 -204.167 443.502 -264.5 c 0
 403.835 -324.833 346.335 -363 271.002 -379 c 0
 254.335 -382.333 239.002 -384.333 225.002 -385 c 0
 173.669 -385 136.002 -362.333 112.002 -317 c 0
 82.002 -259 66.6689 -199.333 66.002 -138 c 0
 65.335 -61.333 63.668 -16 61.001 -2 c 1
 61.001 3 l 1
 60.001 3 l 2
 20.668 3 1.00098 9.66699 1.00098 23 c 0
 1.00098 35.667 19.668 55 57.001 81 c 1
 61.001 81 l 1
 62.334 107.667 64.667 140.667 68 180 c 0
 76 272.667 95.333 357.667 126 435 c 0xf4
138.002 78.999 m 1
 262.669 82.999 334.668 126.999 354.001 210.999 c 0
 364.668 256.999 370.335 297.332 371.002 331.999 c 0
 371.002 373.999 363.335 408.332 348.002 434.999 c 0
 329.335 466.999 308.002 482.999 284.002 482.999 c 0
 271.335 482.999 257.668 478.332 243.002 468.999 c 0
 201.669 441.666 171.669 361.666 153.002 228.999 c 0
 145.669 176.999 140.669 126.999 138.002 78.999 c 1
EndSplineSet
Validated: 1
EndChar

StartChar: w
Encoding: 119 119 88
Width: 327
Flags: W
LayerCount: 2
Fore
SplineSet
-19 -361 m 1
 -43 -383 -63.167 -393.999 -79.5 -393.999 c 0
 -95.833 -393.999 -108.333 -382.999 -117 -360.999 c 1
 281 523.001 l 1
 304.333 544.334 324.5 555.167 341.5 555.5 c 0
 358.5 555.833 372.333 545 383 523 c 1
 -19 -361 l 1
EndSplineSet
Validated: 33
EndChar

StartChar: x
Encoding: 120 120 89
Width: 451
Flags: MW
HStem: 1 69 478 77
LayerCount: 2
Fore
SplineSet
29 1 m 1
 11 12.333 2 23.6689 2 35.002 c 0
 2 46.335 11 58.002 29 70.002 c 1
 121.667 76.6689 174.167 116.169 186.5 188.502 c 0
 198.833 260.835 215 340.668 235 428.001 c 0
 254.333 512.001 311.333 554.334 406 555.001 c 2
 418 555.001 l 1
 436 542.334 445 529.667 445 517 c 0
 445 504.333 436 491.333 418 478 c 1
 413 478 l 2
 345.667 478 309 446 303 382 c 0
 297 316.667 280.333 236 253 140 c 0
 226.333 47.333 156 1 42 1 c 2
 29 1 l 1
EndSplineSet
Validated: 1
EndChar

StartChar: y
Encoding: 121 121 90
Width: 346
Flags: MW
HStem: 870 65
VStem: 101 78<31 467 467 467 31 564.666> 279 72<791.667 808.333 771.33 821.001>
LayerCount: 2
Fore
SplineSet
101 31 m 1
 101 467 l 1
 95 465.667 88.667 464 82 462 c 1
 66.667 476 59 490.667 59 506 c 0
 59 521.333 66.667 536.666 82 551.999 c 1
 88.667 553.999 95 556.332 101 558.999 c 1
 101 570.332 100.667 581.332 100 591.999 c 0
 100 718.666 105.333 801.666 116 840.999 c 0
 128.667 888.332 159 917.999 207 929.999 c 0
 221.667 933.999 235.334 935.666 248 934.999 c 0
 276.667 934.999 299.667 925.999 317 907.999 c 0
 339.667 884.666 351 840.666 351 775.999 c 0
 351 766.66 350.667 757.327 350 748 c 0
 336 629.333 279 545.333 179 496 c 1
 179 31 l 1
 165 9 151.5 -2 138.5 -2 c 0
 125.5 -2 113 9 101 31 c 1
179 591 m 1
 203 603 220.667 615.001 232 627.001 c 0
 257.333 653.001 272.333 697.334 277 760.001 c 0
 278.333 774.001 279 786.334 279 797.001 c 0
 279 845.001 268.333 869.334 247 870.001 c 0
 241.667 870.001 236 868.334 230 865.001 c 0
 196 849.668 179 821.001 179 779.001 c 0
 179 773.001 179.333 767.001 180 761.001 c 0
 179.333 704.334 179 647.667 179 591 c 1
EndSplineSet
Validated: 33
EndChar

StartChar: z
Encoding: 122 122 91
Width: 497
Flags: MW
HStem: -389 87 470 88
VStem: 43 86 211 85
LayerCount: 2
Fore
SplineSet
293 419 m 0
 295 411 295.998 401 295.998 389 c 0
 295.998 337.667 278.331 253 242.998 135 c 0
 200.331 -11 169.998 -105.667 151.998 -149 c 0
 136.665 -185.667 128.998 -218 128.998 -246 c 2
 128.998 -261 l 1
 131.665 -288.333 145.332 -302 169.999 -302 c 2
 178.999 -302 l 1
 208.999 -298 238.499 -274.833 267.499 -232.5 c 0
 296.499 -190.167 324.332 -123.334 350.999 -32.001 c 1
 366.999 -15.334 379.999 -7.00098 389.999 -7.00098 c 0
 402.666 -7.00098 411.333 -19.668 416 -45.001 c 1
 384.667 -165.668 358 -243.501 336 -278.501 c 0
 314 -313.501 283.333 -341.668 244 -363.001 c 0
 210.667 -381.001 179.667 -389.668 151 -389.001 c 0
 145.666 -389.001 140.333 -388.668 135 -388.001 c 0
 101.667 -384.001 78.167 -370.834 64.5 -348.501 c 0
 50.833 -326.168 43.666 -291.335 42.999 -244.001 c 2
 42.999 -243.001 l 2
 42.999 -194.334 75.666 -81.001 140.999 96.999 c 0
 187.666 222.999 210.999 313.999 210.999 369.999 c 0
 210.999 393.999 206.666 411.332 197.999 421.999 c 0
 173.999 453.999 129.999 469.999 65.999 469.999 c 0
 55.999 469.999 45.666 469.666 34.999 468.999 c 1
 16.999 483.666 7.99902 498.333 7.99902 513 c 0
 7.99902 527.667 15.999 542.667 31.999 558 c 1
 142.666 556.667 211.333 544.167 238 520.5 c 0
 264.667 496.833 283 463 293 419 c 0
EndSplineSet
Validated: 33
EndChar

StartChar: braceleft
Encoding: 123 123 92
Width: 403
Flags: MW
HStem: -233 84 243 89<31 31> 723 86
VStem: 146.5 87.5
LayerCount: 2
Fore
SplineSet
31 332 m 1
 87 333.334 121.337 360.666 134.004 413.999 c 0
 139.337 439.333 142.67 481.666 144.003 540.999 c 0
 144.003 568.332 144.67 608.332 146.003 660.999 c 1
 154.003 739.666 188.003 786.999 248.003 802.999 c 0
 260.67 806.999 282.67 808.999 314.003 808.999 c 2
 346.003 808.999 l 1
 346.003 722.999 l 1
 328.003 722.999 l 2
 288.003 722.999 262.003 714.666 250.003 697.999 c 0
 239.336 683.999 234.003 655.332 234.003 611.999 c 0
 234.003 515.999 232.336 456.332 229.003 432.999 c 0
 223.003 394.999 212.003 365.332 196.003 343.999 c 0
 180.003 322.666 155.003 303.999 121.003 287.999 c 1
 169.003 267.999 201.336 234.666 218.003 187.999 c 0
 229.336 155.332 234.669 106.999 234.002 42.999 c 0
 234.002 -28.334 235.002 -70.001 237.002 -82.001 c 0
 240.335 -110.001 249.668 -128.668 265.001 -138.001 c 0
 277.668 -145.334 298.668 -149.001 328.001 -149.001 c 2
 346.001 -149.001 l 1
 346.001 -233.001 l 1
 314.001 -233.001 l 2
 279.334 -233.001 254.001 -230.668 238.001 -226.001 c 1
 189.334 -208.001 160.001 -170.668 150.001 -114.001 c 1
 148.001 -96.668 146.834 -59.168 146.501 -1.50098 c 0
 146.168 56.166 144.001 99.333 140.001 128 c 0
 133.334 172.667 119.667 203.667 99 221 c 0
 81 235 58.333 242.333 31 243 c 1
 31 332 l 1
EndSplineSet
Validated: 33
EndChar

StartChar: bar
Encoding: 124 124 93
Width: 531
Flags: MW
HStem: 1 69 478 77
LayerCount: 2
Fore
SplineSet
416 1 m 1
 403.001 0.99707 l 2
 288.334 0.99707 217.667 47.3301 191 139.997 c 0
 163.667 236.664 147 317.331 141 381.998 c 0
 135 445.331 98.667 477.331 32 477.998 c 2
 27 477.998 l 1
 9 491.331 0 504.331 0 516.998 c 0
 0 529.667 9 542.334 27 554.999 c 1
 39 554.999 l 2
 134.333 554.999 191.333 512.666 210 427.999 c 0
 230 339.999 246.167 259.999 258.5 187.999 c 0
 270.833 115.999 323.333 76.666 416 69.999 c 1
 434 57.999 443 46.332 443 34.999 c 0
 443 23.666 434 12.333 416 1 c 1
EndSplineSet
EndChar

StartChar: braceright
Encoding: 125 125 94
Width: 403
Flags: MW
HStem: -233 84<24.999 41.999 41.999 55.999 24.999 41.999> 243 89<339.999 340> 723 86
VStem: 136 90
LayerCount: 2
Fore
SplineSet
340 332 m 1
 339.999 243 l 1
 283.999 241.667 249.666 214.667 236.999 162 c 0
 230.332 134 226.999 93.333 226.999 40 c 0
 226.999 -25.333 226.332 -67 224.999 -85 c 0
 216.999 -163 183.332 -210.667 123.999 -228 c 0
 109.999 -232 87.332 -233.667 55.999 -233 c 2
 24.999 -233 l 1
 24.999 -149 l 1
 41.999 -149 l 2
 81.999 -149 108.332 -140 120.999 -122 c 0
 130.999 -108.667 135.999 -80.334 135.999 -37.001 c 0
 135.999 54.332 137.332 111.999 139.999 135.999 c 0
 151.332 211.332 187.665 261.999 248.998 287.999 c 1
 200.998 311.333 168.665 344.666 151.998 387.999 c 0
 140.664 419.332 135.331 467.332 135.998 531.999 c 0
 135.998 599.999 134.998 642.332 132.998 658.999 c 0
 129.665 686.999 120.332 704.999 104.999 712.999 c 0
 92.999 719.666 71.999 722.999 41.999 722.999 c 2
 24.999 722.999 l 1
 24.999 808.999 l 1
 55.999 808.999 l 2
 90.666 808.999 116.333 805.999 133 799.999 c 0
 181.667 783.332 210.667 746.332 220 688.999 c 0
 224 665.666 226 627.999 226 575.999 c 2
 226 550.999 l 2
 226 490.999 229.667 445.332 237 413.999 c 0
 249.667 360.666 284 333.333 340 332 c 1
EndSplineSet
Validated: 33
EndChar

StartChar: asciitilde
Encoding: 126 126 95
Width: 597
Flags: MW
HStem: 228 89 369 87
VStem: 465 93
LayerCount: 2
Fore
SplineSet
228 456 m 0
 256 456 281.667 444.334 305 421.001 c 1
 359 356.001 l 1
 380.334 332.001 402.667 319.001 426 317.001 c 1
 427 317.001 l 2
 440.333 317.001 453 336.668 465 376.001 c 0
 477.667 416.001 494 436.001 514 436.001 c 0
 526.667 436.001 537.167 432.001 545.5 424.001 c 0
 553.833 416.001 558 406.001 558 394.001 c 2
 558 392.001 l 2
 558 350.001 545 312.334 519 279.001 c 0
 492.333 245.001 460.833 228.001 424.5 228.001 c 0
 388.167 228.001 355 240.334 325 265.001 c 0
 308.333 279.001 288.333 301.668 265 333.001 c 0
 247 357.668 234.667 369.668 228 369.001 c 0
 200 369.001 168 338.334 132 277.001 c 0
 122.667 260.334 110 252.001 94 252.001 c 0
 82 252.002 71.5 256.169 62.5 264.501 c 0
 53.5 272.835 49 282.668 49 294 c 0
 49 300 50.667 307 54 315 c 0
 71.333 353 94.333 385 123 411 c 0
 156.333 441 191.333 456 228 456 c 0
EndSplineSet
Validated: 33
EndChar

StartChar: uni0081
Encoding: 129 129 96
Width: 815
Flags: MW
HStem: 472.9 82.9996
VStem: 0 82.6
LayerCount: 2
Fore
SplineSet
40.5996 552.9 m 1
 69.2305 562.446 83.2305 555.446 82.5996 531.9 c 0
 78.8662 214.567 202.666 64.9004 453.999 82.9004 c 1
 555.999 98.9004 l 1
 603.999 116.9 l 1
 640.999 144.9 l 1
 690.999 210.9 l 1
 713.999 262.9 l 1
 721.999 307.9 l 1
 707.999 359.9 l 1
 679.999 403.9 l 1
 629.999 441.9 l 1
 535.999 463.9 l 1
 454.999 472.9 l 1
 435.246 480.412 425.246 494.412 424.999 514.9 c 0
 424.668 542.396 434.335 556.063 454 555.9 c 0
 558.495 555.039 630.495 540.706 670 512.9 c 0
 770.667 442.233 813 365.566 797 282.899 c 0
 763.461 104.915 649.128 10.6152 454 0 c 0
 157.333 -15.4004 6 162.233 0 532.9 c 1
 40.5996 552.9 l 1
EndSplineSet
Validated: 33
EndChar

StartChar: uni0082
Encoding: 130 130 97
Width: 936
Flags: MW
HStem: 0 72.2998 473.509 84
LayerCount: 2
Fore
SplineSet
64.4004 557.509 m 1
 111.669 552.662 135.551 550.202 172.4 541.511 c 0
 202.197 534.481 221.425 513.405 246.399 501.511 c 0
 291.235 480.154 300.813 469.908 332.971 427.51 c 0
 363.376 387.421 388.934 336.39 411.198 271.51 c 0
 424.812 231.839 437.193 186.991 448.699 136.301 c 1
 482.699 82.3008 535.096 72.3008 578.699 72.3008 c 0
 620.699 72.3008 600.835 68.3271 612.699 74.3008 c 1
 657.03 76.9082 679.406 98.1699 714.399 125.51 c 0
 742.433 147.411 766.138 162.192 770.399 197.511 c 0
 773.242 221.062 744.779 224.351 728.399 241.511 c 1
 681.065 244.887 664.399 231.511 598.399 231.511 c 1
 541.761 295.097 595.396 295.699 580.699 304.301 c 1
 666.699 350.301 740.699 394.301 780.699 474.301 c 0
 794.739 500.821 791.223 526.448 816.699 542.301 c 0
 835.018 553.698 869.354 551.832 870.699 530.301 c 0
 872.699 498.301 862.159 474.181 856.699 438.301 c 1
 827.95 376.908 792.021 345.023 716.399 297.511 c 1
 791.416 287.988 842.19 241.964 846.399 183.51 c 1
 832.399 137.51 823.366 120.862 790.699 98.2998 c 0
 716.292 46.9102 671.128 0 580.699 0 c 2
 504.699 0 l 1
 422.699 38.2998 l 2
 356.892 68.0732 357.129 164.837 331.015 259.509 c 0
 320.588 297.308 305.961 334.772 281.253 367.509 c 0
 251.501 406.926 207.133 439.483 137.882 457.509 c 0
 106.808 465.597 96.4229 471.967 54.4004 473.509 c 1
 13.125 477.469 38.541 577.849 64.4004 557.509 c 1
EndSplineSet
Validated: 33
EndChar

StartChar: uni0090
Encoding: 144 144 98
Width: 534
Flags: MW
HStem: 0 85<345.332 419.998 309.998 420.998> 532 20G<313.332 327.666> 532 20G<313.332 327.666>
VStem: 1 76
LayerCount: 2
Fore
SplineSet
259 527 m 1xd0
 285.667 543.667 306.165 552 320.498 552 c 0
 334.833 552 343.666 543.667 346.998 527 c 1
 166.998 315.667 76.998 192 76.998 156 c 2
 76.998 154 l 1
 79.665 120 95.665 99.667 124.998 93 c 0
 146.998 87.667 208.665 85 309.998 85 c 2
 419.998 85 l 1
 436.665 73 444.998 60 444.998 46 c 0
 444.998 32 436.998 16.667 420.998 0 c 1
 269.665 0 165.332 3.5 107.999 10.5 c 0
 50.666 17.5 16.333 49.667 5 107 c 0
 2.33301 119.667 1 132 1 144 c 0
 1 188 17.333 232 50 276 c 0
 92 331.333 161.667 415 259 527 c 1xd0
EndSplineSet
Validated: 1
EndChar

StartChar: uni0091
Encoding: 145 145 99
Width: 531
Flags: MW
HStem: 1 69 478 77
LayerCount: 2
Fore
SplineSet
416 1 m 1
 403.001 0.99707 l 2
 288.334 0.99707 217.667 47.3301 191 139.997 c 0
 163.667 236.664 147 317.331 141 381.998 c 0
 135 445.331 98.667 477.331 32 477.998 c 2
 27 477.998 l 1
 9 491.331 0 504.331 0 516.998 c 0
 0 529.667 9 542.334 27 554.999 c 1
 39 554.999 l 2
 134.333 554.999 191.333 512.666 210 427.999 c 0
 230 339.999 246.167 259.999 258.5 187.999 c 0
 270.833 115.999 323.333 76.666 416 69.999 c 1
 434 57.999 443 46.332 443 34.999 c 0
 443 23.666 434 12.333 416 1 c 1
EndSplineSet
Validated: 1
EndChar

StartChar: uni0092
Encoding: 146 146 100
Width: 799
Flags: MW
HStem: 1 66 476 80
VStem: 0 83 630 81
LayerCount: 2
Fore
SplineSet
83 28 m 1
 69 9.33301 55.001 -0.00195312 41.001 -0.00195312 c 0
 37.668 -0.00195312 34.668 0.331055 32.001 0.998047 c 0
 24.668 2.33105 18.001 6.66406 12.001 13.9971 c 0
 8.00098 17.9971 4.00098 22.6641 0.000976562 27.9971 c 1
 0.000976562 527.997 l 1
 13.334 545.33 27.001 553.83 41.001 553.497 c 0
 55.001 553.164 69.001 544.664 83.001 527.997 c 1
 83.001 313.997 l 1
 92.334 331.33 102.667 347.997 114 363.997 c 0
 178 461.33 260 523.997 360 551.997 c 0
 371.334 554.664 384.667 555.997 400 555.997 c 0
 412.667 555.997 426.667 554.997 442 552.997 c 1
 509.333 549.664 572.666 523.997 631.999 475.997 c 1
 684.666 420.664 710.999 352.331 710.999 270.998 c 0
 710.999 199.665 687.999 139.332 641.999 89.999 c 1
 601.999 30.666 518.999 0.999023 392.999 0.999023 c 2
 388.999 0.999023 l 1
 372.999 11.666 364.999 22.666 364.999 33.999 c 0
 364.999 44.666 372.666 55.666 387.999 66.999 c 1
 392.999 66.999 l 2
 460.999 66.999 515.666 85.666 556.999 122.999 c 0
 599.666 161.666 622.999 195.999 626.999 225.999 c 0
 628.999 240.666 629.999 255.666 629.999 270.999 c 0
 629.999 286.332 628.999 301.332 626.999 315.999 c 0
 622.999 345.999 601.666 377.332 562.999 409.999 c 0
 524.332 442.666 489.999 462.999 459.999 470.999 c 0
 446.666 474.332 432.333 475.999 417 475.999 c 0
 396.333 475.999 373 472.999 347 466.999 c 0
 301 456.999 253 421.332 203 359.999 c 1
 135 240.666 95 138.333 83 53 c 1
 83 28 l 1
EndSplineSet
Validated: 33
EndChar

StartChar: uni0093
Encoding: 147 147 101
Width: 549
Flags: MW
HStem: 1 73<416 416> 483 69
VStem: 37 73 288 73
LayerCount: 2
Fore
SplineSet
-12 72 m 1
 53.333 75.333 97.332 87.666 119.999 108.999 c 1
 71.999 162.999 44.666 224.332 37.999 292.999 c 0
 36.666 305.666 36.333 317.999 37 329.999 c 0
 37 383.332 48.333 432.332 71 476.999 c 0
 97 526.999 138.333 551.999 195 551.999 c 2
 208 551.999 l 1
 271.333 547.999 314.666 517.332 337.999 459.999 c 0
 353.332 422.666 360.999 383.999 360.999 343.999 c 0
 360.999 322.666 358.999 301.333 354.999 280 c 0
 342.332 216.667 317.332 162 279.999 116 c 1
 292.666 88 334.666 74 405.999 74 c 2
 415.999 74 l 1
 426.666 62 431.833 50 431.5 38 c 0
 431.167 26 426 13.667 416 1 c 1
 336.667 8.33301 267.667 27 209 57 c 1
 139.667 28.333 66 9.33301 -12 0 c 1
 -24 12.667 -30 25 -30 37 c 0
 -30 49 -24 60.667 -12 72 c 1
150.999 183 m 0
 168.999 157.667 186.332 144.998 202.999 144.998 c 0
 218.332 144.998 233.332 155.331 247.999 175.998 c 0
 275.333 215.331 288.666 260.998 287.999 312.998 c 2
 287.999 332.998 l 1
 283.999 393.665 268.999 436.998 242.999 462.998 c 0
 230.332 475.665 217.665 482.332 204.998 482.999 c 0
 191.665 482.999 177.998 475.666 163.998 460.999 c 0
 136.665 432.999 119.332 391.666 111.999 336.999 c 0
 110.666 326.999 109.999 316.999 109.999 306.999 c 0
 109.999 263.666 123.666 222.333 150.999 183 c 0
EndSplineSet
Validated: 33
EndChar

StartChar: uni0094
Encoding: 148 148 102
Width: 593
Flags: MW
HStem: -387 53 -19 20G 533 20G<181 181> 533 20G<181 181>
VStem: 2 73<-205.335 -193> 450 55
LayerCount: 2
Fore
SplineSet
181 553 m 1xec
 233 459.997 l 1
 142.333 135.33 92 -58.0029 82 -120.003 c 0
 77.333 -145.336 75 -168.669 75 -190.002 c 0
 75 -220.669 79.667 -246.669 89 -268.002 c 0
 104.333 -304.669 132 -326.002 172 -332.002 c 0
 180 -333.335 187.667 -334.002 195 -334.002 c 0
 227.667 -334.002 262.334 -324.002 299.001 -304.002 c 0
 344.335 -279.335 394.668 -177.668 450.001 0.999023 c 1
 505.001 0.999023 l 1
 426.334 -234.334 353.667 -360.001 287.001 -376.001 c 0
 255.668 -383.334 227.001 -387.001 201.001 -387.001 c 0
 171.001 -387.001 144.334 -382.001 121.001 -372.001 c 0
 78.334 -353.334 46.667 -327.001 26 -293.001 c 0
 10 -266.334 2 -234.667 2 -198 c 0
 2 -188 2.66699 -177.667 4 -167 c 0
 9.33301 -117.667 68.333 122.333 181 553 c 1xec
EndSplineSet
Validated: 1
EndChar

StartChar: uni0095
Encoding: 149 149 103
Width: 533
Flags: MW
HStem: 473 84<352.666 420.999 420.999 430.999> 534 20G<42.6655 56.3325>
VStem: 9 83
LayerCount: 2
Fore
SplineSet
92 528 m 1x60
 91.999 389 l 1
 161.332 501 274.332 557 430.999 557 c 1
 445.666 545 452.999 532 452.999 518 c 0
 452.999 504 445.666 489 430.999 473 c 1
 420.999 473 l 2xa0
 204.999 473 95.332 330.667 91.999 46 c 1
 91.999 28 l 1
 91.999 23 l 1
 84.666 15 77.333 9.33301 70 6 c 1
 63.333 1.33301 56.666 -0.666992 49.999 0 c 1
 25.999 9 l 1
 19.999 12.333 14.332 17 8.99902 23 c 1
 8.99902 28 l 1
 8.99902 528 l 1
 22.332 545.333 35.832 554 49.499 554 c 0
 63.166 554 77.333 545.333 92 528 c 1x60
EndSplineSet
Validated: 1
EndChar

StartChar: uni0096
Encoding: 150 150 104
Width: 366
Flags: MW
VStem: 56 97
LayerCount: 2
Fore
SplineSet
340 739 m 0
 340 727.667 330 711.002 310 689.002 c 1
 265 644.002 l 1
 229 602.669 200.667 544.002 180 468.002 c 0
 162 401.335 153 336.002 153 272.002 c 0
 153 106.669 190.667 -14.3311 266 -90.998 c 1
 280.667 -102.998 295.667 -114.665 311 -125.998 c 0
 329.667 -140.665 339 -155.665 339 -170.998 c 0
 339 -181.665 334.833 -190.998 326.5 -198.998 c 0
 318.167 -206.998 308.334 -210.998 297.001 -210.998 c 0
 287.001 -210.998 275.334 -207.331 262.001 -199.998 c 0
 124.001 -122.665 55.334 38.668 56.001 284.001 c 0
 56.001 372.001 73.668 461.334 109.001 552.001 c 0
 149.001 652.668 201.001 725.668 265.001 771.001 c 0
 278.335 780.334 288.668 784.667 296 784 c 0
 308 784 318.333 779.5 327 770.5 c 0
 335.667 761.5 340 751 340 739 c 0
EndSplineSet
Validated: 33
EndChar

StartChar: uni0097
Encoding: 151 151 105
Width: 366
Flags: MW
VStem: 242 98
LayerCount: 2
Fore
SplineSet
340 284 m 0
 340 38.667 271.001 -122.667 133.001 -200 c 0
 119.668 -207.333 108.001 -211 98.001 -211 c 0
 86.668 -211 76.835 -207 68.502 -199 c 0
 60.1689 -191 56.002 -181.667 56.002 -171 c 0
 56.002 -156.333 65.335 -141.333 84.002 -126 c 0
 98.6689 -114 114.002 -102.333 130.002 -91 c 1
 204.669 -13.667 242.002 107.333 242.002 272 c 0
 242.002 336 233.002 401.333 215.002 468 c 0
 194.335 544 166.002 602.667 130.002 644 c 1
 115.335 658.667 100.668 673.667 86.001 689 c 0
 66.001 711 56.001 727.667 56.001 739 c 0
 56.001 751 60.334 761.5 69.001 770.5 c 0
 77.668 779.5 87.668 784 99.001 784 c 0
 106.334 784 116.667 779.667 130 771 c 0
 194.667 725.667 247 652.667 287 552 c 0
 322.333 461.333 340 372 340 284 c 0
EndSplineSet
Validated: 1
EndChar

StartChar: uni0098
Encoding: 152 152 106
Width: 644
Flags: MW
HStem: -139 56<0 556 0 556>
LayerCount: 2
Fore
SplineSet
556 -139 m 1
 0 -139 l 1
 0 -83 l 1
 556 -83 l 1
 556 -139 l 1
EndSplineSet
Validated: 1
EndChar

StartChar: cent
Encoding: 162 162 109
Width: 623
Flags: W
LayerCount: 2
Fore
SplineSet
541 297 m 0
 498.333 190.333 425 136 321 134 c 1
 321 106 l 2
 321 45.333 306 15.333 276 16 c 0
 248.667 16 235 30.333 235 59 c 0
 235 87 235.667 116.667 237 148 c 1
 168.333 170.667 121 205 95 251 c 0
 72.333 291 61 349.333 61 426 c 0
 61 487.333 80.667 546.333 120 603 c 0
 159.333 659.668 208.333 696.335 267 713 c 1
 266.333 736.333 267 770.667 269 816 c 1
 271.667 838 284 849.333 306 850 c 0
 317.333 850 327.333 845.833 336 837.5 c 0
 344.667 829.164 349 819.33 349 808 c 2
 348 721 l 1
 384 717.667 417 706.667 447 688 c 1
 457 709.333 474 720 498 720 c 0
 518.667 720 529 709.333 529 688 c 0
 529 670.665 524 646.332 514 615 c 0
 502 579 489.667 561 477 561 c 0
 471.667 561 464.333 565 455 573 c 0
 429.667 595.667 413.333 609.667 406 615 c 0
 387.333 628.333 367.333 636.333 346 639 c 1
 344.667 583 341.333 512.333 336 427 c 2
 322 216 l 1
 361.334 217.333 391.667 229.333 413 252 c 1
 467 331 l 2
 478.333 346.333 490 354 502 354 c 0
 513.333 354 523.167 350.333 531.5 343 c 0
 539.833 335.667 544 326.333 544 315 c 0
 544 309 543 303 541 297 c 0
142 426 m 0
 142 370 147 330.667 157 308 c 0
 170.333 278 198.333 253.333 241 234 c 1
 265 625 l 1
 230.333 608.333 201.167 580.667 177.5 542 c 0
 153.833 503.333 142 464.666 142 426 c 0
EndSplineSet
Validated: 33
EndChar

StartChar: sterling
Encoding: 163 163 110
Width: 793
Flags: MW
HStem: -73 87 -16 87 347 88<66 114> 360 87<335.999 358.332 335.665 358.333> 702 84<430.996 442.33>
VStem: 148 87 192 87
LayerCount: 2
Fore
SplineSet
114 435 m 2x6a
 148.997 435.001 l 1
 148.33 444.334 147.997 453.334 147.997 462.001 c 0x6c
 147.997 551.334 170.997 626.001 216.997 686.001 c 0
 268.33 753.334 339.663 786.667 430.996 786 c 0
 483.663 786 531.33 774.667 573.997 752 c 0
 626.664 724.667 652.997 687.667 652.997 641 c 0
 652.997 629 648.33 619 638.997 611 c 0
 629.664 603 618.997 599 606.997 599 c 0
 590.33 599 577.33 608.667 567.997 628 c 0
 553.33 656.667 533.997 676.667 509.997 688 c 0
 489.33 697.333 460.663 702 423.997 702 c 0
 361.33 702 312.997 677 278.997 627 c 0x6a
 249.664 583.667 234.997 528.667 234.997 462 c 0x6c
 234.997 455.333 235.33 448.333 235.997 441 c 1
 284.664 445 322.331 447 348.998 447 c 0
 367.665 447 395.832 446 433.499 444 c 0
 471.166 442 499.666 441 518.999 441 c 0
 531.666 441 541.999 437 549.999 429 c 0
 557.999 421 561.999 410.667 561.999 398 c 0
 561.999 385.333 557.999 374.833 549.999 366.5 c 0
 541.999 358.167 531.666 354 518.999 354 c 0
 500.332 354 471.999 355 433.999 357 c 0
 395.999 359 367.666 360 348.999 360 c 0
 322.999 360 289.999 358.333 249.999 355 c 1
 269.999 268.333 279.666 211.333 278.999 184 c 0
 278.999 143.333 272.666 105.666 259.999 70.999 c 1
 272.999 70.999 l 1
 275.999 70.999 l 2x5a
 306.666 70.999 343.666 61.666 386.999 42.999 c 0
 430.999 23.666 468.666 13.999 499.999 13.999 c 0
 555.332 13.999 591.665 25.332 608.998 47.999 c 0
 614.998 55.999 620.998 76.999 626.998 110.999 c 0
 630.998 134.332 644.665 145.999 667.998 145.999 c 0
 697.331 145.999 711.998 130.332 711.998 98.999 c 0
 711.998 81.666 708.665 62.333 701.998 41 c 0
 677.331 -35 609.998 -73 499.998 -73 c 0x8a
 467.998 -73 429.331 -63.5 383.998 -44.5 c 0
 338.665 -25.5 300.332 -16 268.999 -16 c 0
 245.665 -16 219.832 -22.833 191.499 -36.5 c 0
 163.166 -50.167 146.666 -57 141.999 -57 c 0
 130.666 -57 120.833 -52.667 112.5 -44 c 0
 104.167 -35.333 100 -25.333 100 -14 c 0
 100 -4 108 9.33301 124 26 c 0
 145.333 48 160 66.667 168 82 c 0
 184 110.667 192 144.667 192 184 c 0
 192 212.667 182.667 267.667 164 349 c 1
 140 347.667 115.333 347 90 347 c 0
 42 347 18 362.333 18 393 c 0
 18 405.667 22 416.167 30 424.5 c 0
 38 432.833 48.333 437 61 437 c 0
 67 437 75.833 436.667 87.5 436 c 0
 99.167 435.333 108 435 114 435 c 2x6a
EndSplineSet
Validated: 33
EndChar

StartChar: degree
Encoding: 176 176 119
Width: 409
Flags: MW
HStem: 476 72<193.002 206.668 193.002 216.667> 748 72<189.668 217.002>
VStem: 33 73 301 73
LayerCount: 2
Fore
SplineSet
202 820 m 0
 252.667 820 294.001 803 326.001 769 c 0
 358.001 735 374.001 692 374.001 640 c 0
 374.001 594 355.334 554.667 318.001 522 c 0
 282.001 491.333 240.334 476 193.001 476 c 0
 143.001 476 103.334 493.667 74.001 529 c 0
 46.668 561.667 33.001 602.667 33.001 652 c 0
 33.001 700.668 50.001 741.335 84.001 774 c 0
 117.334 804.667 156.667 820 202 820 c 0
106.001 652 m 0
 106.001 624 113.002 600.667 127.002 582 c 0
 143.002 560 165.002 548.667 193.002 548 c 0
 220.335 548 245.002 556.667 267.002 574 c 0
 290.336 592 301.669 614 301.002 640 c 0
 301.002 672 292.002 698 274.002 718 c 0
 256.002 738 232.002 748 202.002 748 c 0
 177.335 748 155.668 739 137.001 721 c 0
 116.334 702.333 106.001 679.333 106.001 652 c 0
EndSplineSet
Validated: 33
EndChar

StartChar: mu
Encoding: 181 181 124
AltUni2: 0003bc.ffffffff.0
Width: 469
Flags: MW
HStem: -443 77 -218 114 521 20G
VStem: 49 76 168 90 328 73
LayerCount: 2
Fore
SplineSet
211.998 -106.32 m 0
 239.795 -105.891 263.208 -128.112 263.208 -155.922 c 0
 263.208 -186.139 242.201 -213.581 211.999 -214.05 c 0
 182.887 -214.502 163.268 -186.598 163.268 -157.472 c 0
 163.268 -129.914 184.454 -106.748 211.998 -106.32 c 0
79.001 69 m 1
 90.334 106.333 105.002 144.662 123.002 183.995 c 0
 181.669 310.662 256.002 424.329 346.002 524.996 c 1
 360.002 535.663 372.335 540.996 383.002 540.996 c 0
 399.669 540.996 413.002 528.329 423.002 502.996 c 1
 337.669 388.329 279.669 306.662 249.002 257.996 c 0
 221.669 215.329 193.002 146.996 163.002 52.9961 c 1
 251.669 33.6631 313.669 -4.66992 349.002 -62.0029 c 0
 383.669 -117.336 401.002 -174.669 401.002 -234.002 c 0
 401.002 -244.669 400.335 -255.336 399.002 -266.003 c 0
 391.669 -336.003 373.336 -388.003 344.003 -422.003 c 0
 331.336 -436.67 314.003 -443.67 292.003 -443.003 c 0
 263.336 -443.003 226.669 -430.336 182.002 -405.003 c 0
 103.335 -360.336 59.668 -282.669 51.001 -172.002 c 0
 49.668 -156.669 49.001 -141.002 49.001 -125.002 c 0
 49.001 -84.335 53.334 -42.668 62.001 -0.000976562 c 1
 57.334 0.666016 52.334 1.33301 47.001 2 c 1
 44.334 10.667 43.001 18.667 43.001 26 c 0
 43.001 44.667 51.334 59.667 68.001 71 c 1
 79.001 69 l 1
141.002 -16.0039 m 1
 130.335 -56.0039 125.003 -93.335 125.003 -128.002 c 0
 125.003 -191.335 143.003 -245.335 179.003 -290.002 c 0
 220.336 -341.335 252.669 -366.668 276.002 -366.001 c 0
 286.002 -366.001 294.335 -361.334 301.002 -352.001 c 0
 319.002 -328.001 328.002 -296.001 328.002 -256.001 c 0
 328.002 -244.668 327.002 -232.335 325.002 -219.002 c 0
 318.335 -161.669 301.335 -115.336 274.002 -80.0029 c 0
 254.002 -54.6699 209.669 -33.3369 141.002 -16.0039 c 1
EndSplineSet
Validated: 33
EndChar

StartChar: onequarter
Encoding: 188 188 131
Width: 876
Flags: W
HStem: -16 37G<195.333 204.667 734.667 743.667> 126 54<548.148 700 769 834.075> 613 61<59.189 120.347>
VStem: 116 77<290.992 572.468 590.034 624.741> 123 81<430.19 625.687> 153 78<-6.7168 48.0406> 575 80<650.797 703.717> 700 70<18.6885 124> 707 62<185 357.504>
LayerCount: 2
Fore
SplineSet
769 124 m 1xe280
 769 102.667 769.333 81 770 59 c 1
 770 50 l 2
 770 32.6667 767.5 20 762.5 12 c 0
 757.5 4 749.333 0 738 0 c 0
 731.333 4.76837e-07 723.333 1.33333 714 4 c 0
 704.667 6.66667 693 11.3333 679 18 c 1
 685.668 32.6667 690.835 48.6667 694.5 66 c 0
 698.167 83.3333 700 103 700 125 c 1xe3
 664.667 125 627.667 125.333 589 126 c 1
 573 126 l 2
 555.662 126 542.329 125.5 533 124.5 c 0
 523.663 123.5 514.329 122 505 120 c 1
 496.33 128.667 490.163 136.5 486.5 143.5 c 0
 482.833 150.5 481 158 481 166 c 0
 481 184.667 507 220.667 559 274 c 0
 575.667 291.333 588.667 305.333 598 316 c 0
 610 328.667 626 346 646 368 c 0
 696.667 424.667 731.667 453 751 453 c 0
 760.333 453 767.167 450 771.5 444 c 0
 775.833 438 778 428 778 414 c 0
 778 412 777.667 406 777 396 c 0
 771.667 328 769 257.667 769 185 c 1
 781.673 185 793.339 186.167 804 188.5 c 0
 814.667 190.833 825 194.333 835 199 c 1
 839 191 842.167 183.667 844.5 177 c 0
 846.833 170.333 848 165 848 161 c 0
 848 147.667 843.5 138 834.5 132 c 0
 825.5 126 812 123 794 123 c 0
 790 123 786 123.167 782 123.5 c 0
 778 123.833 773.667 124 769 124 c 1xe280
709 358 m 1
 681 327.333 647.833 291.666 609.5 251 c 0
 571.167 210.333 550.667 187.667 548 183 c 1
 561.333 182.333 573.833 181.667 585.5 181 c 0
 597.167 180.333 608 180 618 180 c 0
 632.667 180 647.167 180.167 661.5 180.5 c 0
 675.833 180.833 691 181.333 707 182 c 1
 707 188 l 1xe280
 708.333 244 709 285.333 709 312 c 2
 709 358 l 1
216 289 m 1
 203.333 283.667 191.667 279.5 181 276.5 c 0
 170.333 273.5 160.667 272 152 272 c 0
 138.666 272 129.333 275.333 124 282 c 0
 118.667 288.667 116 300.667 116 318 c 0xf2
 116 321.333 117.167 351.5 119.5 408.5 c 0
 121.833 465.5 123 521 123 575 c 2
 123 590 l 2
 123 590.667 122.833 595.167 122.5 603.5 c 0
 122.167 611.833 121.667 619.333 121 626 c 1
 107 620.667 97.1667 617.167 91.5 615.5 c 0
 85.8333 613.833 81 613 77 613 c 0
 69 613 63 615.167 59 619.5 c 0
 55 623.833 53 630 53 638 c 0
 53 642.677 53.8333 647.843 55.5 653.5 c 0
 57.1667 659.167 59.6667 666 63 674 c 1
 80.3333 675.333 101.5 680 126.5 688 c 0
 151.5 696 168 700 176 700 c 0
 186 700 193.167 697.333 197.5 692 c 0
 201.833 686.667 204 677.667 204 665 c 0xea
 204 659 202.167 629.667 198.5 577 c 0
 194.833 524.333 193 474.667 193 428 c 0xf2
 193 391.333 194.833 362.5 198.5 341.5 c 0
 202.167 320.5 208 303 216 289 c 1
575 710 m 1
 593 712 l 1
 611 713 l 1
 625 713 635.833 710 643.5 704 c 0
 651.167 698 655 689.667 655 679 c 0
 655 660.333 614 593 532 477 c 0
 504.667 439 483.333 409 468 387 c 0
 387.333 271.667 328.667 183.167 292 121.5 c 0
 255.333 59.8333 235 15 231 -13 c 1
 225 -14.3333 219.667 -15.1666 215 -15.5 c 0
 210.333 -15.8333 206.333 -16 203 -16 c 0
 187.667 -16 175.5 -13 166.5 -7 c 0
 157.5 -1 153 7.66667 153 19 c 0xe6
 153 40.3333 194 108.667 276 224 c 0
 336 308.667 385 378.667 423 434 c 0
 474.333 510 511 568.5 533 609.5 c 0
 555 650.5 569 684 575 710 c 1
EndSplineSet
Validated: 1
EndChar

StartChar: onehalf
Encoding: 189 189 132
Width: 876
Flags: W
HStem: -16 21G<175.333 185> 3 62<589 787.01> 365 65<575.007 704.92> 613 61<53.7043 114.347>
VStem: 109 83.5<291.757 624.741> 117 81<430.192 625.687> 134 78<-6.7168 48.0406> 566.4 69.6<662.102 703.717> 727 77<238.444 345.225>
LayerCount: 2
Fore
SplineSet
196.4 291.1 m 1x3980
 183.733 285.767 185.667 279.5 175 276.5 c 0
 164.333 273.5 154.667 272 146 272 c 0
 132.667 272 123.167 275.5 117.5 282.5 c 0
 111.833 289.5 109 301.333 109 318 c 0x3980
 109 321.333 110.333 351.5 113 408.5 c 0
 115.667 465.5 117 521 117 575 c 2
 117 590 l 2
 117 590.667 116.833 595.167 116.5 603.5 c 0
 116.167 611.833 115.667 619.333 115 626 c 1
 101 620.667 91 617.167 85 615.5 c 0
 79 613.833 74.3333 613 71 613 c 0
 63.6666 613 57.8333 615.167 53.5 619.5 c 0
 49.1667 623.833 47 630 47 638 c 0
 47 642.677 47.6667 647.843 49 653.5 c 0
 50.3333 659.167 53 666 57 674 c 1
 74.3333 675.333 95.3333 680 120 688 c 0
 144.667 696 161.333 700 170 700 c 0
 180 700 187.167 697.333 191.5 692 c 0
 195.833 686.667 198 677.667 198 665 c 0x3580
 198 659 196.167 629.667 192.5 577 c 0
 188.833 524.333 187 474.667 187 428 c 0
 187 391.333 188.833 362.5 192.5 341.5 c 0
 196.167 320.5 188.4 305.1 196.4 291.1 c 1x3980
566.4 707.1 m 5
 574 712 l 1
 592 713 l 1
 606 713 616.833 710 624.5 704 c 0
 632.167 698 636 689.667 636 679 c 0
 636 660.333 595 593 513 477 c 0
 485.667 439 464.333 409 449 387 c 0
 367.667 271.667 308.833 183.167 272.5 121.5 c 0
 236.167 59.8333 216 15 212 -13 c 1
 206.667 -14.3333 201.5 -15.1666 196.5 -15.5 c 0
 191.5 -15.8333 187 -16 183 -16 c 0
 167.667 -16 155.667 -13 147 -7 c 0
 138.333 -1 134 7.66667 134 19 c 0xb380
 134 40.3333 175.667 109.667 259 227 c 0
 318.333 310.333 366.333 379.333 403 434 c 0
 455.667 512.667 493 572 515 612 c 0
 537 652 561.067 681.767 566.4 707.1 c 5
589 65 m 1x7180
 624 65 l 2
 671.333 65 707.167 66.8333 731.5 70.5 c 0
 755.833 74.1667 775.733 67.0996 790.4 75.0996 c 1
 795.067 64.4336 798 68.3333 800 61 c 0
 802 53.6667 803 47 803 41 c 0
 803 26.3333 797.833 15.8333 787.5 9.5 c 0
 777.167 3.16667 758.667 0 732 0 c 0
 710.664 0 683.331 0.5 650 1.5 c 0
 616.667 2.5 594 3 582 3 c 0
 568 3 554.167 2.5 540.5 1.5 c 0
 526.833 0.5 512.667 -0.666667 498 -2 c 1
 493.331 5.33333 490.165 12 488.5 18 c 0
 486.833 24 486 30.3333 486 37 c 0
 486 59.6667 511.667 87.6667 563 121 c 0
 576.333 129.667 586.667 136.334 594 141 c 0
 638.667 170.333 672 198 694 224 c 0
 716 250 727 274.667 727 298 c 0
 727 318 719.333 334.167 704 346.5 c 0
 688.667 358.833 668 365 642 365 c 0
 620 365 601.333 360 586 350 c 0
 570.662 340 555.729 334.433 544.4 313.1 c 1
 531.733 319.767 523.833 317.167 517.5 325.5 c 0
 511.167 333.833 508 342.333 508 351 c 0
 508 373 520.833 391.667 546.5 407 c 0
 572.167 422.333 604.667 430 644 430 c 0
 691.333 430 729.833 418.167 759.5 394.5 c 0
 789.167 370.833 804 340.333 804 303 c 0
 804 266.333 786.667 228.667 752 190 c 0
 717.333 151.333 663 109.667 589 65 c 1x7180
EndSplineSet
Validated: 33
EndChar

StartChar: threequarters
Encoding: 190 190 133
Width: 876
Flags: W
HStem: -16 37G<228.333 238 745.667 754.667> 123 66<780.593 845.59> 126 54<559.198 711 780 845.59> 265 60<44.9759 204.509> 462 54<68.7227 192.5> 640 61<79.4736 213.165>
VStem: 187 78<-6.7168 48.0406> 230 74<548.139 625.873> 237 74<354.519 439.525> 618.4 70.6<659.764 703.717> 711 70<19.7873 124> 718 62<185 357.809>
LayerCount: 2
Fore
SplineSet
720 358 m 1xbc50
 692 327.333 658.833 291.666 620.5 251 c 0
 582.167 210.333 561.667 187.667 559 183 c 1
 572.333 182.333 584.833 181.667 596.5 181 c 0
 608.167 180.333 619 180 629 180 c 0
 643.667 180 658.167 180.167 672.5 180.5 c 0
 686.833 180.833 702 181.333 718 182 c 1
 718 188 l 1
 719.333 244 720 285.333 720 312 c 2
 720 358 l 1xbc50
780 124 m 1
 780 103.333 780.333 82 781 60 c 1
 781 50 l 2
 781 32.6667 778.5 20 773.5 12 c 0
 768.5 4 760.333 0 749 0 c 0
 742.333 4.76837e-07 734.333 1.33333 725 4 c 0
 715.667 6.66667 712.4 12.4336 698.4 19.0996 c 1
 705.733 33.7666 702.667 48.6667 706 66 c 0
 709.333 83.3333 711 103 711 125 c 1
 675.667 125 638.667 125.333 600 126 c 1
 584 126 l 2xbc60
 567.333 126 554.167 125.5 544.5 124.5 c 0
 534.833 123.5 525.333 122 516 120 c 1
 507.332 128.667 501.166 136.5 497.5 143.5 c 0
 493.833 150.5 492 158 492 166 c 0
 492.001 184 517.334 219.333 568 272 c 0
 586 290.667 600 305.333 610 316 c 0
 622.667 329.333 639 347.333 659 370 c 0
 708.333 425.333 742.667 453 762 453 c 0
 771.333 453 778.167 450 782.5 444 c 0
 786.833 438 789 428 789 414 c 0
 789 412.667 788.667 406.667 788 396 c 0
 782.667 328.667 780 258.333 780 185 c 1
 792.667 185.667 804.334 187 815 189 c 0
 825.667 191 838.4 184.433 848.4 189.1 c 1
 852.4 181.1 853.167 183.667 855.5 177 c 0
 857.833 170.333 859 165 859 161 c 0
 859 147.667 854.667 138 846 132 c 0
 837.333 126 824 123 806 123 c 0xdc50
 801.333 123 797 123.167 793 123.5 c 0
 789 123.833 784.667 124 780 124 c 1
618.4 701.1 m 1
 623.733 701.788 620.167 711.355 626.5 712 c 0
 632.833 712.667 639 713 645 713 c 0
 659 713 669.833 710 677.5 704 c 0
 685.167 698 689 689.667 689 679 c 0
 689 660.333 648 593 566 477 c 0
 538.666 439 517.332 409 502 387 c 0
 420.667 271.667 361.833 183.167 325.5 121.5 c 0
 289.167 59.8333 269 15 265 -13 c 1
 259.667 -14.3333 254.5 -15.1666 249.5 -15.5 c 0
 244.5 -15.8333 240 -16 236 -16 c 0
 220.667 -16 208.667 -13 200 -7 c 0
 191.333 -1 187 7.66667 187 19 c 0x9e40
 187 40.3333 228.667 109.667 312 227 c 0
 371.333 310.333 419.333 379.333 456 434 c 0
 508.667 512.667 545.833 572 567.5 612 c 0
 589.167 652 612.4 675.767 618.4 701.1 c 1
211 496 m 1
 243 491.333 267.667 480.5 285 463.5 c 0
 302.333 446.5 311 425 311 399 c 0
 311 361.667 290.833 330 250.5 304 c 0
 210.167 278 160.333 265 101 265 c 0
 73.6667 265 53.5 268.167 40.5 274.5 c 0
 27.5 280.834 21 290.668 21 304 c 0
 21 310 23 316.667 27 324 c 0
 31 331.335 39.7334 331.768 48.4004 341.1 c 1
 57.7334 333.1 66.1667 335 78.5 331 c 0
 90.8334 327 104.667 325 120 325 c 0
 154.667 325 182.833 332 204.5 346 c 0
 226.167 360 237 377.667 237 399 c 0x9cc0
 237 415 230.5 428.333 217.5 439 c 0
 204.5 449.667 185.667 456.333 161 459 c 0
 151 460.333 137.667 461.333 121 462 c 0
 85 464 67 472.333 67 487 c 0
 67 501 83.3334 510.667 116 516 c 0
 136.667 519.333 153 523 165 527 c 0
 185.667 533 201.667 541.333 213 552 c 0
 224.333 562.667 230 574.667 230 588 c 0
 230 604 223 616.667 209 626 c 0
 195 635.333 175.667 640 151 640 c 0
 135 640 119.667 637.333 105 632 c 0
 90.3333 626.667 78.3333 619 69 609 c 1
 59 615 51.5 621 46.5 627 c 0
 41.5 633 39 639.333 39 646 c 0
 39 661.333 49.8333 674.333 71.5 685 c 0
 93.1667 695.667 120.667 701 154 701 c 0
 198.667 701 234.833 691.333 262.5 672 c 0
 290.167 652.667 304 627.333 304 596 c 0x9d40
 304 574 296.167 554.5 280.5 537.5 c 0
 264.833 520.5 241.667 506.667 211 496 c 1
EndSplineSet
Validated: 33
EndChar

StartChar: Ntilde
Encoding: 209 209 149
Width: 801
Flags: MW
HStem: -17 179<119.667 142.333 118 144 388.667 412.333 658.667 682>
VStem: 44 175<61.6665 86.3335> 314 174<61.6665 86.3335> 583 175<61.6665 86.3335>
CounterMasks: 1 70
LayerCount: 2
Fore
SplineSet
758 74 m 0
 758 48.667 749.5 27.167 732.5 9.5 c 0
 715.5 -8.16699 695 -17 671 -17 c 0
 646.333 -17 625.5 -8 608.5 10 c 0
 591.5 28 583 49.333 583 74 c 0
 583 98.667 591.5 119.5 608.5 136.5 c 0
 625.5 153.5 646 162 670 162 c 0
 694 162 714.667 153.5 732 136.5 c 0
 749.333 119.5 758 98.667 758 74 c 0
488 74 m 0
 488 48.667 479.5 27.167 462.5 9.5 c 0
 445.5 -8.16699 425 -17 401 -17 c 0
 376.333 -17 355.666 -8 339 10 c 0
 322.333 28 314 49.333 314 74 c 0
 314 98.667 322.333 119.5 339 136.5 c 0
 355.667 153.5 376 162 400 162 c 0
 424.667 162 445.5 153.5 462.5 136.5 c 0
 479.5 119.5 488 98.667 488 74 c 0
219 74 m 0
 219 48.667 210.5 27.167 193.5 9.5 c 0
 176.5 -8.16699 156 -17 132 -17 c 0
 107.333 -17 86.5 -8 69.5 10 c 0
 52.5 28 44 49.333 44 74 c 0
 44 98.667 52.333 119.5 69 136.5 c 0
 85.667 153.5 106 162 130 162 c 0
 154.667 162 175.667 153.5 193 136.5 c 0
 210.333 119.5 219 98.667 219 74 c 0
EndSplineSet
Validated: 1
EndChar

StartChar: Udieresis
Encoding: 220 220 159
Width: 340
Flags: MW
VStem: 60 250<78 273>
LayerCount: 2
Fore
SplineSet
310 78 m 1
 309 25 l 1
 60 273 l 1
 312 520 l 1
 310 470 l 1
 182 273 l 1
 310 78 l 1
EndSplineSet
Validated: 1
EndChar

StartChar: agrave
Encoding: 224 224 163
Width: 640
Flags: MW
HStem: 1 21G<441 512> 533 20G 533 20G
VStem: 132 81<148.667 157>
LayerCount: 2
Fore
SplineSet
213 300 m 1xb0
 115.667 314 44.666 398.336 -0.000976562 553.002 c 1
 88.666 407.668 209.333 335.001 362 335.001 c 2
 374 335.001 l 1
 266.667 251.001 213 191.001 213 155.001 c 0
 213 142.334 219.667 132.334 233 125.001 c 0
 284.333 98.334 359 80.667 457 72 c 1
 552 2 l 1
 536 1.33301 520 1 504 1 c 0
 378 1 275 23.333 195 68 c 0
 153 91.333 132 121 132 157 c 0
 131.333 197 158.333 244.667 213 300 c 1xb0
EndSplineSet
Validated: 33
EndChar

StartChar: aacute
Encoding: 225 225 164
Width: 340
Flags: MW
VStem: 61 250<78 273 273 470>
LayerCount: 2
Fore
SplineSet
61 78 m 1
 189 273 l 1
 61 470 l 1
 59 520 l 1
 311 273 l 1
 62 25 l 1
 61 78 l 1
EndSplineSet
Validated: 1
EndChar

StartChar: acircumflex
Encoding: 226 226 165
Width: 758
Flags: HMW
HStem: -1 54<212 218 212 236.333> 514 41<248 248> 515 44<322 333.001>
VStem: -78 79<247.333 270> 248 74<514 515> 536 57
LayerCount: 2
Fore
SplineSet
244.4 73.2998 m 1xdc
 248.4 487.3 l 1
 222.4 485.959 197.733 487.292 174.4 483.3 c 0
 134.4 476.633 98.4004 458.633 60.4004 409.3 c 0
 23.0674 360.633 1 322.666 1 269.999 c 0
 1 224.666 22.4004 196.633 56.4004 141.3 c 1
 93.0674 97.9668 134.4 69.9668 204.4 69.2998 c 0
 216.4 69.2998 231.733 71.9668 244.4 73.2998 c 1xdc
-78 270 m 1
 -72 352.667 -41.998 421 12.002 475 c 1
 71.335 523 134.668 548.667 202.001 552 c 1
 220.001 554 235.334 555 248.001 555 c 1xdc
 244.4 905.3 l 1
 272.4 937.3 l 1
 323.001 945 l 1
 322.001 559 l 1
 333.001 559 l 2
 397.001 559 457.733 545.3 520.4 501.3 c 0
 567.067 468.633 604.4 396.633 604.4 295.3 c 0
 604.4 217.3 583.733 131.3 556.4 13.2998 c 1
 512.4 -2 l 0
 478.4 17.2998 l 1
 524.4 127.3 530.4 203.3 530.4 283.3 c 0
 530.4 295.967 526.132 321.817 522.4 333.3 c 0
 496.4 413.3 495.067 449.967 448.4 471.3 c 0
 406.4 490.633 366 513 322 515 c 1xbc
 321 1 l 1
 255 0 l 2
 255 -0.666992 245.667 -1 227 -1 c 0
 133 -1 56 26.667 -4 82 c 1
 -53.333 135.333 -78 198 -78 270 c 1
EndSplineSet
Validated: 1
EndChar

StartChar: atilde
Encoding: 227 227 166
Width: 796
Flags: HMW
HStem: 0 21G<5 5> 536 20G<-1 88 88 88 533 533> 536 20G<-1 88 88 88 533 533>
LayerCount: 2
Fore
SplineSet
233.3 186.5 m 1xc0
 9.2998 10.5 l 1
 -8.7002 28.5 l 0
 -8.7002 76.5 l 1
 202 246 l 1
 -1 556 l 1
 41.2998 568.5 l 0
 88 556 l 1
 257 297 l 1
 533 556 l 1
 543.3 538.5 l 0
 549.3 480.5 l 5
 293.3 240.5 l 1
 695.3 -371.5 l 1
 657.3 -389 l 0
 618 -389 l 1
 233.3 186.5 l 1xc0
EndSplineSet
Validated: 1
EndChar

StartChar: adieresis
Encoding: 228 228 167
Width: 812
Flags: HMW
HStem: 0 21G<195 195> 536 20G<723 723> 536 20G<723 723>
LayerCount: 2
Fore
SplineSet
490 335 m 1xc0
 723 556 l 1
 754.6 512.6 l 4
 744.8 477.3 l 5
 530.8 271.3 l 1
 676 51 l 1
 632.8 37.2998 l 0
 582 50 l 1
 466.8 219.3 l 1
 214.8 0 l 1
 180.8 27.2998 l 0
 180.8 55.2998 l 1
 432 280 l 1
 37 884 l 1
 80.7998 899.3 l 0
 130 887 l 1
 490 335 l 1xc0
EndSplineSet
Validated: 1
EndChar

StartChar: eacute
Encoding: 233 233 172
Width: 0
Flags: W
HStem: 0 83<290.543 438.019> 535 20G<35.001 49.001>
VStem: 0 83.001<330.313 549.838> 219.999 79.001<702 931>
LayerCount: 2
Fore
SplineSet
264 661 m 1
 257.333 657.677 229.332 658.342 227.999 662.998 c 0
 226.666 667.688 232.999 669.354 226.999 668 c 1
 219.999 695 l 1
 224.999 928 l 1
 230.332 930.667 237.332 936.667 245.999 946 c 0
 254.666 955.333 263.333 961 270 963 c 1
 303 931 l 1
 299 702 l 1
 264 661 l 1
0 533 m 1
 14 547.667 28.001 555 42.001 555 c 0
 56.001 555 69.668 547.667 83.001 533 c 1
 83.001 522 l 2
 83.001 230 192.668 83.667 412.001 83 c 2
 422.001 83 l 1
 436.668 67.667 444.168 53 444.501 39 c 0
 444.834 25 437.334 12 422.001 0 c 1
 143.334 -0 2.66699 177.667 0 533 c 1
EndSplineSet
Validated: 33
EndChar

StartChar: iacute
Encoding: 237 237 176
Width: 114
Flags: MW
HStem: 0 21G<34.6665 48.3335>
VStem: 0 83<28 528>
LayerCount: 2
Fore
SplineSet
83 28 m 1
 69 9.33301 55.167 0 41.5 0 c 0
 27.833 0 14 9.33301 0 28 c 1
 0 528 l 1
 13.333 545.333 27 553.833 41 553.5 c 0
 55 553.167 69 544.667 83 528 c 1
 83 28 l 1
48 661 m 1
 41.333 657.677 26.332 658.342 24.999 662.998 c 0
 23.666 667.688 12.999 669.354 6.99902 668 c 1
 -0.000976562 695 l 1
 -0.000976562 928 l 1
 5.33203 930.667 12.332 936.667 20.999 946 c 0
 29.666 955.333 37.333 961 44 963 c 1
 77 931 l 1
 83 702 l 1
 48 661 l 1
EndSplineSet
Validated: 33
EndChar

StartChar: odieresis
Encoding: 246 246 185
Width: 525
Flags: MW
HStem: -29 99<239.333 271 239.333 288.333> 407 99<259 319.333> 578 92<177 194.667>
VStem: 44 96<213 213> 129 118<614 632.667> 374 123<618.667 633 613 636.333> 385 91
LayerCount: 2
Fore
SplineSet
254 -29 m 0xf2
 199.333 -29 152.333 -8.66699 113 32 c 0
 69 76.667 46 137 44 213 c 0
 42 286.333 60.333 351 99 407 c 0
 144.333 473 208 506 290 506 c 0
 355.333 506 404.667 476.333 438 417 c 0
 464.667 369 477.333 311 476 243 c 0
 475.332 171 456.666 109.333 420 58 c 0
 378 0 322.667 -29 254 -29 c 0xf2
283 407 m 0
 235 407 197.667 384.333 171 339 c 0
 149.667 302.333 139.333 260.333 140 213 c 0
 140 165.667 152.667 129 178 103 c 0
 199.333 81 224.667 70 254 70 c 0
 288 70 317 82.333 341 107 c 0
 369 134.333 383.667 171.333 385 218 c 0
 389.667 344 355.667 407 283 407 c 0
183 670 m 0
 225.667 670 247 653 247 619 c 0
 247 609 240 599.333 226 590 c 0
 212.667 582 200.333 578 189 578 c 0
 149 578 129 594.667 129 628 c 0xe8
 129 637.333 135 646.667 147 656 c 0
 159 665.333 171 670 183 670 c 0
446 674 m 0
 457.334 674 468.667 668.833 480 658.5 c 0
 491.333 648.167 497 638 497 628 c 0
 497 598 473.667 583 427 583 c 0
 413.667 583 402 586.667 392 594 c 0
 380 602 374 612.333 374 625 c 0xe4
 374 647.667 381.333 662 396 668 c 0
 404 672 420.667 674 446 674 c 0
EndSplineSet
Validated: 33
EndChar

StartChar: uacute
Encoding: 250 250 189
Width: 589
Flags: W
HStem: 0 21.001G<31.001 44.6675 454.667 469.333> 471 83<214.844 284.313>
VStem: 0.000976562 83<7.59375 103.578> 203.999 72.001<702 931> 414 87<9.49258 108.161>
LayerCount: 2
Fore
SplineSet
501 30 m 1
 489.667 10 476.667 0.000976562 462 0.000976562 c 0
 447.333 0.000976562 431.333 9.66797 414 29.001 c 1
 358.667 324.334 303.334 471.667 248.001 471 c 0
 192.668 471 137.668 322.333 83.001 25 c 1
 66.334 8.33301 51.334 0 38.001 0 c 0
 24.001 0 11.334 8 0.000976562 24 c 1
 83.334 377.333 166.667 554 250 554 c 0
 333.333 554 417 379.333 501 30 c 1
241 661 m 1
 234.333 657.677 226.779 659.97 222.999 662.998 c 0
 220.5 665 219.5 664.5 213.999 668 c 1
 203.999 695 l 1
 203.999 928 l 1
 209.332 930.667 216.332 936.667 224.999 946 c 0
 233.666 955.333 238.333 961 245 963 c 1
 278 931 l 1
 276 702 l 1
 241 661 l 1
EndSplineSet
Validated: 33
EndChar

StartChar: udieresis
Encoding: 252 252 191
Width: 520
Flags: MW
HStem: -24 99 623 92
VStem: 53 96<298.667 334.667 298.667 348.333> 108 118<658.997 677.664> 353 123<663.664 677.997 657.997 681.331> 371 95.5
LayerCount: 2
Fore
SplineSet
466 285 m 1xe4
 466 261.667 466.167 226.496 466.5 179.496 c 0
 466.833 132.496 467 97.3291 467 73.9961 c 0
 467 66.6631 467.667 55.8301 469 41.4971 c 0
 470.333 27.1641 471 16.3311 471 8.99805 c 0
 471 -5.00195 466.167 -16.502 456.5 -25.502 c 0
 446.833 -34.502 435.333 -39.002 422 -39.002 c 0
 396.667 -39.002 380.667 -23.6689 374 6.99805 c 1
 333.333 -14.335 286.333 -24.668 233 -24.001 c 0
 190.333 -24.001 155 -14.668 127 3.99902 c 0
 96.333 24.666 78 54.999 72 94.999 c 0
 59.333 180.999 53 257.999 53 325.999 c 0
 53 370.666 58 421.333 68 478 c 0
 72.667 506 88 520.333 114 521 c 0
 128 521 139.833 516.5 149.5 507.5 c 0
 159.167 498.5 164 487 164 473 c 0
 164 458.333 161.5 434.5 156.5 401.5 c 0
 151.5 368.5 149 343.333 149 326 c 0
 149 271.333 150.833 224.666 154.5 185.999 c 0
 158.167 147.332 163.667 116.332 171 92.999 c 1
 181.667 86.999 192.167 82.499 202.5 79.499 c 0
 212.833 76.499 223 74.999 233 74.999 c 0
 276.334 74.999 322.667 81.999 372 95.999 c 1
 371 194.999 l 1
 370 289.999 l 2
 370 359.999 373 420.999 379 472.999 c 0
 382.333 502.999 398.333 517.999 427 517.999 c 0
 441 517.999 452.667 513.332 462 503.999 c 0
 471.337 494.666 475.67 483.333 475 470 c 2
 466 285 l 1xe4
162 714.996 m 0
 204.667 714.996 226 697.997 226 663.997 c 0
 226 653.997 219 644.33 205 634.997 c 0
 191.666 626.997 179.333 622.997 168 622.997 c 0
 128 622.997 108 639.664 108 672.997 c 0xd0
 108 682.33 114 691.663 126 700.996 c 0
 138 710.329 150 714.996 162 714.996 c 0
425 718.997 m 0
 436.335 718.997 447.668 713.83 459 703.497 c 0
 470.333 693.164 476 682.997 476 672.997 c 0xc8
 476 642.997 452.667 627.997 406 627.997 c 0
 392.667 627.997 381 631.664 371 638.997 c 0xc4
 359 646.997 353 657.33 353 669.997 c 0xc8
 353 692.664 360.333 706.997 375 712.997 c 0
 383 716.997 399.667 718.997 425 718.997 c 0
EndSplineSet
Validated: 33
EndChar

StartChar: uni0211
Encoding: 529 529 206
Width: 484
Flags: MW
HStem: -1 82.999 468.999 87 607.95 107.73
VStem: 51.2666 99.9404 227.267 99.94 350.999 94
LayerCount: 2
Fore
SplineSet
275.998 715.68 m 0
 303.795 716.109 327.208 693.888 327.208 666.078 c 0
 327.208 635.861 306.201 608.419 275.999 607.95 c 0
 246.887 607.498 227.268 635.402 227.268 664.528 c 0
 227.268 692.086 248.454 715.252 275.998 715.68 c 0
99.999 715.68 m 0
 127.796 716.109 151.208 693.888 151.208 666.078 c 0
 151.208 635.861 130.201 608.419 99.999 607.95 c 0
 70.8867 607.498 51.2676 635.402 51.2676 664.528 c 0
 51.2676 692.086 72.4551 715.252 99.999 715.68 c 0
114.001 -1 m 1
 33.001 -3.00098 l 1
 19.001 8.33203 12.334 21.332 13.001 35.999 c 0
 13.001 50.666 19.001 66.666 31.001 83.999 c 1
 54.334 82.666 76.667 81.999 98 81.999 c 0
 178.667 81.999 239.667 92.666 281 113.999 c 0
 328.334 137.999 351.667 187.332 351 261.999 c 2
 351 286.999 l 1
 345.667 375.666 320.334 428.166 275.001 444.499 c 0
 229.668 460.832 149.001 468.999 33.001 468.999 c 1
 21.001 487.666 15.001 503.666 15.001 516.999 c 0
 15.001 532.999 23.334 545.999 40.001 555.999 c 1
 61.334 557.332 81.667 557.999 101 557.999 c 0
 330.333 557.999 445 469.666 445 292.999 c 2
 445 290.999 l 1
 443.667 97.666 333.334 0.333008 114.001 -1 c 1
EndSplineSet
Validated: 33
EndChar

StartChar: uni030D
Encoding: 781 781 215
Width: 0
Flags: MW
HStem: 661 302<-258 -246>
VStem: -290 77 -288 65
LayerCount: 2
Fore
SplineSet
-258 661 m 1xa0
 -264.667 657.677 -268.668 658.342 -270.001 662.998 c 0
 -271.334 667.687 -275.001 669.354 -281.001 668 c 1
 -288.001 695 l 1xa0
 -290.001 928 l 1
 -284.668 930.667 -277.668 936.667 -269.001 946 c 0
 -260.334 955.333 -252.667 961 -246 963 c 1
 -213 931 l 1xc0
 -223 702 l 1
 -258 661 l 1xa0
EndSplineSet
Validated: 1
EndChar

StartChar: dotbelowcomb
Encoding: 803 803 216
Width: 0
Flags: MW
HStem: -73.8465 12.9774
VStem: 14.0208 13.208
LayerCount: 2
Fore
SplineSet
-0.00195312 -47.3203 m 0
 27.7949 -46.8896 51.207 -69.1123 51.207 -96.9219 c 0
 51.207 -127.139 30.2002 -154.581 -0.00195312 -155.05 c 0
 -29.1143 -155.502 -48.7334 -127.598 -48.7334 -98.4717 c 0
 -48.7334 -70.9141 -27.5459 -47.748 -0.00195312 -47.3203 c 0
EndSplineSet
Validated: 33
EndChar

StartChar: emdash
Encoding: 8212 8212 221
Width: 882
Flags: MW
HStem: 269 92<663 663 663 667.333>
LayerCount: 2
Fore
SplineSet
191 365 m 0
 231 365 290.667 363.833 370 361.5 c 0
 449.333 359.167 509 358 549 358 c 1
 663 361 l 1
 763 365 l 1
 791 365 l 2
 819.667 365 834 350 834 320 c 0
 834 284 805.667 266 749 266 c 0
 740.333 266 726 266.5 706 267.5 c 0
 686 268.5 671.667 269 663 269 c 0
 598.333 269 501.5 268.667 372.5 268 c 0
 243.5 267.333 147 267 83 267 c 0
 49.667 267 33 283 33 315 c 0
 33 345 48.667 361 80 363 c 0
 93.333 364.333 130.333 365 191 365 c 0
EndSplineSet
Validated: 1
EndChar

StartChar: quoteleft
Encoding: 8216 8216 222
Width: 180
Flags: MW
HStem: 534 241<85.6665 90.3325 64.6655 111.667>
VStem: 38 100
LayerCount: 2
Fore
SplineSet
98 534 m 0
 73.333 534 58.665 550.333 53.998 583 c 0
 42.665 663.667 37.332 711 37.999 725 c 0
 37.999 758.333 51.332 775 77.999 775 c 0
 102.666 775 116.999 759.667 120.999 729 c 0
 132.332 649 137.999 600.667 137.999 584 c 0
 138.666 550.667 125.333 534 98 534 c 0
EndSplineSet
Validated: 33
EndChar

StartChar: quoteright
Encoding: 8217 8217 223
Width: 180
Flags: MW
HStem: 534 239<54.3335 101>
VStem: 28 81<581 581> 58 77<712 735>
LayerCount: 2
Fore
SplineSet
67 534 m 0xc0
 41.667 534 28.667 549 28 579 c 2
 28 581 l 2xc0
 28 593 32 615.667 40 649 c 1
 58 735 l 2
 62.667 761 75 773.667 95 773 c 0
 107 773 116.667 768.667 124 760 c 0
 131.333 751.333 135 741 135 729 c 2
 135 726 l 2xa0
 135 698 126.333 649.667 109 581 c 0
 101 549.667 87 534 67 534 c 0xc0
EndSplineSet
Validated: 33
EndChar

StartChar: quotedblleft
Encoding: 8220 8220 225
Width: 393
Flags: MW
HStem: 532 257<225.668 287.333>
VStem: 35 88 186 89
LayerCount: 2
Fore
SplineSet
281 532 m 0
 259 532 244.669 542.668 238.002 564.001 c 0
 203.335 675.334 186.002 735.667 186.002 745 c 0
 186.002 757.667 190.502 768.167 199.502 776.5 c 0
 208.502 784.833 219.335 789 232.002 789 c 0
 255.335 789 269.668 776.667 275.001 752 c 1
 304.001 659 l 2
 318.668 613 326.001 585.333 326.001 576 c 0
 326.001 563.333 321.668 552.833 313.001 544.5 c 0
 304.333 536.167 293.666 532 281 532 c 0
124.002 533.001 m 0
 104.669 533.001 91.001 542.668 83.001 562.001 c 0
 78.334 572.669 69.334 601.336 56.001 648.002 c 0
 42.001 696.669 35.001 724.669 35.001 732.002 c 0
 35.001 744.669 39.501 755.002 48.501 763.002 c 0
 57.501 771.002 68.668 775.002 82.001 775.002 c 0
 102.668 775.002 116.335 764.335 123.002 743.002 c 2
 148.002 656.002 l 1
 170.002 578.002 l 1
 170.002 565.335 165.335 554.668 156.002 546.001 c 0
 146.669 537.334 136.002 533.001 124.002 533.001 c 0
EndSplineSet
Validated: 1
EndChar

StartChar: quotedblright
Encoding: 8221 8221 226
Width: 393
Flags: MW
HStem: 487 284<258.333 314.333>
VStem: 51 90 219 90
LayerCount: 2
Fore
SplineSet
265 487 m 0
 251.667 487 240.667 491.168 232 499.501 c 0
 223.333 507.834 219 518.667 219 532 c 0
 219 568.667 234.667 637.334 266 738 c 0
 273.333 760 287.333 771 308 771 c 0
 320.667 771 331.667 766.833 341 758.5 c 0
 350.333 750.167 355 740 355 728 c 1
 326 620 l 2
 318.667 592 313 561.667 309 529 c 0
 305.667 501 291 487 265 487 c 0
97 487.001 m 0
 83.667 487.001 72.667 491.169 64 499.502 c 0
 55.333 507.835 51 518.668 51 532.001 c 0
 51 568.668 66.667 637.335 98 738.001 c 0
 105.333 760.001 119.333 771.001 140 771.001 c 0
 152.667 771.001 163.667 766.834 173 758.501 c 0
 182.333 750.168 187 740.001 187 728.001 c 1
 158 620.001 l 2
 150.667 592.001 145 561.668 141 529.001 c 0
 137.667 501.001 123 487.001 97 487.001 c 0
EndSplineSet
Validated: 1
EndChar

StartChar: Euro
Encoding: 8364 8364 236
Width: 610
Flags: MW
HStem: -17 100 242 88 415 87<111 111> 579 194 661 96
VStem: 87 98
LayerCount: 2
Fore
SplineSet
609 633 m 0xf4
 609 618.333 605.001 605.668 597.001 595.001 c 0
 587.668 583.659 575.668 578.325 561.001 579.001 c 0xf4
 540.334 579.001 524.668 591.001 514.001 615.001 c 0
 504.001 637.001 495.001 650.334 487.001 655.001 c 0
 480.334 659.001 464.001 661.001 438.001 661.001 c 0
 372.668 661.001 310.334 608.001 251.001 502.001 c 1
 470.001 502.001 l 2
 482.668 502.001 493.001 498.001 501.001 490.001 c 0
 509.001 482.001 513.001 471.334 513.001 458.001 c 0
 513.001 445.334 509.001 435.001 501.001 427.001 c 0
 493.001 419.001 482.668 415.001 470.001 415.001 c 2
 213.001 415.001 l 1
 201.001 379.668 194.001 352.001 192.001 332.001 c 1
 365.001 330.001 l 2
 377.668 330.001 388.168 326.001 396.501 318.001 c 0
 404.834 310.001 409.001 299.668 409.001 287.001 c 0
 409.001 274.334 404.834 263.834 396.501 255.501 c 0
 388.168 247.168 377.668 243.001 365.001 243.001 c 0
 351.001 243.001 291.001 243.668 185.001 245.001 c 1
 187.001 190.334 197.334 150.334 216.001 125.001 c 0
 237.334 97.001 272.001 83.001 320.001 83.001 c 0
 350.668 83.001 379.001 91.334 405.001 108.001 c 0
 413.668 113.334 432.334 128.334 461.001 153.001 c 0
 479.668 169.001 495.668 177.001 509.001 177.001 c 0
 522.334 177.001 533.834 171.834 543.501 161.501 c 0
 553.168 151.168 558.001 139.334 558.001 126.001 c 0
 558.001 112.001 552.001 99.001 540.001 87.001 c 0
 500.001 50.334 467.001 25.334 441.001 12.001 c 0
 405.668 -6.66602 365.334 -16.333 320.001 -17 c 0
 245.334 -17 187.334 8.33301 146.001 59 c 0
 106.668 105.667 87.001 168 87.001 246 c 1
 82.334 246 71.667 245.333 55 244 c 0
 41.667 243.333 31 242.667 23 242 c 0
 -7 242 -22 256.667 -22 286 c 0
 -22 309.333 -7.66699 324 21 330 c 0
 28.333 331.333 52.333 332.333 93 333 c 1
 97 361 103 388.333 111 415 c 1
 21 413 l 2
 9 413 -1.16699 417.167 -9.5 425.5 c 0
 -17.833 433.833 -22 444.333 -22 457 c 0
 -22 480.334 -5.66699 494.668 27 500 c 0
 35 501.333 73.667 502 143 502 c 1
 219 672 317.333 757 438 757 c 0xec
 469.334 757 494.667 754 514 748 c 1
 525.333 764.667 540.333 773 559 773 c 0
 582.333 773 597.333 754.333 604 717 c 0
 607.333 700.333 609 672.333 609 633 c 0xf4
EndSplineSet
Validated: 33
EndChar

StartChar: approxequal
Encoding: 8776 8776 244
AltUni2: 0022f2.ffffffff.0
Width: 833
Flags: W
HStem: 141 69<459.803 654.262> 207 70<180.923 384.038> 321 69<458.677 654.478> 387 69<181.253 384.364>
LayerCount: 2
Fore
SplineSet
747 210 m 1x80
 713 186 680.667 168.5 650 157.5 c 0
 619.333 146.5 588.333 141 557 141 c 0x80
 526.333 141 480 152 418 174 c 0
 356 196 308.333 207 275 207 c 0
 248.333 207 220.333 201.167 191 189.5 c 0
 161.667 177.833 127 158 87 130 c 1
 87 206 l 1
 122.333 230 155.5 247.833 186.5 259.5 c 0
 217.5 271.167 247.333 277 276 277 c 0x40
 313.333 277 363 265.833 425 243.5 c 0
 487 221.167 531.334 210 558 210 c 0
 586.667 210 615.5 215.833 644.5 227.5 c 0
 673.5 239.167 707.667 258.667 747 286 c 1
 747 210 l 1x80
747 390 m 1x20
 713 366 680.667 348.5 650 337.5 c 0
 619.333 326.5 588.333 321 557 321 c 0x20
 526.333 321 480 332 418 354 c 0
 356 376 308.333 387 275 387 c 0
 247.667 387 219.667 381.167 191 369.5 c 0
 162.333 357.833 127.667 338 87 310 c 1
 87 386 l 1
 121.667 409.333 154.5 426.833 185.5 438.5 c 0
 216.5 450.167 246.667 456 276 456 c 0x10
 314 456 363.833 445 425.5 423 c 0
 487.167 401 531.333 390 558 390 c 0
 586 390 614.5 395.667 643.5 407 c 0
 672.5 418.333 707 438 747 466 c 1
 747 390 l 1x20
EndSplineSet
Validated: 1
EndChar

StartChar: uni0085
Encoding: 133 133 254
Width: 1000
LayerCount: 2
Back
SplineSet
64.4004 557.509 m 1
 111.669 552.662 135.551 550.202 172.4 541.511 c 0
 202.197 534.481 221.425 513.405 246.399 501.511 c 0
 291.235 480.154 300.813 469.908 332.971 427.51 c 0
 363.376 387.421 388.934 336.39 411.198 271.51 c 0
 424.812 231.839 437.193 186.991 448.699 136.301 c 1
 482.699 82.3008 535.096 72.3008 578.699 72.3008 c 0
 620.699 72.3008 600.835 68.3271 612.699 74.3008 c 1
 657.03 76.9082 679.406 98.1699 714.399 125.51 c 0
 742.433 147.411 766.138 162.192 770.399 197.511 c 0
 773.242 221.062 744.779 224.351 728.399 241.511 c 1
 681.065 244.887 664.399 231.511 598.399 231.511 c 1
 541.761 295.097 595.396 295.699 580.699 304.301 c 1
 666.699 350.301 740.699 394.301 780.699 474.301 c 0
 794.739 500.821 791.223 526.448 816.699 542.301 c 0
 835.018 553.698 869.354 551.832 870.699 530.301 c 0
 872.699 498.301 862.159 474.181 856.699 438.301 c 1
 827.95 376.908 792.021 345.023 716.399 297.511 c 1
 791.416 287.988 842.19 241.964 846.399 183.51 c 1
 832.399 137.51 823.366 120.862 790.699 98.2998 c 0
 716.292 46.9102 671.128 0 580.699 0 c 2
 504.699 0 l 1
 422.699 38.2998 l 2
 356.892 68.0732 357.129 164.837 331.015 259.509 c 0
 320.588 297.308 305.961 334.772 281.253 367.509 c 0
 251.501 406.926 207.133 439.483 137.882 457.509 c 0
 106.808 465.597 96.4229 471.967 54.4004 473.509 c 1
 -1.72177 479.015 25 560 64.4004 557.509 c 1
36 483 m 1
 19.333 496.333 10.667 508.995 10 520.995 c 0
 10 532.995 18.333 544.662 35 555.995 c 1
 91 555.995 133 552.995 161 546.995 c 0
 189 540.995 210 518.328 224 478.995 c 0
 238 439.662 249.5 402.829 258.5 368.496 c 0
 267.5 334.163 276.667 296.33 286 254.997 c 0
 294.667 214.33 314 174.33 344 134.997 c 0
 368.667 102.33 406.667 85.9971 458 85.9971 c 0
 469.333 85.9971 481 86.6641 493 87.9971 c 0
 562.333 97.3301 608 134.997 630 200.997 c 0
 641.333 234.33 647 267.33 647 299.997 c 0
 647 331.997 641.667 362.997 631 392.997 c 0
 611 449.664 556.667 477.997 468 477.997 c 2
 444 477.997 l 1
 428 493.33 420.333 506.997 421 518.997 c 0
 421 532.33 429 544.33 445 554.997 c 1
 465 554.997 l 2
 540.333 554.997 595 544.33 629 522.997 c 0
 665.667 500.33 692.667 461.33 710 405.997 c 0
 718 380.664 721.667 352.331 721 320.998 c 0
 721 283.665 715.667 242.332 705 196.999 c 0
 684.333 113.666 638 55.666 566 22.999 c 0
 529.333 6.33203 494.333 -2.00098 461 -2.00098 c 0
 429 -2.00098 398.667 5.66602 370 20.999 c 0
 311.333 51.666 271.5 90.833 250.5 138.5 c 0
 229.5 186.167 211.5 238.5 196.5 295.5 c 0
 181.5 352.5 169.333 399 160 435 c 0
 151.333 467.667 116.333 484 55 484 c 0
 49 483.333 42.667 483 36 483 c 1
EndSplineSet
EndChar

StartChar: imacron
Encoding: 299 299 255
Width: 460
Flags: W
HStem: 0 21G<42 56 389.333 403>
VStem: 252.999 81.001<702 931>
LayerCount: 2
Fore
SplineSet
429 27 m 1
 421 9 410 0 396 0 c 0
 382.667 0 367 8.33301 349 25 c 1
 290 343.1 l 1
 96 27 l 1
 78.667 9 63 0 49 0 c 0
 35 0 22.667 8.33301 12 25 c 1
 292 509.1 l 1
 286.109 503.791 307.545 532.723 312 531.1 c 1
 318 531.1 324 527.1 330 509.1 c 1
 429 27 l 1
299 661 m 1
 292.333 657.677 270.332 658.342 268.999 662.998 c 0
 267.666 667.688 265.999 669.354 259.999 668 c 1
 252.999 695 l 1
 256.999 928 l 1
 262.332 930.667 269.332 936.667 277.999 946 c 0
 286.666 955.333 294.333 961 301 963 c 1
 334 931 l 1
 334 702 l 1
 299 661 l 1
EndSplineSet
Validated: 1
EndChar

StartChar: brokenbar
Encoding: 166 166 256
Width: 167
Flags: W
HStem: 0 21G<42 120 42 42>
VStem: 42 78<0 0>
LayerCount: 2
Fore
SplineSet
120 0 m 1
 42 0 l 1
 41 822 l 1
 120 822 l 1
 120 0 l 1
EndSplineSet
EndChar
